<?xml version="1.0" encoding="UTF-8"?><svg id="Layer_1" xmlns="http://www.w3.org/2000/svg" viewBox="0 0 764.78 434.95"><defs><style>.cls-1{fill:#fff;}.cls-2{fill:#7ec242;}</style></defs><g><path class="cls-1" d="M74.43,284.21c-7.97,0-15.8-1.2-23.3-3.58-26.49-8.39-46.75-38-47.13-68.88,0-.12,0-.24,.01-.36,.09-1.21,.14-2.45,.18-3.76,.1-3.02,.21-6.14,.99-9.26,4.83-19.11,17.66-33.32,38.14-42.23,71.81-31.23,142.33-61.53,220.47-95.07,14.48-6.22,25.74-10.57,36.5-14.13,2.6-.86,4.87-1.28,6.95-1.28,9.81,0,12.63,9.54,13.55,12.67,.15,.51,.4,1.1,.66,1.71,.17,.41,.34,.82,.5,1.23l9.08,23.53c8.02,20.79,16.05,41.58,24.05,62.38,5.54,14.39,.17,27.01-14,32.95-29.7,12.45-59.81,25.35-88.92,37.83-22.8,9.77-46.37,19.88-69.61,29.7-23.91,10.11-49.43,20.78-75.46,30.33-11.19,4.11-22.18,6.19-32.67,6.19h0Z"/><path class="cls-2" d="M307.25,49.67c4.98,0,7.79,3.28,9.72,9.81,.33,1.11,.85,2.16,1.26,3.25,11.05,28.64,22.11,57.26,33.13,85.91,4.93,12.82,.06,22.85-11.81,27.82-52.98,22.2-105.64,45.17-158.54,67.54-24.91,10.53-49.91,20.95-75.29,30.26-10.18,3.74-20.68,5.95-31.29,5.95-7.33,0-14.72-1.06-22.09-3.39-25.05-7.93-43.98-36.12-44.34-65.11,.32-4.12,.06-8.39,1.06-12.35,4.91-19.46,18.24-31.88,35.86-39.54,73.38-31.92,146.91-63.5,220.45-95.06,11.88-5.1,23.91-9.95,36.18-14.01,2.17-.72,4.05-1.07,5.7-1.07m0-8c-2.51,0-5.2,.48-8.21,1.48-10.87,3.6-22.23,7.99-36.82,14.25-78.16,33.54-148.7,63.85-220.48,95.07-21.68,9.43-35.28,24.54-40.43,44.92-.89,3.54-1.01,7.03-1.11,10.1-.04,1.26-.08,2.45-.17,3.58-.02,.24-.03,.48-.02,.72,.19,15.61,5.26,31.54,14.29,44.85,9.2,13.56,21.85,23.43,35.64,27.8,7.88,2.5,16.13,3.76,24.51,3.76,10.95,0,22.41-2.17,34.05-6.44,26.12-9.59,51.69-20.28,75.64-30.4,23.25-9.83,46.84-19.94,69.64-29.72,29.1-12.48,59.2-25.38,88.88-37.82,7.84-3.29,13.52-8.52,16.44-15.12,3-6.8,2.91-14.74-.25-22.95-8.05-20.93-16.13-41.85-24.2-62.77l-8.93-23.14c-.17-.45-.36-.9-.55-1.34-.22-.51-.42-.99-.51-1.29-3.05-10.31-8.9-15.54-17.39-15.54h0Z"/></g><g><path class="cls-1" d="M414.34,182.68c-1.54,0-3-.9-3.66-2.39l-19.78-44.83-17.41,5.83c-.42,.14-.85,.21-1.27,.21-1.61,0-3.11-.97-3.73-2.55l-34.51-88.43c-.78-1.99,.15-4.25,2.11-5.11l17.22-7.61-8.29-22.58c-.37-1-.32-2.1,.13-3.07s1.26-1.71,2.26-2.07l16.1-5.84c.45-.16,.91-.24,1.36-.24,1.59,0,3.09,.95,3.71,2.51l9.01,22.49,15.93-8.22c.57-.3,1.2-.45,1.83-.45,.44,0,.88,.07,1.31,.22,1.03,.36,1.88,1.12,2.33,2.12,.69,1.51,1.36,2.99,2.01,4.44,.86,1.9,1.69,3.75,2.53,5.56,.15-.11,.31-.2,.48-.29l16.44-8.4c.58-.3,1.2-.44,1.82-.44,1.32,0,2.61,.66,3.37,1.84,14.47,22.49,23.04,44.43,26.2,67.07,.41,2.95-1.87,6.27-4.17,7.4-3.59,1.76-7.31,3.36-10.91,4.9-1.29,.56-2.59,1.11-3.9,1.68-.52,.23-1.06,.34-1.6,.34-.23,0-.47-.02-.69-.06,.37,.95,.75,1.92,1.14,2.9,.47,1.2,.95,2.41,1.43,3.64,.76,1.96-.12,4.17-2.01,5.07l-17.35,8.23,18.36,45.06c.4,.99,.39,2.1-.03,3.08-.42,.98-1.22,1.76-2.21,2.15l-14.13,5.57c-.48,.19-.98,.28-1.47,.28Z"/><path class="cls-2" d="M364.88,8c3.64,9.08,7.07,17.64,10.65,26.57,6.82-3.52,13.2-6.81,19.84-10.24,2.61,5.71,4.85,10.87,7.37,15.9,.51,1.02,2.05,1.52,3.12,2.26,.31-1.38,.77-2.74,.87-4.14,.06-.71-.51-1.47-.88-2.42,5.48-2.8,10.78-5.5,16.44-8.4,13.03,20.25,22.28,41.69,25.61,65.46,.14,1-.98,2.77-1.97,3.25-4.75,2.33-9.66,4.33-14.65,6.52-.51-.97-.74-1.85-1.29-2.39-1.25-1.22-2.9-3.41-3.97-3.41-.06,0-.11,0-.17,.02-3.46,.82-1.86,3.56-1.1,5.65,1.46,3.99,3.06,7.93,4.68,12.07-7.06,3.35-13.77,6.53-20.77,9.85,6.79,16.66,13.45,33,19.79,48.56-4.8,1.89-9.15,3.61-14.13,5.57-6.91-15.65-14.05-31.83-21.26-48.16-7.13,2.39-13.83,4.63-20.87,6.99-11.55-29.59-22.98-58.89-34.51-88.43,7.07-3.13,13.81-6.1,20.65-9.13-3.3-9-6.37-17.36-9.58-26.11,5.49-1.99,10.7-3.88,16.1-5.84m0-8c-.91,0-1.83,.15-2.73,.48l-11.01,3.99-5.1,1.85c-2,.72-3.63,2.22-4.53,4.15-.9,1.93-.99,4.14-.26,6.13l6.74,18.37,.25,.69-13.79,6.1c-3.91,1.73-5.77,6.24-4.22,10.22l14.69,37.66,19.81,50.77c1.23,3.15,4.24,5.09,7.45,5.09,.84,0,1.7-.13,2.54-.42l13.95-4.67,9.36,21.21,8.95,20.28c1.32,2.98,4.24,4.77,7.32,4.77,.98,0,1.97-.18,2.93-.56l14.13-5.57c1.99-.78,3.58-2.33,4.42-4.3,.84-1.97,.86-4.19,.05-6.16l-8.12-19.93-8.81-21.62,9.61-4.56,4.33-2.05c3.79-1.8,5.55-6.22,4.03-10.13-.31-.79-.61-1.57-.92-2.34,.8-.35,1.6-.69,2.4-1.03,3.64-1.56,7.4-3.18,11.08-4.98,3.67-1.8,7.06-6.61,6.37-11.54-3.25-23.22-12.01-45.69-26.8-68.68-1.52-2.36-4.09-3.67-6.73-3.67-1.23,0-2.47,.28-3.63,.88l-5.43,2.77-7.79,3.98c-.25-.56-.5-1.11-.76-1.68-.66-1.46-1.33-2.95-2.03-4.48-.91-1.99-2.59-3.52-4.66-4.23-.85-.29-1.73-.44-2.61-.44-1.26,0-2.52,.3-3.67,.89l-12.02,6.2-7.38-18.4c-1.25-3.12-4.25-5.03-7.43-5.03h0Z"/></g><g><path class="cls-1" d="M463.17,66.08c-1.59,0-3.09-.96-3.71-2.51l-9.63-24.06c-.4-.99-.38-2.09,.04-3.07s1.22-1.75,2.21-2.14c3.31-1.31,6.65-2.68,9.88-4,7.12-2.92,14.49-5.95,21.94-8.42,10.07-3.35,15.35-5.39,19.6-7.03,6.83-2.64,10.59-4.09,26.13-7.69,1.59-.49,2.99-.73,4.29-.73,2.39,0,6.69,.87,8.55,6.69,3.07,9.6-1.87,13.5-5.09,14.97-17.24,7.88-25.97,13.08-34.42,18.11-8.63,5.14-17.56,10.45-35.18,18.51-.9,.41-1.77,.68-2.53,.92-.27,.08-.53,.16-.77,.25-.43,.15-.87,.22-1.3,.22Z"/><path class="cls-2" d="M533.92,10.41c2.11,0,3.81,1.01,4.74,3.91,1.67,5.21,.7,8.45-2.95,10.11-34.86,15.94-34.74,20.68-69.61,36.62-.97,.44-2.03,.71-2.93,1.02-3.22-8.04-6.29-15.71-9.63-24.06,10.64-4.19,20.95-8.81,31.62-12.35,26.75-8.89,20.7-8.92,45.52-14.66,1.14-.37,2.24-.6,3.24-.6m0-8c-1.67,0-3.42,.28-5.33,.87-15.7,3.64-19.56,5.13-26.54,7.83-4.2,1.62-9.44,3.65-19.42,6.96-7.58,2.52-15.01,5.57-22.19,8.52-3.22,1.32-6.55,2.69-9.84,3.98-1.98,.78-3.57,2.32-4.41,4.27s-.87,4.17-.08,6.14l9.52,23.76,.12,.29c1.25,3.11,4.24,5.03,7.43,5.03,.86,0,1.73-.14,2.59-.43,.21-.07,.43-.14,.66-.21,.83-.26,1.87-.58,3.01-1.1,17.82-8.15,26.84-13.52,35.56-18.71,8.74-5.2,17-10.12,34.04-17.91,2.78-1.27,11.52-6.46,7.24-19.83-1.9-5.93-6.52-9.47-12.36-9.47h0Z"/></g><g><path class="cls-1" d="M748.54,430.95c-.82,0-1.62-.25-2.3-.73-20.3-14.3-36.99-26.09-52.5-37.09-25.2-17.87-51.14-35.6-76.23-52.75-50.67-34.63-103.07-70.44-152.11-109.28-2.49-1.97-5.61-3.35-7.59-3.35-.12,0-.24,0-.35,.02-.61,.06-1.21,.09-1.78,.09-4.23,0-7.23-1.6-9.85-3.34l-1.68-1.11c-2.91-1.91-5.91-3.89-8.8-6.03-1.18-.87-2.36-1.74-3.55-2.61-5.35-3.93-10.88-7.99-16.07-12.39-5.2-4.41-6.55-11.45-3.52-18.38,2.44-5.59,6.98-8.67,12.79-8.67,.89,0,1.83,.07,2.78,.22,3.45,.53,7.08,1.26,10.29,3.01l.94,.51c7.71,4.19,15.68,8.53,23.02,13.7,5.37,3.78,10.14,8.65,13.41,13.71,2.94,4.54,6.7,7.6,12.57,10.2,6.09,2.71,11.93,6.08,17.37,10.02,2.68,1.94,5.01,4.22,7.26,6.42,2.29,2.24,4.46,4.35,6.84,6,30.41,20.96,61.44,42.12,91.44,62.58,9.05,6.17,18.1,12.35,27.15,18.52,9.02,6.16,18.05,12.31,27.36,18.66l4.24,2.89c-7.4-24.06-10.66-49.08-13.81-73.33-.32-2.44-.64-4.89-.96-7.33-1.88-14.23-3.68-28.71-5.42-42.71-2.84-22.79-5.77-46.35-9.1-69.44-4.03-27.94-9.9-49.67-18.47-68.39-15.06-32.88-34.94-51.33-62.58-58.05-1.69-.41-2.91-1.86-3.04-3.59l-.61-8.24c-.09-1.21,.38-2.4,1.27-3.23,.74-.69,1.72-1.07,2.72-1.07,.2,0,.4,.01,.6,.04,.46,.07,.88,.12,1.25,.17,.83,.11,1.61,.21,2.42,.41,19.28,4.55,35.96,15.24,49.58,31.76,13.99,16.97,24.12,37.36,32.85,66.12,11.78,38.77,16.39,79.29,20.11,117.47,4.09,41.96,11.54,85.33,22.16,128.93,.75,3.09,1.97,4.88,4.51,6.61,13.85,9.44,27.69,18.88,41.53,28.33l24.37,16.62c1.54,1.05,2.15,3.04,1.46,4.78l-8.24,20.81c-.45,1.14-1.4,2.01-2.58,2.36-.38,.11-.76,.17-1.14,.17ZM424.8,190.27c.73,.57,1.54,1.16,1.98,1.23,.07,.01,.13,.02,.19,.02,.18,0,.25-.06,.29-.11,.06-.07,.08-.16,.06-.26-.14-.43-.89-1.25-1.51-1.7-.3,.23-.67,.53-1,.81Z"/><path class="cls-2" d="M559.65,10.38c1.42,.22,2.41,.29,3.36,.52,19.37,4.57,34.89,15.22,47.41,30.41,15.71,19.07,25.01,41.38,32.11,64.74,11.56,38.05,16.12,77.33,19.96,116.69,4.26,43.72,11.87,86.83,22.25,129.49,.96,3.92,2.69,6.62,6.14,8.97,21.97,14.97,43.93,29.97,65.9,44.95l-8.24,20.81c-17.51-12.34-35.02-24.7-52.49-37.09-76.07-53.94-154.97-103.92-228.18-161.9-2.76-2.18-6.74-4.21-10.07-4.21-.25,0-.5,.01-.74,.04-.49,.05-.95,.07-1.39,.07-3.09,0-5.27-1.1-7.65-2.68-3.47-2.29-6.97-4.55-10.31-7.02-6.55-4.84-13.2-9.58-19.41-14.83-4.14-3.51-4.62-8.75-2.44-13.73,1.87-4.28,5.03-6.27,9.12-6.27,.7,0,1.42,.06,2.17,.17,3.07,.47,6.31,1.11,8.98,2.57,8.02,4.37,16.13,8.72,23.58,13.97,4.76,3.35,9.21,7.75,12.36,12.61,3.67,5.67,8.33,9.03,14.31,11.68,5.83,2.59,11.48,5.85,16.64,9.6,5.08,3.68,9.04,8.93,14.18,12.47,39.44,27.18,79.05,54.11,118.61,81.12,13.43,9.16,26.86,18.32,41.21,28.11-.98-3.04-1.6-5.03-2.26-7.01-8.99-27.31-12.18-55.73-15.91-84.03-4.93-37.39-9.14-74.88-14.53-112.2-3.44-23.83-8.68-47.4-18.79-69.49-13.32-29.09-32.29-52.25-65.27-60.28-.2-2.66-.4-5.33-.61-8.24m-132.68,185.14c2.84,0,4.79-2.53,4.27-5.15-.42-2.09-3.22-4.85-5.27-5.14-.08-.01-.16-.02-.24-.02-1.77,0-3.9,2.57-5.85,3.92,0,.81,0,1.62,.01,2.42,2.05,1.35,3.96,3.48,6.18,3.88,.31,.06,.61,.08,.9,.08M559.65,2.38c-2,0-3.95,.75-5.44,2.13-1.79,1.65-2.72,4.03-2.54,6.46l.54,7.27,.07,.97c.26,3.46,2.71,6.36,6.09,7.18,14.21,3.46,26.07,10.05,36.27,20.15,8.96,8.88,16.69,20.55,23.62,35.68,8.41,18.37,14.18,39.75,18.15,67.3,3.33,23.06,6.26,46.61,9.09,69.38,1.74,14,3.54,28.48,5.42,42.72,.32,2.44,.64,4.88,.96,7.32,2.72,20.86,5.51,42.3,10.94,63.31-7.61-5.19-15.05-10.27-22.5-15.35-9.04-6.17-18.08-12.34-27.12-18.5-30.01-20.47-61.05-41.64-91.46-62.59-2.11-1.45-4.15-3.45-6.32-5.57-2.35-2.3-4.79-4.68-7.71-6.79-5.66-4.1-11.75-7.61-18.09-10.43-5.17-2.3-8.32-4.83-10.84-8.72-3.55-5.48-8.68-10.73-14.47-14.8-7.54-5.3-15.61-9.69-23.42-13.94l-.94-.51c-3.75-2.04-7.79-2.86-11.6-3.45-1.15-.18-2.29-.27-3.39-.27-7.38,0-13.38,4.04-16.45,11.07-3.76,8.62-2,17.44,4.6,23.04,5.29,4.49,10.88,8.59,16.28,12.56,1.18,.87,2.36,1.73,3.54,2.61,2.96,2.19,6,4.19,8.95,6.13l1.71,1.13c2.99,1.98,6.76,4,12.06,4,.71,0,1.44-.04,2.17-.11,.77,0,3.05,.89,5.07,2.49,49.16,38.93,101.61,74.78,152.34,109.45,25.08,17.14,51.01,34.86,76.18,52.71,15.23,10.8,31.92,22.59,52.51,37.1,1.36,.96,2.98,1.46,4.61,1.46,.77,0,1.54-.11,2.29-.33,2.35-.7,4.25-2.44,5.15-4.72l8.24-20.81c1.38-3.48,.16-7.45-2.93-9.55-7.9-5.39-15.8-10.78-23.69-16.16-14.07-9.6-28.14-19.2-42.21-28.79-1.71-1.16-2.35-2.12-2.87-4.25-10.57-43.41-17.99-86.6-22.06-128.37-3.74-38.37-8.38-79.11-20.27-118.24-8.89-29.28-19.25-50.1-33.59-67.5-14.18-17.21-31.59-28.35-51.75-33.11-1.01-.24-1.93-.36-2.82-.48-.36-.05-.75-.1-1.18-.16-.4-.06-.8-.09-1.2-.09h0Z"/></g></svg>