<?xml version="1.0" encoding="UTF-8"?><svg id="Layer_2" xmlns="http://www.w3.org/2000/svg" viewBox="0 0 550.69 278.5"><defs><style>.cls-1{fill:#0080b7;}.cls-2{fill:#f6851f;}.cls-3{fill:#fded1f;}.cls-4{fill:#9a4092;}.cls-5{fill:#6fbf4c;}.cls-6{fill:#7fc242;}.cls-7{fill:#78c043;}</style></defs><g id="Layer_1-2"><path class="cls-6" d="M128.41,.77C47.79-5.58,0,29.55,0,29.55l5.54,59.5s21.55-11.74,29.17-12.09c6.37-.29,15.07,35.33,18.89,69.03,4.54-.97,9.06-2.01,13.57-3.16-1.56-17.52-3.21-35.07-5.08-52.56-1.91-17.94-4.61-35.86-11.07-52.79-1.39-3.64,4.35-5.47,5.72-1.86,6.39,16.73,9.25,34.57,11.14,52.31,1.88,17.63,3.58,35.32,5.15,52.97,.01,.12,.02,.24,.03,.36,22.91-6.25,45.24-14.86,65.97-25.85,17.72-9.39,38.23-21.01,49.48-38.24,4.51-6.91,7.68-15.27,4.63-23.44-3.96-10.61-14.4-17.97-24.31-22.55-25.35-11.71-55.27-11.35-82.42-7.89-13.59,1.73-27.07,4.33-40.32,7.85-5.7,1.52-11.39,3.14-16.98,5.03-4.78,1.61-13.63,3.82-15.46,9.26-1.23,3.64-7.11,2.35-5.87-1.33,3.45-10.25,17.69-13.26,26.85-15.98,12.54-3.72,25.3-6.71,38.2-8.87,27.69-4.65,57.99-6.88,85.24,1.46,17.38,5.32,42.34,17.98,42.31,39.42-.03,18.35-16.02,32.71-29.64,42.74-15.69,11.55-33.2,20.92-51.19,28.37-15,6.21-30.36,11.54-45.99,15.85,1.51,18.16,2.6,36.35,3.58,54.54,.55,10.14,.7,3.4,.9,13.54,.16,8.12,.55,16.01,2.77,23.73,.45,.23,.85,.62,1.14,1.23,.95,1.96,1.1,2.73,.46,4.89-.85,2.9-4.68,3.09-5.8,.27-3.52-8.93-4.36-18.23-4.55-27.75-.2-10.07-.27-3.23-.82-13.29-1-18.54-2.05-37.08-3.59-55.58-4.46,1.15-8.94,2.21-13.44,3.18,.44,4.55,.78,9.02,1.01,13.33,0,0,4.68,84.84,4.34,94.9-.34,10.06,1.2,18.42,1.2,18.42l38.72-15.03-7.3-106.81s78.61-20.07,101.8-57.28C217.18,62.17,209.03,7.11,128.41,.77Zm-31.53,56.87s25.08-13.6,41.68-1.91c16.6,11.69-1.16,27.37-15.65,35.26-14.5,7.89-24.03,10.34-24.03,10.34l-2-43.69Z"/><g><path class="cls-7" d="M445.73,127.16c-17.55,9.74-28.47,25.5-30.46,43.44,.32,.45,.55,1,.59,1.66,.86,13.58,5.2,27.49,12.87,38.8,6.68,9.85,16.07,15.63,27.29,19.31,23.41,7.69,53.44,4.53,69.14-16.59,15.74-21.17,12.17-51.43-3.58-71.65-18.73-24.04-49.19-29.77-75.84-14.97Zm51.96,61.61c-4.97,15.07-35.49,15.68-39-3.99-3.51-19.67,7.61-29.7,21.97-28.32,15.27,1.47,22,17.23,17.03,32.3Z"/><path class="cls-6" d="M550.65,168.26c-1.95-71.87-81.08-64.63-95.6-58.88-14.52,5.75-46.15,15.28-54.95,55.74,0,0-9.79,61.81,37.71,78.87,47.5,17.06,114.8-3.86,112.84-75.73Zm-29.58,58.23c-18.77,14.76-44.76,17.38-67.01,9.58-12-4.21-22.49-10.16-29.74-20.86-3.3-4.87-6.04-10.06-8.22-15.46-1.41,.17-3.01-.46-3.6-2.14-7.44-21.28-3.85-44.82,11.83-61.51,16.2-17.24,42.35-27.65,65.85-21.9,46.12,11.27,71.84,80.1,30.89,112.3Z"/></g><path class="cls-6" d="M395.25,252.35c-11.86-.37-23.75-.31-35.6,.37-4.87,.28-9.73,.55-14.59,.8-2.93,.15-10.51-.09-12.81,2.35-2.48,2.63-6.07-1.1-4.44-3.9-1.47-3.87-.44-9.75-.35-13.34,.26-10.29,.51-20.58,.78-30.87,.53-20.63,1.09-41.27,1.74-61.9,1.31-41.23-.43-18.07,2.06-59.25,.23-3.87,6.24-3.51,6.01,.37-2.4,39.59-.63,14.84-1.91,54.48-.64,19.84-1.19,39.68-1.71,59.53-.25,9.51-.49,19.01-.72,28.52-.11,4.24-.31,8.49-.36,12.74-.02,1.68-.05,3.36,.03,5.04,0,.09,.12,.61,.21,1.17,6.06-1.72,14.44-.96,19.33-1.3,12.63-.87,25.3-1.27,37.96-.95,7.87,.2,15.69,.73,23.49,1.44,.25-1.11,.54-2.05,.9-2.73,2.2-4.13-12.06-6.65-31.4-5.82s-38.7,2.76-37.99-2.31,12.08-149.83,6.73-160.85c-3.21-6.63-21.3-.09-30.58,.55,0,0,.47,127.52-7.44,158.39s2.55,27.89,12.52,27.29,21.14-.87,33.91,.71c12.77,1.58,47.37,2.64,49.87,1.18,1.45-.84,1.97-5.78,2.56-10.57-6.05-.54-12.11-.95-18.19-1.13Z"/><g><path class="cls-5" d="M234.43,129.42c-.5,.39-1.15,.62-1.96,.57-26.75-1.78-53.23,16.19-61.35,42.02-7.03,22.37,.32,48.7,20.55,61.75,22.18,14.3,52.96,10.35,74.24-3.9,10.66-7.14,19.98-17.44,23.3-30.11,3.75-14.3-.07-28.94-7.88-41.23-11-17.31-28.13-27.16-46.9-29.11Zm18.48,69.25c-5.59,16.96-39.94,17.65-43.89-4.49-3.95-22.14,8.57-33.43,24.73-31.87,17.19,1.66,24.75,19.4,19.16,36.36Z"/><path class="cls-6" d="M303.49,176.82c-1.95-71.87-81.08-64.63-95.6-58.88s-46.15,15.28-54.95,55.74c0,0-9.79,61.81,37.71,78.87,47.5,17.06,114.8-3.86,112.84-75.73Zm-10.48,30.36c-18.59,42.84-89.56,58.71-118.78,18.21-12.82-17.76-15.8-41.93-6.2-61.92,7.4-15.41,19.96-27.64,35.06-34.24,.04-1.24,.72-2.48,2.22-2.93,24.14-7.28,50.99-2.98,69.54,14.85,17.08,16.41,28.16,43,18.16,66.03Z"/></g><g><path class="cls-2" d="M91.33,172.59c-.65,3.65-.56,7.33-.18,11,.21,2.02,.49,4.04,.77,6.05,.13,.93,.27,1.87,.4,2.8,.03,.21,.06,.43,.09,.64,.03,.19,.08,.64,.03,.19,.06,.49,.13,.99,.19,1.48,.45,3.7,.66,7.44,.9,11.16,.2,3.11,.36,6.23,.44,9.35,.11,4.21,.05,8.41-.02,12.61-.06,3.72-.01,7.43,.27,11.13,.47,6.1,1.39,12.16,2.39,18.19,.17,1.02,.35,2.04,.52,3.06,.22,1.29,1.88,2.13,3.08,1.75,1.39-.45,1.99-1.69,1.75-3.08-.63-3.61-1.22-7.23-1.73-10.86-.05-.35-.1-.71-.15-1.06-.04-.29,.03,.24,.03,.23-.01-.11-.03-.23-.05-.34-.03-.2-.05-.39-.08-.59-.09-.69-.17-1.39-.26-2.08-.14-1.22-.27-2.44-.38-3.66-.34-3.8-.46-7.61-.42-11.43s.15-7.92,.08-11.88c-.11-6.54-.53-13.09-1.08-19.6-.17-1.98-.43-3.94-.7-5.91-.13-.93-.26-1.86-.39-2.8-.06-.43-.12-.86-.18-1.3-.03-.22-.06-.43-.09-.65,0-.04-.05-.4-.01-.1s-.02-.15-.03-.21c-.47-3.56-.85-7.17-.61-10.76,.03-.42,.07-.84,.12-1.27,0-.06,0-.25,.04-.29,0,0-.08,.49-.02,.19,.04-.22,.07-.44,.11-.66,.23-1.28-.35-2.76-1.75-3.08-1.22-.28-2.83,.37-3.08,1.75h0Z"/><path class="cls-2" d="M75.19,52.76c.88,3.84,1.55,7.71,2.1,11.61,.01,.11,.1,.7,.07,.48-.04-.28,.01,.11,.02,.13,.02,.16,.04,.31,.06,.47,.07,.5,.13,1.01,.19,1.52,.12,.97,.23,1.95,.33,2.92,.21,1.99,.4,3.99,.58,5.98,.69,7.9,1.13,15.83,1.89,23.73,.44,4.58,1,9.15,1.76,13.7,.22,1.29,1.88,2.13,3.08,1.75,1.4-.45,1.98-1.69,1.75-3.08-.16-.95-.31-1.9-.45-2.86-.07-.5-.14-.99-.21-1.49-.02-.15-.09-.69-.04-.26-.04-.27-.07-.54-.11-.81-.25-1.93-.46-3.86-.66-5.79-.4-3.98-.71-7.96-1.01-11.94-.59-7.92-1.11-15.84-2.14-23.72-.6-4.59-1.34-9.15-2.37-13.67-.29-1.28-1.83-2.15-3.08-1.75-1.34,.43-2.06,1.71-1.75,3.08h0Z"/><path class="cls-2" d="M155.54,44c1.25,.62,2.47,1.32,3.62,2.11,.28,.19,.55,.4,.83,.6,.36,.26-.4-.32-.05-.04,.15,.12,.29,.24,.44,.36,.48,.4,.94,.81,1.38,1.25s.84,.86,1.22,1.32c.08,.1,.17,.2,.25,.3,.06,.07,.41,.52,.13,.15s.06,.09,.12,.16c.09,.12,.18,.24,.26,.36,.65,.93,1.22,1.91,1.69,2.94,.06,.13,.12,.26,.18,.4,.18,.38-.21-.53-.06-.14,.11,.29,.23,.58,.33,.87,.19,.53,.35,1.06,.49,1.6s.27,1.09,.37,1.64c.05,.27,.09,.53,.13,.8,.07,.43-.07-.6-.02-.17,.02,.17,.04,.33,.06,.5,.12,1.15,.16,2.3,.13,3.45-.02,.61-.05,1.22-.11,1.83-.03,.29-.05,.57-.09,.86-.02,.13-.03,.26-.05,.4-.03,.28,.05-.38,.05-.33-.02,.11-.03,.22-.05,.33-.37,2.49-1,4.95-1.8,7.33-.21,.61-.43,1.22-.66,1.83-.11,.29-.23,.59-.34,.88-.05,.14-.11,.27-.16,.4-.04,.09-.07,.18-.11,.27-.13,.31,.04-.11,.08-.19-.55,1.21-1.07,2.42-1.67,3.61-1.21,2.42-2.57,4.77-4.05,7.04-.73,1.12-1.48,2.22-2.27,3.3-.39,.53-.78,1.06-1.18,1.59-.06,.08-.12,.15-.18,.23-.01,.02,.34-.43,.17-.22-.09,.11-.18,.23-.27,.34-.22,.28-.45,.57-.67,.85-3,3.71-6.33,7.17-10.07,10.14-.36,.29,.27-.2,.14-.11-.11,.08-.21,.16-.32,.24-.21,.16-.42,.31-.63,.47-1.06,.77-1.68,2.21-.9,3.42,.67,1.05,2.29,1.72,3.42,.9,4.02-2.92,7.59-6.41,10.79-10.2,3.64-4.3,6.89-8.97,9.54-13.94s4.73-10.08,5.73-15.5c.93-5.01,1-10.35-.8-15.19-1.96-5.27-5.74-9.44-10.57-12.27-.64-.38-1.3-.73-1.96-1.05-1.17-.58-2.76-.35-3.42,.9-.6,1.13-.35,2.8,.9,3.42h0Z"/><path class="cls-2" d="M446.39,199.89c6.13,8.53,14.3,15.71,24.14,19.6,4.64,1.83,9.78,2.83,14.77,2.73,4.86-.1,9.58-1.28,13.97-3.35s8.15-4.96,11.4-8.37c3.45-3.62,6.48-7.86,8.51-12.44s3.11-9.2,2.96-14.07c-.14-4.52-1.32-8.91-3.28-12.97-4.06-8.42-11.47-15.03-19.55-19.5-1.07-.59-2.16-1.15-3.26-1.67-1.18-.56-2.75-.37-3.42,.9-.59,1.11-.36,2.82,.9,3.42,2.11,1,4.15,2.12,6.12,3.37,.98,.62,1.93,1.27,2.87,1.96,.2,.15,.4,.29,.6,.44,.1,.07,.2,.15,.29,.22-.44-.37-.11-.08,0,0,.46,.36,.91,.73,1.35,1.1,1.67,1.41,3.24,2.94,4.68,4.59,.33,.37,.65,.75,.97,1.14,.17,.2,.33,.41,.49,.61,.23,.29-.36-.49-.02-.02,.09,.12,.17,.23,.26,.35,.63,.85,1.23,1.73,1.78,2.64s1.02,1.76,1.48,2.67c.22,.45,.43,.91,.64,1.37,.07,.15,.23,.35-.05-.14,.05,.09,.09,.22,.13,.31,.1,.26,.21,.52,.3,.78,.71,1.9,1.21,3.85,1.53,5.85,.08,.48-.11,.02,0-.09-.01,.02,.04,.34,.04,.33,.03,.22,.05,.44,.07,.66,.05,.56,.08,1.11,.1,1.67,.03,1.02,0,2.04-.08,3.05-.02,.23-.04,.46-.06,.68-.02,.14-.03,.29-.05,.43-.04,.38,.1-.64,0-.06-.08,.52-.16,1.04-.27,1.56-.21,1.06-.49,2.11-.81,3.14-.17,.53-.35,1.06-.55,1.58-.1,.27-.2,.53-.31,.79-.03,.08-.19,.46-.06,.14,.14-.34-.11,.25-.14,.32-.5,1.12-1.06,2.21-1.67,3.28s-1.31,2.15-2.03,3.18c-.32,.47-.66,.93-1,1.39-.11,.15-.45,.75-.18,.24-.14,.26-.4,.51-.59,.74-1.42,1.75-2.98,3.39-4.67,4.88-.39,.34-.78,.68-1.18,1-.21,.17-.43,.34-.64,.51-.3,.24,.48-.36,0,0-.15,.11-.29,.22-.44,.32-.87,.64-1.77,1.24-2.7,1.79s-1.86,1.06-2.83,1.52c-.24,.12-.48,.23-.73,.34-.16,.07-.88,.47-.3,.14-.45,.26-1.01,.4-1.5,.57-1.04,.37-2.1,.68-3.17,.94-.5,.12-.99,.23-1.49,.32-.27,.05-.53,.1-.8,.14-.15,.02-.3,.05-.45,.07-.52,.08,.52-.06-.06,0-2.23,.24-4.45,.3-6.68,.09-.29-.03-.57-.06-.86-.09-.09-.01-.5-.06-.15-.02,.42,.05-.22-.03-.25-.04-.58-.09-1.16-.19-1.73-.29-1.17-.21-2.34-.49-3.48-.82s-2.29-.72-3.41-1.16c-.24-.1-.49-.18-.72-.29,.56,.26-.26-.12-.39-.18-.57-.26-1.13-.52-1.69-.8-2.13-1.07-4.18-2.33-6.12-3.71-.49-.35-.97-.71-1.45-1.08,.44,.34-.17-.13-.29-.23-.29-.23-.58-.46-.86-.7-.96-.8-1.89-1.63-2.79-2.49-1.75-1.67-3.39-3.45-4.92-5.32-.19-.23-.38-.47-.56-.7-.08-.1-.16-.21-.25-.31-.25-.31,.35,.47-.04-.05-.36-.48-.71-.95-1.06-1.44-.76-1.06-2.21-1.68-3.42-.9-1.05,.68-1.71,2.28-.9,3.42h0Z"/><path class="cls-2" d="M325.48,107.39c-.1,7.76-.23,15.52-.41,23.28-.11,4.78-.25,9.57-.38,14.35-.1,3.7-.19,7.4-.23,11.1-.05,4.56-.03,9.12,.02,13.68,.08,7.27,.23,14.55,.38,21.82,.03,1.21,.05,2.42,.08,3.63,.03,1.31,1.13,2.56,2.5,2.5s2.53-1.1,2.5-2.5c-.17-7.78-.34-15.56-.44-23.34-.06-4.79-.1-9.58-.06-14.38,.03-3.7,.11-7.4,.21-11.11,.12-4.55,.25-9.1,.36-13.65,.18-7.26,.31-14.51,.41-21.77,.02-1.21,.03-2.42,.05-3.62,.02-1.31-1.16-2.56-2.5-2.5s-2.48,1.1-2.5,2.5h0Z"/><path class="cls-2" d="M219.01,145.66c-5.97,.22-11.82,1.97-16.85,5.21s-8.9,7.46-11.97,12.36c-3.06,4.89-5.21,10.43-6.35,16.08s-1.34,11.74-.37,17.59c1.07,6.46,3.79,12.56,7.88,17.67s9.56,8.76,15.56,11.17,12.78,3.51,19.28,3.32,13-1.77,18.86-4.67,10.54-6.88,14.21-11.97,5.8-11.35,6.19-17.69c.1-1.61,.07-3.22-.05-4.82-.1-1.3-1.08-2.56-2.5-2.5-1.27,.06-2.61,1.1-2.5,2.5,.12,1.58,.15,3.16,.06,4.73-.02,.37-.05,.74-.08,1.1-.02,.2-.04,.39-.06,.59-.01,.11-.09,.73-.04,.33s-.03,.21-.05,.33c-.03,.16-.05,.33-.08,.49-.06,.38-.14,.76-.21,1.14-.3,1.43-.69,2.84-1.19,4.21-.12,.33-.24,.65-.37,.97-.04,.1-.08,.2-.12,.3-.1,.25,.1-.23,.1-.23-.12,.12-.19,.43-.26,.58-.29,.65-.61,1.29-.94,1.91-.67,1.25-1.42,2.45-2.25,3.59-.09,.13-.19,.25-.28,.38-.05,.06-.09,.13-.14,.19-.26,.35,.07-.12,.1-.13-.23,.11-.52,.65-.69,.85-.45,.54-.93,1.07-1.41,1.58-.98,1.03-2.02,2-3.12,2.91-.14,.12-.79,.5-.81,.65,0,0,.41-.3,.19-.15-.06,.05-.13,.1-.19,.14-.17,.13-.34,.25-.51,.38-.58,.42-1.18,.83-1.79,1.21-1.22,.78-2.49,1.49-3.8,2.14-.32,.16-.63,.31-.95,.45-.21,.1-.82,.51-1.04,.46,.03,0,.57-.23,.14-.06-.08,.03-.15,.06-.23,.09-.15,.06-.3,.12-.46,.18-.36,.14-.72,.27-1.08,.4-1.4,.5-2.83,.93-4.28,1.29-.73,.18-1.47,.34-2.21,.48-.39,.07-.77,.14-1.16,.2-.17,.03-.33,.05-.5,.08-.18,.03-.91,.09-.17,.03-3.1,.27-6.13,.47-9.24,.22-.78-.06-1.56-.15-2.34-.24-.1-.01-.66-.07-.27-.03s-.25-.04-.35-.05c-.4-.06-.8-.12-1.19-.19-1.51-.26-3.02-.6-4.5-1.01s-2.89-.89-4.3-1.45c-.18-.07-.36-.15-.54-.22-.26-.11,.22,.09,.21,.09-.06,0-.17-.07-.23-.1-.35-.16-.71-.32-1.06-.48-.67-.32-1.34-.66-1.99-1.01-1.3-.71-2.55-1.5-3.76-2.36-.16-.11-.31-.23-.46-.34-.07-.05-.51-.37-.2-.15,.32,.23-.19-.15-.26-.21-.17-.14-.34-.28-.51-.42-.57-.47-1.12-.97-1.66-1.48-1.08-1.03-2.09-2.14-3.03-3.3-.06-.07-.38-.51-.17-.21s-.14-.19-.21-.28c-.23-.32-.46-.64-.69-.97-.43-.64-.85-1.29-1.24-1.95s-.77-1.37-1.12-2.07c-.17-.34-.34-.69-.5-1.04-.07-.16-.15-.33-.22-.49-.04-.08-.2-.44-.05-.11s-.02-.05-.05-.12c-.59-1.43-1.08-2.89-1.49-4.39-.34-1.26-.62-2.55-.83-3.84-.05-.31-.1-.63-.14-.94-.06-.44,.08,.63,0,0-.02-.17-.04-.34-.06-.51-.07-.66-.13-1.32-.17-1.99-.17-2.71-.09-5.44,.22-8.14,.02-.15,.04-.3,.05-.45,0-.07,.02-.15,.03-.22,.04-.33-.08,.54-.03,.22,.05-.35,.1-.7,.16-1.05,.11-.67,.23-1.34,.37-2.01,.28-1.33,.61-2.66,.99-3.96s.83-2.59,1.33-3.86c.12-.3,.25-.61,.37-.91,.1-.26-.11,.27-.11,.25,.03-.07,.06-.14,.09-.21,.08-.18,.16-.37,.24-.55,.28-.62,.57-1.23,.87-1.83,.6-1.2,1.26-2.38,1.98-3.52s1.53-2.19,2.28-3.29c-.02,.03-.38,.48-.12,.16,.05-.06,.09-.12,.14-.17,.09-.12,.18-.23,.28-.34,.22-.27,.44-.53,.66-.79,.43-.5,.87-.99,1.33-1.47,.93-.97,1.9-1.88,2.93-2.74,.24-.2,.49-.4,.74-.59,.35-.28-.4,.3-.05,.04,.16-.12,.31-.23,.47-.35,.53-.39,1.07-.76,1.62-1.11,1.1-.71,2.25-1.35,3.44-1.91,.29-.14,.58-.27,.87-.4,.07-.03,.14-.06,.2-.09,.25-.11-.28,.12-.26,.11,.19-.06,.37-.15,.55-.22,.62-.24,1.25-.47,1.89-.67,1.3-.41,2.62-.73,3.96-.97,.32-.06,.67-.07,.99-.16,.02,0-.56,.07-.28,.04,.08,0,.15-.02,.23-.03,.18-.02,.36-.04,.54-.06,.71-.07,1.42-.12,2.13-.14,1.31-.05,2.56-1.12,2.5-2.5s-1.1-2.55-2.5-2.5h0Z"/></g><g><path class="cls-4" d="M490.29,112.32c.68,0,1.36,.04,2.04,.11,.15,.02,.31,.03,.46,.05,.65,.08-.42-.07,0,0,.39,.06,.78,.12,1.18,.19,1.64,.3,3.25,.7,4.85,1.17,1.74,.51,3.45,1.09,5.14,1.73,.91,.34,1.82,.7,2.72,1.07,.22,.09,.44,.18,.66,.27,.32,.13-.42-.18-.1-.04,.08,.04,.17,.07,.25,.11,.5,.21,.99,.43,1.48,.65,3.45,1.53,6.82,3.24,10.09,5.13,1.47,.85,2.92,1.73,4.33,2.67,.62,.41,1.24,.84,1.84,1.28,.28,.2,.56,.41,.84,.62,.33,.25-.5-.39-.01,0,.13,.1,.25,.2,.38,.3,1.42,1.2,2.74,2.56,3.98,3.95,.63,.71,1.24,1.44,1.83,2.18,.07,.09,.14,.19,.21,.27-.04-.05-.34-.45-.07-.09,.12,.16,.24,.32,.36,.48,.29,.39,.58,.79,.86,1.19,2.17,3.11,3.99,6.45,5.51,9.93,.07,.16,.33,.84,.1,.22,.07,.19,.16,.38,.24,.57,.19,.47,.38,.93,.56,1.4,.34,.89,.66,1.78,.97,2.68,.62,1.84,1.17,3.71,1.64,5.59s.89,3.81,1.23,5.73c.17,.95,.32,1.9,.46,2.85,.03,.24,.08,.48,.1,.72-.07-.72,0,.08,.03,.23,.06,.51,.12,1.02,.18,1.52,.42,3.82,.59,7.67,.54,11.51-.03,1.89-.11,3.78-.25,5.67-.07,.94-.15,1.88-.25,2.82-.04,.42-.09,.84-.14,1.26-.03,.22-.05,.45-.08,.67-.01,.11-.03,.22-.04,.33-.04,.34,.09-.65,.01-.08-.12,.88-.26,1.75-.4,2.62-.22,1.28,.34,2.75,1.75,3.08,1.21,.28,2.84-.37,3.08-1.75,1.31-7.74,1.68-15.62,1.06-23.44-.64-8.07-2.23-16.12-5.17-23.68s-7.01-14.45-12.7-20.1c-2.43-2.41-5.21-4.37-8.12-6.16-3.22-1.99-6.58-3.78-10-5.4-6.76-3.2-14.03-6.2-21.54-6.97-.68-.07-1.36-.11-2.04-.11-1.31,0-2.56,1.16-2.5,2.5s1.1,2.49,2.5,2.5h0Z"/><path class="cls-4" d="M459.82,126.84c-7.34,3.42-14.1,8.17-19.72,13.99-5.2,5.39-9.48,11.7-12.42,18.59s-4.57,13.85-4.81,21.16c-.22,6.88,.89,13.9,3.43,20.31,2.69,6.78,6.79,12.91,12.15,17.88,.66,.61,1.34,1.21,2.03,1.78,1,.84,2.57,1.06,3.54,0,.85-.92,1.07-2.64,0-3.54-1.37-1.14-2.69-2.36-3.93-3.64-.61-.63-1.19-1.28-1.76-1.94-.27-.31-.53-.62-.79-.94-.14-.17-.27-.34-.4-.5-.06-.08-.12-.15-.18-.23-.29-.36,.34,.45,.04,.05-2-2.67-3.74-5.52-5.14-8.55-.17-.38-.34-.76-.51-1.14-.06-.15-.15-.43,.09,.21-.03-.09-.07-.17-.11-.26-.09-.21-.17-.43-.26-.64-.3-.77-.59-1.56-.85-2.35-.52-1.58-.96-3.18-1.32-4.8-.17-.79-.33-1.58-.46-2.38-.06-.39-.13-.78-.18-1.16-.1-.68,.06,.49-.01-.09-.03-.23-.06-.46-.08-.69-.19-1.64-.29-3.28-.31-4.93s.03-3.37,.17-5.04c.07-.84,.16-1.69,.27-2.53,.02-.16,.08-.47-.03,.24,.02-.09,.03-.19,.04-.28,.03-.21,.06-.42,.09-.63,.07-.44,.14-.89,.22-1.33,.6-3.35,1.52-6.64,2.72-9.82,.15-.41,.31-.82,.48-1.22,.07-.18,.15-.36,.22-.54,.04-.09,.08-.18,.11-.27-.27,.69-.09,.22-.02,.06,.35-.81,.72-1.61,1.1-2.4,.78-1.6,1.63-3.16,2.55-4.69s1.91-3.01,2.96-4.44c.25-.34,.55-.67,.77-1.03-.38,.62,0,0,.12-.16,.16-.2,.32-.4,.48-.6,.56-.7,1.14-1.38,1.74-2.05,2.51-2.83,5.28-5.41,8.25-7.75,.18-.14,.11-.23-.12,.09,.05-.07,.19-.14,.26-.2,.19-.15,.39-.29,.58-.44,.41-.31,.83-.61,1.25-.91,.78-.55,1.58-1.09,2.38-1.6,1.67-1.07,3.38-2.06,5.14-2.98,.91-.48,1.83-.93,2.76-1.36,1.19-.55,1.58-2.36,.9-3.42-.79-1.22-2.15-1.49-3.42-.9h0Z"/><path class="cls-4" d="M341.36,163.3c-.28,3.57-.53,7.15-.79,10.72-.4,5.67-.78,11.34-1.16,17.01-.43,6.49-.85,12.97-1.25,19.46-.37,5.94-.72,11.88-1.03,17.82-.22,4.12-.44,8.23-.53,12.35,0,.31-.01,.62-.02,.94-.01,1.31,1.16,2.56,2.5,2.5s2.48-1.1,2.5-2.5c.04-3.8,.25-7.61,.45-11.41,.3-5.79,.64-11.57,.99-17.36,.4-6.49,.81-12.99,1.24-19.48,.38-5.84,.78-11.67,1.19-17.51,.27-3.9,.55-7.81,.85-11.71,.02-.28,.04-.56,.07-.84,.1-1.31-1.22-2.56-2.5-2.5-1.44,.06-2.39,1.1-2.5,2.5h0Z"/><path class="cls-4" d="M399.96,239.58c-7.79,.81-15.65,.71-23.47,.47-8.21-.26-16.4-.74-24.61-.96-4.26-.11-8.53-.16-12.79,0-1.31,.05-2.56,1.11-2.5,2.5,.06,1.31,1.1,2.55,2.5,2.5,7.8-.3,15.62,.05,23.42,.39,8.2,.36,16.41,.78,24.62,.72,4.28-.03,8.57-.18,12.83-.62,1.3-.13,2.56-1.05,2.5-2.5-.06-1.24-1.11-2.64-2.5-2.5h0Z"/><path class="cls-4" d="M136.98,97.43c-1.79,1.81-3.69,3.52-5.66,5.14-.49,.4-.98,.8-1.47,1.19-.23,.18-.46,.35-.68,.53,.51-.43,.06-.05-.05,.03-.18,.14-.37,.28-.56,.42-1.03,.78-2.08,1.54-3.14,2.28-4.5,3.16-9.2,6.03-14,8.7-8.52,4.75-17.35,8.91-26.29,12.8-3.13,1.36-6.28,2.67-9.39,4.06l3.67,1.49c-.12-.41-.21-.83-.29-1.26-.04-.24-.08-.47-.12-.71-.02-.13-.04-.27-.06-.4-.05-.34,.08,.46,.06,.41-.03-.08-.03-.21-.04-.3-.17-1.37-.27-2.75-.36-4.13-.22-3.56-.3-7.12-.36-10.68-.13-7.82-.08-15.64-.35-23.46-.1-3.09-.19-6.23-.76-9.28-.24-1.29-1.86-2.14-3.08-1.75-1.38,.45-2.01,1.7-1.75,3.08,.04,.22,.08,.43,.11,.65,.04,.24,.08,.77-.03-.23,.02,.14,.04,.28,.05,.42,.07,.58,.12,1.16,.17,1.74,.12,1.46,.19,2.92,.25,4.38,.14,3.66,.19,7.32,.23,10.98,.09,7.73,.04,15.48,.46,23.21,.09,1.6,.19,3.2,.38,4.8,.15,1.28,.3,2.6,.66,3.85,.49,1.67,2.2,2.16,3.67,1.49,6.69-3.01,13.48-5.78,20.11-8.91,9.69-4.57,19.23-9.6,28.09-15.64,4.98-3.39,9.79-7.11,14.03-11.4,.92-.93,1-2.62,0-3.54s-2.55-.99-3.54,0h0Z"/><path class="cls-4" d="M153.48,31.18c-11.58-4.88-24.26-5.8-36.61-4.01s-23.96,6.2-34.93,11.76c-5.99,3.03-11.78,6.46-17.39,10.15-1.09,.72-1.66,2.24-.9,3.42,.7,1.09,2.25,1.67,3.42,.9,4.93-3.25,10.01-6.29,15.24-9.04,2.62-1.38,5.28-2.68,7.98-3.9,.71-.32,1.42-.64,2.14-.94,.13-.06,.26-.11,.39-.17,.07-.03,.73-.31,.19-.08,.39-.16,.78-.33,1.18-.49,1.38-.56,2.76-1.1,4.16-1.61,5.65-2.07,11.46-3.73,17.38-4.77,.72-.13,1.44-.24,2.17-.35,.34-.05,.69-.1,1.03-.15-.54,.07-.16,.02-.04,0,.28-.03,.55-.07,.83-.1,1.45-.17,2.9-.3,4.35-.39,2.97-.18,5.95-.18,8.92,.01,.83,.06,1.66,.13,2.48,.21,.41,.04,.83,.09,1.24,.14,.14,.02,.28,.03,.41,.05-.65-.1,.25,.04,.37,.06,1.66,.25,3.3,.56,4.93,.94,3.33,.78,6.59,1.84,9.74,3.17,1.21,.51,2.8-.55,3.08-1.75,.33-1.47-.45-2.53-1.75-3.08h0Z"/><path class="cls-4" d="M60.57,177.54c.54,3.1,1.04,6.21,1.5,9.32,.11,.72,.21,1.43,.31,2.15,.05,.37,.1,.75,.16,1.12,.02,.15,.04,.3,.06,.45,.08,.61-.04-.33,.03,.22,.19,1.45,.38,2.91,.55,4.36,.65,5.4,1.15,10.81,1.54,16.24,.76,10.59,1.06,21.2,1.39,31.81,.21,6.74,.44,13.47,.75,20.21,.06,1.3,1.11,2.56,2.5,2.5,1.3-.06,2.56-1.1,2.5-2.5-.53-11.52-.79-23.04-1.22-34.56-.4-10.68-1.04-21.35-2.25-31.98-.79-6.92-1.79-13.81-2.98-20.67-.22-1.29-1.88-2.13-3.08-1.75-1.39,.45-1.99,1.69-1.75,3.08h0Z"/><path class="cls-4" d="M12.88,31.07c3.68-1.61,7.35-3.25,11.04-4.82,.11-.05,.23-.1,.34-.15-.52,.22-.19,.08-.08,.03,.29-.12,.59-.25,.88-.37,.61-.25,1.21-.51,1.82-.76,1.28-.53,2.57-1.05,3.86-1.56,2.76-1.09,5.53-2.15,8.32-3.17,13.78-5.01,27.96-9,42.4-11.55,16.14-2.86,32.83-3.91,49.25-2.4,1.58,.15,3.17,.32,4.75,.52,.16,.02,.32,.04,.48,.06,.04,0,.83,.11,.3,.04,.32,.04,.65,.09,.97,.13,.85,.12,1.7,.25,2.55,.39,3.26,.52,6.5,1.16,9.72,1.91s6.41,1.64,9.56,2.65c1.57,.51,3.14,1.05,4.68,1.63,.75,.28,1.5,.57,2.24,.87,.35,.14,.7,.29,1.05,.43,.44,.18-.53-.23,.22,.09,.23,.1,.46,.2,.69,.3,2.97,1.3,5.87,2.75,8.67,4.39,1.41,.82,2.79,1.69,4.14,2.62s2.42,1.72,3.37,2.48c2.43,1.96,4.71,4.12,6.76,6.48,.49,.56,.96,1.14,1.43,1.72,.31,.38,.11,.13,.04,.05,.14,.19,.28,.37,.42,.56,.23,.32,.46,.63,.69,.95,.9,1.29,1.73,2.62,2.49,4,.34,.62,.67,1.26,.98,1.9,.17,.36,.34,.72,.5,1.08,.07,.15,.13,.29,.19,.44,.32,.72-.18-.44,.12,.29,.51,1.25,1.66,2.13,3.08,1.75,1.18-.32,2.26-1.82,1.75-3.08-5.12-12.44-15.34-21.53-27.13-27.59S149.91,3.75,136.45,1.97C120.11-.18,103.47,.45,87.19,2.78c-15.24,2.19-30.23,6.02-44.78,11.03-10.11,3.48-19.97,7.59-29.74,11.92-.77,.34-1.54,.68-2.31,1.02-1.24,.54-1.52,2.35-.9,3.42,.75,1.28,2.18,1.44,3.42,.9h0Z"/><path class="cls-4" d="M204.71,146.53c.25-.25,.52-.48,.79-.7,.34-.28-.15,.08-.24,.18,.07-.07,.17-.13,.25-.19,.18-.13,.37-.26,.55-.39,.88-.6,1.8-1.14,2.74-1.64,.54-.29,1.1-.57,1.65-.83,.29-.14,.58-.27,.87-.4,.16-.07,.32-.14,.48-.21,.07-.03,.14-.06,.22-.09,.38-.16-.1,.05-.21,.09,1.45-.54,2.86-1.12,4.34-1.58,1.59-.5,3.2-.93,4.82-1.28,.89-.19,1.78-.36,2.68-.51,.41-.07,.82-.13,1.23-.19,.43-.06-.15,.02-.2,.03,.13-.01,.26-.03,.39-.05,.26-.03,.53-.06,.79-.09,3.96-.43,7.94-.4,11.89,.08,.46,.05-.07-.02-.13-.02,.15,0,.3,.04,.44,.06,.24,.03,.47,.07,.71,.11,.57,.09,1.13,.2,1.7,.31,1.06,.21,2.12,.46,3.16,.75s2.14,.62,3.19,.99c.55,.19,1.1,.4,1.65,.61,.25,.1,.49,.2,.73,.29,.11,.04,.45,.16-.05-.02,.19,.07,.37,.16,.55,.24,2.22,.98,4.36,2.13,6.41,3.43,1.12,.71,2.21,1.46,3.27,2.25,.12,.09,.24,.18,.36,.27,.39,.29,.12,.09,.04,.02,.26,.2,.51,.4,.77,.61,.48,.39,.96,.78,1.43,1.18,1.77,1.5,3.47,3.1,5.06,4.79,.77,.82,1.52,1.66,2.24,2.52,.31,.38,.62,.76,.92,1.14,.07,.09,.15,.19,.22,.29-.34-.47-.09-.12,0,0,.16,.22,.33,.43,.49,.65,1.25,1.71,2.4,3.49,3.42,5.34,.49,.88,.94,1.78,1.37,2.69,.21,.44,.41,.88,.6,1.33,.05,.1,.09,.21,.14,.31-.26-.54-.11-.25-.05-.13,.11,.26,.21,.53,.32,.79,1.48,3.77,2.46,7.72,3.03,11.73,.03,.19,.14,.36-.02-.15,.03,.1,.03,.25,.04,.35,.03,.23,.06,.46,.08,.69,.06,.55,.12,1.1,.16,1.66,.09,1.03,.15,2.06,.18,3.1,.08,2.15,.05,4.31-.06,6.46-.06,1.09-.14,2.18-.24,3.27-.12,1.31,1.23,2.56,2.5,2.5,1.46-.07,2.37-1.1,2.5-2.5,.78-8.66,.3-17.57-2.44-25.87s-7.91-16.14-14.47-22.29c-7.39-6.94-16.34-12.17-26.36-14.13-8.12-1.59-16.55-1.21-24.54,.93-3.14,.84-6.22,1.97-9.16,3.37-2.12,1-4.14,2.18-5.97,3.65-.27,.22-.54,.45-.79,.7-.93,.92-.99,2.63,0,3.54s2.54,.98,3.54,0h0Z"/><path class="cls-4" d="M159.83,152.65c-7.21,11.91-10.26,26-9.13,39.84,.42,5.16,1.33,10.31,2.9,15.25s3.77,9.62,6.19,14.13c4.67,8.68,10.82,16.5,18.71,22.46,7.41,5.61,16.23,9.16,25.31,10.97,10.92,2.18,22.16,2.17,33.21,1.19,1.51-.13,3.02-.29,4.53-.46,1.3-.14,2.57-1.05,2.5-2.5-.06-1.23-1.11-2.66-2.5-2.5-5.87,.66-11.77,1.07-17.67,1.08-2.69,0-5.37-.07-8.05-.25-1.31-.09-2.61-.2-3.91-.34-.61-.07-1.22-.14-1.83-.22-.16-.02-.71-.11,.06,0-.15-.02-.3-.04-.45-.06-.3-.04-.6-.09-.9-.13-4.63-.7-9.22-1.8-13.62-3.4-.52-.19-1.03-.38-1.54-.58-.25-.1-.51-.2-.76-.31-.13-.05-.25-.11-.38-.16,.77,.3,.14,.06-.03-.01-.99-.43-1.97-.88-2.94-1.37-1.95-.98-3.85-2.07-5.67-3.27-.93-.61-1.84-1.26-2.73-1.92-.11-.08-.21-.16-.32-.24-.4-.3,.48,.38,.08,.06-.21-.17-.42-.33-.63-.5-.42-.34-.83-.68-1.24-1.03-1.7-1.45-3.31-3-4.82-4.63-.79-.86-1.56-1.73-2.31-2.63-.33-.4-.66-.81-.98-1.22-.09-.11-.17-.23-.26-.34,.48,.57,.14,.18,.04,.05-.2-.27-.41-.54-.61-.81-1.45-1.96-2.79-3.99-4.04-6.07-1.33-2.22-2.55-4.5-3.68-6.82-.61-1.25-1.18-2.5-1.74-3.77-.14-.31-.27-.62-.4-.94-.04-.1-.09-.21-.13-.31,.28,.64,.04,.09-.01-.04-.22-.54-.44-1.07-.65-1.61-1.63-4.25-2.69-8.74-3.33-13.24-.03-.18-.02-.7,0,.01,0-.16-.04-.33-.06-.49-.04-.33-.08-.66-.12-1-.08-.74-.15-1.47-.21-2.21-.11-1.41-.18-2.83-.21-4.25-.06-3.08,.09-6.17,.46-9.23,.02-.19,.05-.39,.07-.58,.08-.67-.08,.55,.02-.12,.06-.39,.11-.79,.18-1.18,.14-.86,.29-1.72,.47-2.57,.33-1.62,.72-3.22,1.17-4.81,.48-1.68,1.03-3.33,1.65-4.96,.14-.37,.29-.75,.44-1.12,.08-.2,.17-.41,.25-.61,.28-.68-.2,.46,.09-.22,.39-.89,.79-1.77,1.22-2.64,.81-1.66,1.7-3.27,2.66-4.85,.68-1.12,.28-2.8-.9-3.42s-2.7-.3-3.42,.9h0Z"/></g><g><path class="cls-1" d="M51.92,154.09c1.17,15.47,2.72,30.91,4.21,46.36s2.89,30.59,3.81,45.93c.52,8.72,.88,17.45,1.03,26.18,.02,1.54,1.59,2.95,3.16,2.41,3.34-1.14,6.59-2.5,9.84-3.86,2.78-1.16,5.59-2.27,8.52-3.01,1.27-.32,2.16-1.81,1.75-3.08s-1.72-2.09-3.08-1.75c-2.93,.74-5.74,1.84-8.52,3.01-3.25,1.36-6.5,2.72-9.84,3.86l3.16,2.41c-.25-15.5-1.21-30.99-2.49-46.44-1.27-15.32-2.85-30.61-4.3-45.91-.82-8.7-1.6-17.41-2.26-26.12-.1-1.3-1.08-2.56-2.5-2.5-1.27,.06-2.61,1.1-2.5,2.5h0Z"/><path class="cls-1" d="M3.89,58.52c5.94-1.38,11.54-4.04,17.12-6.44,.73-.31,1.46-.63,2.19-.94-.57,.24,.05-.02,.14-.06,.18-.08,.37-.15,.55-.23,.43-.18,.86-.36,1.29-.53,1.48-.6,2.97-1.18,4.47-1.73,2.99-1.08,6.05-2.02,9.18-2.62,.43-.08,.87-.16,1.31-.23,.19-.03,.37-.06,.56-.08,.58-.09-.45,.05,.08-.01,.86-.1,1.72-.18,2.59-.22s1.71-.04,2.57,0c.42,.02,.85,.05,1.27,.09,.18,.02,.36,.04,.54,.06,.12,.01,.24,.03,.36,.04-.36-.05-.41-.05-.12-.01l-1.84-2.41c-.09,12.4,.71,24.78,2.27,37.07s3.76,24.34,6.1,36.43c1.42,7.31,2.87,14.61,4.27,21.92,.25,1.29,1.86,2.14,3.08,1.75,1.37-.44,2.01-1.7,1.75-3.08-2.42-12.6-5.01-25.17-7.23-37.81-.52-2.97-1.02-5.94-1.49-8.91-.23-1.48-.46-2.95-.67-4.43-.1-.7-.2-1.41-.3-2.11-.05-.35-.1-.7-.15-1.05-.02-.14-.04-.28-.06-.42-.04-.29-.04-.28,0,.03-.02-.14-.04-.28-.06-.42-.78-5.89-1.41-11.81-1.84-17.74-.51-7.07-.74-14.15-.68-21.24,0-.99-.77-2.25-1.84-2.41-6.62-.99-13.22,.33-19.49,2.47-3.22,1.1-6.37,2.4-9.51,3.73-1.51,.64-3.02,1.3-4.53,1.95-.71,.31-1.42,.61-2.13,.91,.59-.25,0,0-.11,.04-.18,.07-.35,.15-.53,.22-.41,.17-.81,.34-1.22,.5-3.01,1.22-6.07,2.36-9.23,3.1-1.28,.3-2.15,1.83-1.75,3.08,.43,1.33,1.71,2.06,3.08,1.75h0Z"/><path class="cls-1" d="M168,40.09c.43,.14,.85,.28,1.27,.45,.57,.23-.34-.16,.02,0,.24,.11,.48,.22,.72,.33,.74,.36,1.45,.77,2.13,1.23,.18,.12,.35,.24,.52,.37,.07,.05,.14,.1,.21,.15,.4,.29-.48-.39-.1-.08,.33,.27,.65,.54,.97,.83,.6,.54,1.15,1.13,1.68,1.74,.14,.16,.27,.33,.41,.49,.25,.3-.14-.19-.15-.2,.06,.09,.13,.17,.19,.26,.27,.36,.53,.73,.77,1.11,.45,.69,.86,1.41,1.23,2.15,.19,.37,.37,.75,.54,1.14,.04,.1,.09,.2,.13,.3-.3-.64-.16-.38-.1-.23,.1,.25,.2,.5,.29,.75,.3,.81,.57,1.62,.8,2.45,.25,.89,.45,1.79,.62,2.7,.08,.41,.14,.83,.2,1.25,.08,.5-.06-.52-.02-.18,.01,.12,.03,.23,.04,.35,.03,.23,.05,.47,.08,.71,.18,1.86,.22,3.74,.12,5.61-.05,.97-.15,1.94-.26,2.91-.02,.17-.1,.45,.03-.23-.02,.09-.03,.19-.04,.29-.04,.24-.07,.48-.11,.72-.08,.48-.17,.96-.27,1.44-.38,1.87-.9,3.7-1.56,5.49-.18,.5-.4,.99-.59,1.49,.29-.77-.05,.1-.12,.27-.11,.24-.22,.48-.34,.72-.46,.95-.96,1.89-1.5,2.79s-1.12,1.77-1.75,2.6c-.06,.08-.12,.15-.17,.23,.43-.61,.14-.18,.04-.06-.16,.2-.33,.4-.49,.6-.35,.41-.71,.81-1.08,1.21-.9,.95-1.01,2.61,0,3.54s2.57,1.01,3.54,0c5.79-6.1,8.86-14.34,9.6-22.64,.68-7.62-.76-16.07-5.48-22.27-2.73-3.59-6.33-6.25-10.65-7.62-1.25-.4-2.78,.46-3.08,1.75-.31,1.36,.41,2.65,1.75,3.08h0Z"/><path class="cls-1" d="M474.38,128.54c2.08,.09,4.16,.24,6.24,.45,.51,.05,1.03,.11,1.54,.17,.23,.03,.46,.06,.69,.09,.18,.02,.57,.1-.13-.02,.15,.02,.3,.04,.45,.06,.97,.14,1.93,.29,2.89,.47,3.7,.68,7.32,1.7,10.81,3.11,.14,.06,.42,.19-.21-.09,.09,.04,.17,.07,.26,.11,.22,.09,.43,.19,.64,.28,.43,.19,.85,.39,1.27,.6,.85,.41,1.68,.85,2.5,1.32,1.63,.93,3.19,1.96,4.69,3.09,.08,.06,.16,.12,.23,.18,.41,.31-.37-.29-.1-.07,.17,.14,.35,.28,.52,.42,.39,.31,.77,.63,1.15,.96,.78,.67,1.53,1.36,2.26,2.07,1.51,1.47,2.94,3.04,4.28,4.67,.2,.24,.39,.48,.59,.73,.09,.11,.18,.22,.27,.34,.09,.12,.42,.56,.04,.04,.38,.52,.78,1.03,1.16,1.55,.79,1.09,1.56,2.2,2.29,3.33,1.61,2.47,3.09,5.01,4.48,7.61,.62,1.15,2.32,1.61,3.42,.9,1.17-.76,1.56-2.19,.9-3.42-4.46-8.33-9.97-16.45-17.41-22.41-6.24-5-13.52-8.25-21.33-9.87-4.73-.98-9.56-1.45-14.37-1.67-1.31-.06-2.56,1.19-2.5,2.5,.06,1.41,1.1,2.44,2.5,2.5h0Z"/><path class="cls-1" d="M403.85,159.97c-3.45,12.68-1.64,26.3,.78,38.99,1.83,9.56,6.55,18.49,13.04,25.7,6.1,6.78,13.84,12.03,22.15,15.72,8.65,3.83,17.84,6.12,27.24,7.06,8.85,.88,17.87,.47,26.57-1.37,.98-.21,1.95-.44,2.92-.68,1.27-.32,2.16-1.81,1.75-3.08s-1.72-2.09-3.08-1.75c-2,.51-4.02,.94-6.06,1.28-.48,.08-.97,.16-1.46,.23-.26,.04-.51,.07-.77,.11-.5,.07,.52-.07,.17-.02-.16,.02-.33,.04-.49,.06-1.04,.13-2.08,.24-3.12,.33-4.33,.38-8.69,.42-13.02,.16-1.09-.07-2.18-.15-3.27-.26-.55-.05-1.09-.11-1.64-.17-.25-.03-.5-.06-.74-.09-.15-.02-.3-.04-.45-.06-.71-.09,.38,.05-.08-.01-2.19-.31-4.36-.68-6.52-1.15-4.37-.94-8.68-2.21-12.84-3.84-.51-.2-1.02-.41-1.53-.62-.09-.04-.18-.08-.28-.12,.7,.26,.19,.08,.04,.02-.28-.12-.55-.24-.82-.36-1-.44-2-.91-2.98-1.4-2-1-3.96-2.09-5.85-3.27-.92-.58-1.83-1.18-2.72-1.8-.45-.31-.89-.63-1.32-.95-.2-.15-.4-.29-.59-.44-.12-.09-.24-.18-.35-.27-.38-.29,.44,.34,.04,.03-1.74-1.38-3.42-2.82-5-4.38s-3.01-3.13-4.37-4.83c-.15-.19-.3-.4-.46-.58,.53,.59-.12-.16-.24-.32-.33-.44-.65-.88-.96-1.33-.65-.92-1.26-1.87-1.85-2.83-1.18-1.94-2.23-3.95-3.14-6.03-.08-.17-.37-.99-.12-.26-.1-.29-.24-.58-.36-.87-.21-.54-.42-1.08-.61-1.62-.4-1.1-.76-2.22-1.09-3.34-.78-2.69-1.22-5.48-1.69-8.24-.25-1.5-.49-3.01-.7-4.52-.01-.09-.11-.8-.03-.17-.02-.14-.04-.28-.06-.42-.06-.42-.11-.85-.16-1.27-.09-.78-.18-1.57-.26-2.35-.33-3.25-.51-6.52-.49-9.79,.01-1.59,.07-3.18,.19-4.77,.06-.79,.14-1.57,.23-2.35,.02-.14,.03-.28,.05-.42,.09-.71-.08,.53,.02-.18,.06-.42,.12-.84,.19-1.26,.25-1.52,.58-3.03,.99-4.52,.34-1.26-.43-2.77-1.75-3.08s-2.71,.4-3.08,1.75h0Z"/><path class="cls-1" d="M319.42,183.55c-.27,9.62-.84,19.22-1.36,28.83-.59,11.05-1.21,22.1-1.61,33.16-.18,4.88-.33,9.77-.31,14.66,0,1.23,1.15,2.66,2.5,2.5,11.88-1.39,23.86-1.43,35.8-1.17s23.96,.82,35.94,.62c6.69-.11,13.38-.48,20.03-1.25,1.29-.15,2.57-1.04,2.5-2.5-.05-1.22-1.11-2.66-2.5-2.5-11.88,1.39-23.86,1.43-35.8,1.17s-23.96-.82-35.94-.62c-6.69,.11-13.38,.48-20.03,1.25l2.5,2.5c-.05-9.62,.46-19.25,.93-28.85,.54-11.05,1.18-22.1,1.74-33.16,.24-4.88,.48-9.76,.61-14.64,.04-1.31-1.18-2.56-2.5-2.5s-2.46,1.1-2.5,2.5h0Z"/><path class="cls-1" d="M344.66,71.84c-4.96,.59-9.95,.48-14.92,.88-3.79,.3-8.46,.85-10.67,4.4-1.08,1.73-1.08,3.87-1.16,5.84-.09,2.19-.07,4.38-.01,6.57,.14,4.85,.48,9.69,.71,14.54s.47,10.13-.11,15.15c-.15,1.3,1.26,2.56,2.5,2.5,1.48-.07,2.34-1.1,2.5-2.5,.49-4.24,.38-8.54,.21-12.79-.19-4.75-.52-9.48-.72-14.23-.09-2.22-.16-4.45-.14-6.68,0-1.02,.03-2.04,.08-3.06,.02-.48,.05-.96,.09-1.44,.02-.21,.04-.41,.05-.62,.03-.39-.03,.28-.04,.3,.04-.04,.06-.29,.07-.35,.03-.15,.08-.29,.12-.44,.17-.58-.29,.51,0,0,.07-.12,.14-.24,.22-.37,.29-.5-.41,.41,0,0,.1-.1,.2-.21,.3-.3,.07-.06,.14-.11,.2-.18,.21-.2-.49,.34-.24,.19,.32-.19,.62-.38,.94-.55,.54-.28-.42,.15-.04,0,.18-.07,.36-.14,.54-.2,.41-.14,.83-.25,1.25-.34s.82-.17,1.24-.24c.13-.02,.26-.04,.38-.06,.21-.03,.34,.05-.19,.02,.26,.01,.55-.07,.81-.09,5.32-.56,10.69-.35,16.01-.98,1.29-.15,2.57-1.04,2.5-2.5-.05-1.22-1.11-2.66-2.5-2.5h0Z"/><path class="cls-1" d="M208.97,123.38c2.88-.95,5.83-1.66,8.82-2.15,.35-.06,.69-.11,1.04-.16,.21-.03,.42-.06,.63-.09,.68-.1-.35,.04,.07,0,.8-.1,1.6-.19,2.41-.27,1.46-.14,2.92-.23,4.39-.28,2.94-.11,5.89-.05,8.83,.15,1.42,.1,2.84,.23,4.26,.39,.36,.04,.71,.08,1.07,.13,.13,.02,.26,.03,.38,.05,.66,.08-.55-.08,.1,.01,.69,.1,1.38,.2,2.07,.31,4.74,.77,9.45,1.87,13.99,3.44,.89,.31,1.78,.63,2.65,.98,.19,.08,.38,.16,.58,.24,.44,.18-.58-.26-.15-.06,.07,.03,.15,.06,.22,.09,.4,.17,.79,.35,1.18,.54,1.84,.88,3.64,1.84,5.41,2.86,1.87,1.07,3.7,2.22,5.48,3.44,.9,.62,1.79,1.26,2.67,1.91,.2,.15,.39,.31,.59,.45-.64-.44,.05,.04,.2,.16,.43,.34,.85,.68,1.27,1.02,3.26,2.69,6.28,5.68,8.95,8.95,.31,.38,.62,.77,.92,1.15,.33,.42-.35-.47-.03-.04,.06,.08,.12,.16,.18,.24,.18,.24,.35,.47,.53,.71,.64,.88,1.26,1.77,1.85,2.68,1.17,1.8,2.24,3.66,3.21,5.58,.48,.95,.93,1.91,1.36,2.89,.08,.17,.37,.98,.11,.25,.08,.24,.2,.47,.29,.71,.22,.55,.44,1.1,.64,1.66,.78,2.1,1.43,4.25,1.98,6.42,.57,2.3,.96,4.63,1.34,6.97-.13-.79,.03,.24,.05,.43,.04,.31,.07,.62,.11,.94,.07,.63,.13,1.26,.18,1.89,.1,1.23,.17,2.47,.21,3.71,.08,2.65,.03,5.31-.14,7.96-.09,1.39-.21,2.78-.37,4.17-.08,.69-.15,1.39-.25,2.08,.08-.56,.02-.18,0-.06-.03,.2-.06,.4-.09,.6-.06,.4-.12,.81-.18,1.21-.23,1.45-.49,2.89-.77,4.33-.25,1.28,.36,2.76,1.75,3.08,1.24,.28,2.8-.37,3.08-1.75,2.17-11,2.79-22.32,.68-33.37-1.72-8.98-5.37-17.63-10.8-25s-12.04-13.2-19.62-17.96c-3.59-2.25-7.34-4.3-11.27-5.88-4.19-1.68-8.59-2.87-13.01-3.76-11.78-2.38-24.24-2.83-35.98,.02-1.47,.36-2.93,.77-4.37,1.25-1.24,.41-2.18,1.75-1.75,3.08,.4,1.24,1.74,2.18,3.08,1.75h0Z"/><path class="cls-1" d="M205.31,162.12c-4.84,2.96-8.32,7.45-10.39,12.69-1.96,4.96-2.49,10.55-1.87,15.83,.66,5.7,2.46,11.26,5.54,16.13s7.35,9.05,12.53,11.62c6,2.98,12.63,3.7,19.21,2.77,.86-.12,1.72-.27,2.57-.45,1.28-.27,2.14-1.85,1.75-3.08-.44-1.36-1.7-2.03-3.08-1.75-.85,.18-1.71,.31-2.57,.45-.32,.05,.56-.07,.23-.03-.1,.01-.19,.02-.29,.04-.19,.02-.38,.04-.57,.06-.42,.04-.84,.08-1.27,.11-1.55,.1-3.1,.1-4.64-.02-.34-.03-.69-.06-1.03-.1-.08,0-.17-.02-.25-.03-.4-.05,.28,.04,.29,.04-.21-.03-.42-.06-.63-.09-.7-.11-1.39-.25-2.08-.41-1.35-.32-2.67-.76-3.96-1.27-.49-.2,.6,.27,0,0-.14-.06-.29-.13-.43-.19-.32-.15-.64-.3-.95-.46-.59-.3-1.16-.62-1.73-.96s-1.11-.69-1.64-1.07c-.25-.18-.5-.36-.74-.54-.51-.38,.41,.33,0,0-.13-.11-.27-.21-.4-.32-1.01-.83-1.97-1.73-2.86-2.69-.45-.49-.89-.99-1.31-1.5-.1-.12-.19-.24-.28-.36-.36-.45,.23,.32,.04,.06-.2-.27-.41-.55-.61-.83-.75-1.05-1.43-2.15-2.06-3.28-.32-.58-.62-1.18-.91-1.78-.14-.29-.27-.59-.4-.88-.06-.14-.11-.29-.18-.42,0,0,.26,.63,.12,.28-.04-.09-.07-.18-.11-.26-.98-2.41-1.69-4.92-2.14-7.49-.05-.32-.1-.63-.15-.95-.01-.07-.02-.15-.03-.22-.04-.3,.08,.63,.04,.33-.02-.19-.05-.37-.07-.56-.07-.63-.13-1.27-.16-1.9-.08-1.28-.08-2.56-.01-3.84,.03-.62,.09-1.25,.15-1.87,.02-.15,.04-.29,.05-.44,.04-.38-.05,.35-.05,.34,.01-.09,.03-.18,.04-.27,.04-.31,.09-.61,.15-.92,.22-1.22,.51-2.43,.88-3.62,.19-.59,.39-1.18,.62-1.76,.05-.13,.11-.26,.16-.39,.21-.53-.2,.45-.05,.11,.13-.29,.26-.58,.4-.87,.52-1.08,1.11-2.12,1.78-3.11,.17-.25,.34-.49,.52-.73,.12-.16,.52-.65-.04,.04,.1-.12,.2-.25,.29-.37,.39-.48,.8-.94,1.22-1.38s.85-.85,1.31-1.25c.21-.19,.43-.37,.65-.55,.11-.09,.23-.18,.34-.27-.68,.56-.16,.13,.01,0,.5-.37,1.02-.71,1.55-1.03,1.12-.68,1.64-2.27,.9-3.42s-2.23-1.63-3.42-.9h0Z"/></g><g><path class="cls-3" d="M84.18,49.87c1.75,17.6,2.4,35.28,3.38,52.94,.28,4.98,.58,9.97,.94,14.94,.23,3.18,5.15,3.24,5,0l-.03-.6c-.15-3.2-5.15-3.22-5,0l.03,.6h5c-1.28-17.64-1.83-35.31-3.06-52.95-.35-4.98-.76-9.96-1.25-14.93-.13-1.34-1.05-2.5-2.5-2.5-1.25,0-2.63,1.15-2.5,2.5h0Z"/><path class="cls-3" d="M106.23,43.59c.96-.2,1.93-.38,2.9-.53,.23-.04,.46-.07,.69-.1,.11-.02,.79-.11,.62-.09,.19-.03,1.19-.15,1.69-.2,2.59-.28,5.19-.44,7.79-.5,5.62-.13,11.17,.17,16.55,1.44,2.5,.59,4.83,1.34,6.89,2.41,.5,.26,.98,.53,1.46,.83,.25,.16,.49,.32,.74,.49,.1,.07,.2,.14,.31,.22,.64,.45-.17-.15,.18,.13,.41,.33,.8,.68,1.17,1.05,.2,.2,.39,.4,.57,.6,.08,.09,.16,.18,.23,.27,.29,.33-.04-.07,.12,.14,.75,1,1.43,2.07,2.05,3.15,.31,.54,.61,1.09,.88,1.65,.12,.23,.23,.47,.34,.7,.07,.14,.38,.87,.25,.56,.43,1.04,.79,2.11,1.07,3.19,.12,.48,.23,.97,.32,1.46,.05,.26,.09,.52,.13,.78-.08-.48,.02,.17,.04,.33,.1,1.01,.13,2.03,.09,3.04-.02,.46-.06,.92-.11,1.38s.06-.31-.04,.28c-.05,.28-.09,.56-.15,.84-.19,.94-.43,1.87-.74,2.78-.16,.48-.34,.95-.52,1.41s.11-.24-.08,.2c-.12,.27-.24,.53-.36,.79-.91,1.9-2.03,3.68-3.28,5.37-.07,.1-.41,.55-.17,.24-.17,.22-.34,.43-.51,.64-.35,.43-.71,.86-1.07,1.27-.74,.85-1.52,1.68-2.31,2.49-6.7,6.78-14.6,11.82-22.92,16.72-6.84,4.03-14.04,7.57-20.65,11.98-.56,.38-1.12,.76-1.66,1.17-1.08,.81-1.63,2.16-.9,3.42,.62,1.07,2.33,1.71,3.42,.9,2.68-2,5.61-3.65,8.51-5.3,3.9-2.22,7.83-4.38,11.71-6.63,8.73-5.06,17.46-10.51,24.79-17.51,6.46-6.17,12.14-14.23,12.07-23.53-.04-4.92-1.7-9.69-4.25-13.87-1.44-2.37-3.08-4.45-5.3-6.13-2.1-1.59-4.51-2.7-6.98-3.58-5.55-1.97-11.59-2.62-17.45-2.77-5.49-.15-11.01,.2-16.44,1.05-1.01,.16-2.01,.34-3.01,.55-3.15,.67-1.81,5.49,1.33,4.82h0Z"/><path class="cls-3" d="M483.18,132.52c-15.6-1.91-29.88,9.35-38.64,21.12-9.43,12.68-15.22,30.17-10.18,45.74,2.7,8.32,8.34,15.14,15.55,19.99,3.89,2.62,8.22,4.78,12.74,6.07s9.24,1.86,13.92,2.01c9.9,.32,20.14-1.26,29.31-5.07,8.86-3.67,16.8-9.52,20.45-18.66,8.68-21.78-4.31-46.42-23.11-58.23-1.72-1.08-3.5-1.98-5.37-2.77-1.25-.52-2.75,.56-3.08,1.75-.4,1.44,.5,2.55,1.75,3.08-.54-.23,.13,.06,.2,.09,.2,.1,.41,.19,.61,.29,.42,.2,.83,.42,1.24,.64,.88,.47,1.73,.99,2.57,1.53,1.82,1.17,3.25,2.26,4.83,3.61,3.74,3.2,7.1,6.87,9.89,10.92,6.05,8.78,9.72,19.6,7.79,30.31-.49,2.75-1.27,5.52-2.4,8.08-.38,.85-.82,1.68-1.31,2.48-.55,.91-1.23,1.86-1.69,2.42-2.75,3.33-5.82,5.6-9.6,7.66-7.96,4.34-17.41,6.41-26.44,6.83s-17.1-.51-24.62-4.33c-4.02-2.04-7.45-4.36-10.57-7.44-1.35-1.34-2.65-2.86-3.53-4.09-1.11-1.56-2.09-3.22-2.92-4.95-.48-1.01-.52-1.1-.85-1.99s-.62-1.75-.88-2.65-.47-1.79-.66-2.7c-.08-.38-.15-.76-.21-1.14-.04-.23-.07-.46-.11-.69-.04-.3-.04-.31,0-.02-.02-.15-.04-.31-.06-.46-.2-1.78-.29-3.56-.26-5.35,.02-.94,.07-1.88,.14-2.82,.03-.39,.07-.79,.11-1.18,.03-.24,.05-.47,.08-.71,.04-.3,.04-.31,0-.04,.02-.16,.05-.31,.07-.47,1.24-7.76,3.89-14.37,7.98-20.92,2.14-3.42,4.05-5.94,6.74-8.85,1.25-1.35,2.56-2.65,3.93-3.88,.7-.63,1.42-1.25,2.15-1.84,.11-.09,.91-.72,.59-.48,.43-.33,.86-.65,1.3-.97,1.42-1.02,2.88-1.96,4.4-2.82,.77-.43,1.56-.85,2.36-1.23,.33-.16,.66-.31,.99-.46,.2-.09,.4-.18,.6-.26-.53,.23,.31-.12,.4-.16,1.51-.6,3.07-1.09,4.65-1.47,.81-.19,1.63-.34,2.45-.47,.66-.11-.36,.04,.05,0,.17-.02,.34-.04,.51-.06,.48-.05,.95-.09,1.43-.12,1.56-.09,3.12-.03,4.67,.16,1.34,.16,2.5-1.27,2.5-2.5,0-1.49-1.15-2.34-2.5-2.5h0Z"/><path class="cls-3" d="M343.42,80.14c.05,6.41,.03,12.83-.29,19.24-.1,1.95-.23,3.9-.41,5.84-.07,.77-.15,1.53-.24,2.29-.04,.34-.09,.69-.13,1.03-.06,.51,.03-.22,0-.06-.02,.17-.05,.34-.07,.51-.79,5.6-1.57,11.07-1.66,16.74-.1,7.02,.2,14.05,.54,21.06,.15,3.2,5.15,3.22,5,0-.47-9.75-1.13-19.71-.08-29.45,.03-.31,.07-.61,.11-.92s.16-1.14,.04-.35c.08-.56,.16-1.12,.24-1.67,.17-1.13,.36-2.26,.52-3.38,.48-3.28,.82-6.57,1.03-9.88,.43-6.99,.44-14,.39-21-.02-3.22-5.02-3.22-5,0h0Z"/><path class="cls-3" d="M186.84,150.57c-6.82,7.47-12.15,16.43-14.15,26.44-1.69,8.51-1.03,17.38,1.87,25.56,5.33,15.06,17.52,28.15,32.75,33.41,8.77,3.03,18.59,2.67,27.6,1.03,9.51-1.73,18.95-5.44,26.72-11.25,6.37-4.77,12.32-11.29,13.9-19.34,.86-4.38,.7-9.1,.4-13.53s-.9-8.54-2.03-12.67c-1.94-7.11-5.47-13.95-10.94-18.99s-12.33-7.86-19.63-8.81c-1.9-.25-3.81-.37-5.73-.38-3.22-.02-3.22,4.98,0,5,6.68,.04,13.09,1.51,18.65,5.23,5,3.34,8.96,8.73,11.21,14.45,2.92,7.39,3.77,15.39,3.59,23.28-.08,3.59-.41,6.71-1.93,9.84s-3.73,5.96-6.33,8.44c-6.25,6-14.34,10-22.61,12.37-4.66,1.34-9.45,2.18-14.3,2.45-2.57,.14-5.15,.14-7.72-.02-1.99-.12-3.11-.24-5.02-.64-13.83-2.93-25.55-13.71-31.76-26.36-3.34-6.82-4.99-14.41-4.6-22.01,.45-8.74,3.81-17.01,8.82-24.11,1.45-2.05,3.05-3.98,4.74-5.83,2.17-2.37-1.36-5.92-3.54-3.54h0Z"/></g></g></svg>