<?xml version="1.0" encoding="UTF-8"?><svg id="Layer_2" xmlns="http://www.w3.org/2000/svg" viewBox="0 0 185.35 432.25"><defs><style>.cls-1{fill:#0080b7;}.cls-2{fill:#f6851f;}.cls-3{fill:#fded1f;}.cls-4{fill:#9a4092;}.cls-5{fill:#7fc242;}</style></defs><g id="Layer_1-2"><path class="cls-3" d="M34.72,208.36c-8.29-4.05-18.15-3.66-25.53,2.18-2.66,2.1-4.26,5.1-5.03,8.36-.92,3.91-1.25,8.05-1.51,12.05-1.36,21.19,1.42,42.35,.79,63.54-.31,10.41-1.51,20.76-2.4,31.13s-1.24,21.03-.94,31.6,1,21.14,1.71,31.69c.36,5.32,.72,10.65,1.04,15.97,.29,4.82,.63,9.66,.58,14.49-.03,2.49-.17,5.3,1.15,7.52,1.45,2.45,4.28,3.5,6.89,4.2,7.52,2.03,16.38,1.33,23.48-1.83,1.74-.77,3.29-1.78,4.76-2.98,1.05-.85,.89-2.65,0-3.54-1.04-1.04-2.49-.86-3.54,0-2.62,2.13-6.05,3.2-9.31,3.82-3.54,.68-7.26,.77-10.84,.34-1.47-.17-2.96-.52-4.38-.98-.34-.11-.67-.22-1-.35-.4-.15,.1,.08-.36-.16-.21-.11-.43-.22-.64-.35-.11-.07-.21-.14-.32-.21-.48-.31,.23,.22,.01,0-.14-.14-.28-.28-.41-.42,.46,.48,.05,0-.07-.15-.06-.08-.1-.2-.15-.29,.03,.06,.19,.55,.07,.14-.07-.22-.14-.44-.19-.67-.04-.17-.13-.9-.06-.27-.03-.24-.05-.48-.06-.72-.04-.63-.04-1.26-.04-1.89,0-9.27-.72-18.52-1.34-27.77-.68-10.08-1.39-20.17-1.79-30.27s-.48-19.96,.21-29.94,1.83-19.68,2.5-29.55c1.37-20.06-.83-40.07-.74-60.13,.02-4.99,.2-9.98,.61-14.96,.26-3.2,.57-6.49,1.62-9.55,.33-.97,1.03-2.25,1.78-3.06,1.13-1.22,2.48-1.96,3.94-2.72,3.58-1.85,7.44-2.56,11.45-1.81,1.92,.36,3.78,.95,5.53,1.81,1.21,.59,2.7,.33,3.42-.9,.64-1.1,.32-2.82-.9-3.42h0Z"/><path class="cls-3" d="M34.96,222.52c-.35,13.99,1.15,27.92,1.98,41.87s.52,28.65,.52,42.97,0,28.78,0,43.16,.77,28.7,.62,43.06c-.03,3.21-.1,6.4-.02,9.61,.06,2.48,.22,4.9-.95,7.09-.09,.17-.18,.34-.28,.5-.09,.15-.19,.3-.29,.44,.14-.18,.12-.16-.06,.06-.12,.14-.26,.26-.39,.39-.14,.12-.1,.1,.1-.06-.11,.08-.22,.15-.34,.22-.17,.1-.35,.19-.53,.28,.39-.19,.07-.03-.15,.05-.41,.13-.82,.25-1.23,.35-2.56,.66-4.98,1.46-7.26,2.84-2.75,1.66-.24,5.98,2.52,4.32,1.9-1.14,3.82-1.76,5.96-2.3,1.82-.46,3.54-1.14,4.84-2.55,3.52-3.82,3.11-9.22,2.96-14.02-.1-3.22,.1-6.47,.11-9.69,.01-3.63-.03-7.26-.1-10.89-.14-7.26-.38-14.51-.48-21.77-.22-14.72-.05-29.44-.05-44.16v-21.81c0-7.25,.09-14.51-.2-21.76-.66-16.07-2.7-32.09-2.3-48.2,.08-3.22-4.92-3.22-5,0h0Z"/><path class="cls-3" d="M37.29,390.61c-3.89,.98-7.61,2.52-11.5,3.5-1.27,.32-2.16,1.81-1.75,3.08s1.72,2.09,3.08,1.75c3.89-.98,7.61-2.52,11.5-3.5,1.27-.32,2.16-1.81,1.75-3.08s-1.72-2.09-3.08-1.75h0Z"/><path class="cls-3" d="M35.69,376.75c.12-.09,.49-.33,.15-.13-.09,.05-.18,.12-.28,.17-.18,.1-.36,.19-.54,.28-.22,.11-.37,.03,.14-.06-.09,.01-.19,.07-.27,.1-.21,.08-.42,.15-.64,.21-.98,.3-1.99,.5-3,.68-1.99,.34-4.01,.55-5.96,1.1-1.26,.35-2.16,1.79-1.75,3.08s1.73,2.12,3.08,1.75c4.23-1.18,8.98-.82,12.6-3.64,.47-.36,.73-1.21,.73-1.77,0-.61-.27-1.35-.73-1.77-1.1-1.01-2.43-.86-3.54,0h0Z"/><path class="cls-3" d="M36.12,360.61c-.82-.25-1.74-.18-2.58-.11-1.1,.1-2.2,.25-3.3,.37-1.19,.13-2.38,.23-3.57,.22-.28,0-.56-.01-.84-.03-.13,0-.27-.02-.4-.03-.55-.04,.41,.08,.16,.02-.23-.05-.47-.09-.71-.15-.11-.03-.21-.07-.32-.1-.51-.15,.54,.25,.16,.07-1.18-.57-2.76-.36-3.42,.9-.59,1.12-.36,2.82,.9,3.42,2.36,1.13,5.06,.99,7.6,.74,1.13-.11,2.26-.26,3.4-.38,.43-.04,.86-.08,1.29-.1,.17,0,.33,0,.5,0,.48,0-.78-.19-.18-.01,1.25,.38,2.78-.45,3.08-1.75s-.41-2.67-1.75-3.08h0Z"/><path class="cls-3" d="M36.96,345.52c-1.94,0-3.87,.3-5.79,.56-.22,.03-.45,.06-.67,.09,.67-.08-.07,0-.2,.03-.46,.06-.92,.11-1.38,.16-.99,.1-1.97,.16-2.96,.16-1.31,0-2.56,1.15-2.5,2.5s1.1,2.51,2.5,2.5c2.07,0,4.11-.28,6.16-.56,.22-.03,.44-.06,.67-.09,.13-.02,.25-.03,.38-.05-.32,.04-.38,.05-.19,.03,.44-.06,.87-.11,1.31-.16,.89-.1,1.78-.16,2.68-.16,1.31,0,2.56-1.15,2.5-2.5s-1.1-2.51-2.5-2.5h0Z"/><path class="cls-3" d="M36.79,332.11c-.97,.36-1.96,.64-2.98,.81-.13,.02-.27,.04-.41,.06,.33-.04,.34-.05,.05-.01-.2,.01-.41,.04-.61,.05-.51,.03-1.03,.03-1.54,0-.24-.01-.48-.04-.72-.06-.29-.03-.27-.03,.05,.01-.14-.02-.27-.04-.41-.07-.48-.09-.96-.21-1.43-.35-.27-.08-.54-.18-.81-.28-.5-.17,.33,.17-.2-.08s-1.06-.53-1.57-.85c-1.12-.68-2.8-.28-3.42,.9s-.29,2.69,.9,3.42c4.35,2.67,9.68,3,14.43,1.25,1.22-.45,2.19-1.72,1.75-3.08-.39-1.2-1.76-2.23-3.08-1.75h0Z"/><path class="cls-3" d="M35.12,316.11c-3.99-1.09-8.12-.11-12.16-.59-1.3-.15-2.56,1.26-2.5,2.5,.07,1.49,1.1,2.33,2.5,2.5,1.94,.23,3.88,.13,5.83,.07,.92-.03,1.84-.05,2.75,0,.24,.01,.48,.03,.72,.05,.14,.01,.76,.04,.15,0,.46,.02,.95,.18,1.39,.3,1.26,.35,2.78-.43,3.08-1.75s-.4-2.7-1.75-3.08h0Z"/><path class="cls-3" d="M37.62,290.11c-5.21-1.5-10.39-.12-15.66-.09-1.31,0-2.56,1.14-2.5,2.5s1.1,2.51,2.5,2.5c2.47-.01,4.9-.36,7.36-.55s4.74-.18,6.98,.46c1.26,.36,2.78-.44,3.08-1.75s-.4-2.69-1.75-3.08h0Z"/><path class="cls-3" d="M35.29,269.11c-.3,.1-.6,.18-.91,.25-.15,.03-.3,.06-.46,.09,.24-.03,.27-.03,.09-.01-.59,.04-1.16,.07-1.75,.04-.24-.01-.47-.04-.71-.05-.3-.04-.31-.04-.04,0-.16-.02-.32-.05-.47-.08-.56-.1-1.11-.22-1.66-.35-2.27-.56-4.48-1.36-6.76-1.88-1.27-.29-2.77,.39-3.08,1.75-.29,1.27,.38,2.77,1.75,3.08,5.02,1.14,10.11,3.66,15.33,2,1.24-.4,2.17-1.76,1.75-3.08-.4-1.25-1.74-2.17-3.08-1.75h0Z"/><path class="cls-3" d="M33.19,246.36c-.13,.1-.27,.18-.41,.26-.08,.04-.17,.07-.24,.12-.2,.13,.64-.24,.23-.1s-.81,.26-1.23,.36c-.45,.1-.91,.17-1.36,.25-.31,.05,.59-.07,.13-.02-.13,.01-.26,.03-.39,.04-.27,.03-.54,.05-.8,.07-2.05,.17-4.1,.17-6.15,.17-1.31,0-2.56,1.15-2.5,2.5s1.1,2.5,2.5,2.5c2.16,0,4.32,0,6.47-.2,2.04-.18,4.56-.39,6.29-1.64,1.06-.76,1.68-2.21,.9-3.42-.68-1.05-2.29-1.72-3.42-.9h0Z"/><path class="cls-3" d="M35.46,228.02c-4.34,0-8.66-.49-13-.5-1.31,0-2.56,1.15-2.5,2.5s1.1,2.5,2.5,2.5c4.34,0,8.66,.49,13,.5,1.31,0,2.56-1.15,2.5-2.5s-1.1-2.5-2.5-2.5h0Z"/><path class="cls-3" d="M37.96,214.52c-.05-3.09-.99-6.39-.09-9.34l-2.41,1.84c1.94-.15,3.89-.23,5.84-.16,.75,.03,1.5,.07,2.25,.15,.59,.06,1.01,.12,1.86,.3,.68,.14,1.36,.32,2.02,.54,.28,.09,.55,.19,.83,.3,.09,.04,.44,.19,0,0,.19,.09,.38,.17,.57,.27,.48,.24,.95,.51,1.4,.81,.11,.07,.22,.15,.33,.23,.53,.36-.26-.23,.04,.03,.23,.19,.45,.38,.66,.58,1.61,1.52,2.58,3.41,3.26,5.57,.97,3.05,1.35,5.94,1.63,8.96,.98,10.78,1.09,21.7,1.24,32.53,.15,11.68,.06,23.36-.11,35.03s-.5,23-.37,34.5,.54,23.03,.93,34.55c.2,5.79,.39,11.58,.53,17.37,.07,2.84,.09,5.68,.32,8.51,.45,5.55,1.07,11.09,1.25,16.66,.1,3.01,.09,6.03-.16,9.03-.06,.69-.13,1.38-.22,2.07,.06-.47-.05,.36-.08,.51-.06,.38-.13,.76-.2,1.14-.24,1.25-.55,2.49-.97,3.69-.1,.29-.21,.57-.32,.86,.21-.51-.08,.15-.15,.31-.25,.51-.52,1.01-.83,1.48-.13,.2-.27,.4-.42,.59,.41-.55-.14,.14-.23,.24-.18,.19-.36,.38-.55,.55-.08,.08-.17,.15-.26,.23-.34,.31,.29-.19,.03-.03-.41,.27-.82,.51-1.26,.73,.6-.29-.04,0-.22,.07-.29,.09-.58,.16-.87,.23-.67,.17,.15,.02-.27,.05-.3,.02-.59,.03-.89,.05-1.12,.07-2.13,.12-3.22-.19-1.66-.48-2.93-1.56-3.73-3.07-1.5-2.85-5.82-.32-4.32,2.52,3.47,6.57,13.64,7.87,18.85,2.65,4.01-4.02,4.86-10.41,5.2-15.8,.39-6.21-.09-12.45-.64-18.64-.22-2.5-.48-5.01-.65-7.52-.26-3.95-.22-7.93-.33-11.89-.35-12.13-.85-24.25-1.14-36.38-.29-12.05-.17-24.08,.04-36.13,.43-24.19,.69-48.41-.69-72.57-.37-6.41-.76-13.88-4.48-19.39s-9.55-7.04-15.65-7.26c-1.95-.07-3.9,.01-5.84,.16-1.14,.09-2.07,.72-2.41,1.84-1.08,3.53-.15,7.09-.09,10.66,.06,3.21,5.06,3.22,5,0h0Z"/><path class="cls-3" d="M40.87,422.69c.4-1.22,.55-2.55,.75-3.81,.22-1.4,.41-2.81,.75-4.19,.31-1.27-.41-2.77-1.75-3.08s-2.74,.39-3.08,1.75-.53,2.79-.75,4.19c-.2,1.27-.35,2.59-.75,3.81s.47,2.78,1.75,3.08c1.37,.31,2.64-.41,3.08-1.75h0Z"/><path class="cls-3" d="M59.96,211.02c2.55,.09,5.11,.08,7.66,.18,.47,.02,.94,.04,1.41,.08,.24,.02,.47,.04,.71,.06s.87,.11,.29,.02c.79,.12,1.53,.32,2.3,.55,.43,.13-.42-.23-.03-.02,.15,.08,.31,.15,.46,.24s.29,.19,.43,.27c.32,.19-.34-.37,.01,.02,.12,.13,.25,.24,.37,.36,.07,.07,.45,.54,.2,.22s.08,.12,.13,.2c.12,.19,.23,.38,.34,.58,.1,.18,.19,.37,.27,.56-.21-.46-.01-.02,.06,.21,.16,.47,.31,.95,.43,1.43,.27,1.09,.49,2.4,.59,3.26,.97,8.4,.68,16.99,.33,25.42-.38,9.15-1.06,18.29-1.34,27.44s-.02,18.03,.22,27.04,.33,18.4,.14,27.61c-.38,18.28-.14,36.56,.24,54.84,.09,4.45,.09,8.93,.3,13.38,.14,2.91,.43,5.81,.51,8.72,.14,5.04-.13,10.52-4.23,13.64-.9,.68-2.26,1.35-3.47,1.77-1.28,.44-2.12,1.71-1.75,3.08,.34,1.24,1.79,2.19,3.08,1.75,3.2-1.1,5.99-2.84,8.03-5.58,1.69-2.26,2.59-5.03,2.99-7.8,.92-6.42-.12-12.98-.26-19.43-.42-18.97-.79-37.94-.56-56.91,.12-9.57,.35-19.11,.14-28.68s-.59-18.66-.49-27.99c.2-18.69,2.91-37.51,1.33-56.19-.38-4.52-.86-10.16-4.85-13.08-3.24-2.37-7.88-2.08-11.69-2.15-1.43-.03-2.87-.05-4.3-.1-3.22-.11-3.21,4.89,0,5h0Z"/><path class="cls-3" d="M152.69,176.36c-2.82,1.79-5.98,3.1-8.61,5.18s-3.76,4.97-4.06,8.22c-.33,3.6,.28,7.45,2.23,10.54,1.56,2.49,3.79,4.32,6.07,6.12,1.19,.94,2.37,1.89,3.42,2.98,1.11,1.15,1.85,2.23,2.55,3.89,.53,1.24,2.36,1.52,3.42,.9,1.29-.75,1.43-2.17,.9-3.42-1.1-2.58-2.97-4.73-5.09-6.53-1.94-1.64-4.06-3.08-5.79-4.96s-2.65-4.19-2.76-7.02c-.06-1.59,0-2.95,.47-4.4,.05-.16,.11-.32,.17-.48-.02,.05-.13,.29,0,.04,.14-.28,.3-.54,.46-.81,.27-.45-.04-.01,.22-.3,.2-.22,.41-.44,.63-.64,.11-.1,.23-.2,.34-.3,.55-.47-.21,.14,.14-.11,.3-.21,.6-.41,.91-.61,.64-.4,1.3-.77,1.97-1.13,1.67-.91,3.33-1.82,4.94-2.84,2.71-1.72,.2-6.05-2.52-4.32h0Z"/><path class="cls-3" d="M151.55,210.86c-2.51,14.31-11.43,26.91-19.85,38.38-4.31,5.88-8.82,11.62-13.1,17.51s-7.67,11.67-12.02,17.16c-4.99,6.3-10.71,12.18-17.88,15.95-2.23,1.18-1.15,4.66,1.26,4.66h5c3.22,0,3.22-5,0-5h-5l1.26,4.66c13.42-7.06,21.63-20.25,29.9-32.4,4.09-6.02,8.71-11.69,13.05-17.52,4.66-6.26,9.22-12.63,13.14-19.38s7.64-14.63,9.05-22.69c.23-1.33-.36-2.69-1.75-3.08-1.21-.33-2.84,.41-3.08,1.75h0Z"/><path class="cls-3" d="M165.8,215.76c-9.43,14.64-18.37,29.58-27.46,44.43-4.56,7.45-9.15,14.88-13.87,22.24-3.48,5.44-6.58,11.13-10.32,16.41s-8.85,10.88-15.36,13.28l3.16,2.41,.04,.13-.64,1.1c.23-.29-.1-.02,.36-.24,.38-.18,.69-.46,1.01-.72,1.04-.86,.89-2.65,0-3.54-1.03-1.03-2.49-.86-3.54,0,.35-.29-.3,.1-.33,.11-.31,.18-.64,.41-.9,.67-.72,.7-.9,1.54-1.01,2.49-.18,1.55,1.75,2.93,3.16,2.41,12.86-4.74,19.74-17.38,26.45-28.45,4.45-7.34,9.18-14.52,13.67-21.83s9.29-15.23,13.94-22.84c5.23-8.56,10.5-17.09,15.93-25.53,1.75-2.71-2.58-5.22-4.32-2.52h0Z"/><path class="cls-3" d="M173.05,213.86c-6.16,14.67-14.56,28.28-23.06,41.68-4.2,6.61-8.52,13.16-12.48,19.93-3.86,6.61-7.71,13.23-11.85,19.67-4.65,7.24-9.65,14.26-15.47,20.62-2.17,2.37,1.36,5.91,3.54,3.54,10.62-11.59,18.69-25.2,26.58-38.71s17.13-26.88,25.12-40.67c4.63-7.99,8.86-16.2,12.44-24.72,.52-1.25-.56-2.75-1.75-3.08-1.44-.4-2.55,.5-3.08,1.75h0Z"/><path class="cls-3" d="M161.3,207.78c3.59,6.79,13.33,4.33,18.26,.61,6.88-5.19,6.24-14.5,5.01-22.12-.69-4.26-1.84-8.57-2.11-12.76-.07-1.02-.72-2.21-1.84-2.41-2.74-.49-5.26-.11-7.81,.97-2.21,.93-4.25,2.25-6.52,3.03-1.28,.44-2.12,1.71-1.75,3.08,.34,1.24,1.79,2.19,3.08,1.75,2.18-.76,4.17-1.87,6.24-2.88,1.69-.82,3.53-1.46,5.43-1.12l-1.84-2.41c.46,7.08,2.92,13.91,2.93,21.04,0,1.65-.13,3.27-.56,4.87-.19,.69-.4,1.33-.71,1.95-.17,.33-.35,.66-.55,.97-.08,.14-.17,.27-.26,.4-.38,.57,.33-.35-.15,.2-1.61,1.86-3.86,3.04-6.31,3.7-.86,.23-1.44,.34-2.08,.38-.35,.02-.71,.03-1.06,.01-.17,0-.34-.02-.52-.04,.35,.04-.06,0-.21-.04-.32-.08-.63-.15-.94-.27-.38-.14,.29,.16-.06-.04-.17-.09-.34-.19-.51-.3-.07-.05-.34-.3-.06-.04-.12-.1-.24-.21-.34-.33-.32-.38-.13-.15-.07-.07-.15-.21-.27-.44-.39-.66-1.51-2.85-5.82-.32-4.32,2.52h0Z"/><path class="cls-3" d="M107.87,283.69c.8-3.51,1.22-7.14,1.5-10.73,.31-4.01,.39-8.09-.13-12.09-.49-3.73-1.52-7.28-4.42-9.88-3.19-2.86-7.42-3.75-11.6-3.59-2.24,.09-4.48,.43-6.69,.79-1.02,.17-2.04,.35-3.07,.51s-1.38,.22-2.5,.31c-1.35,.1-2.5,1.07-2.5,2.5,0,1.27,1.15,2.6,2.5,2.5,3.38-.26,6.85-1.11,10.07-1.45s6.69-.4,9.42,1.34c1.2,.76,2.2,1.94,2.84,3.29-.22-.46,.13,.35,.17,.46,.11,.31,.2,.62,.29,.94,.21,.78,.37,1.58,.49,2.38,.21,1.33,.32,3.4,.35,5.03,.03,1.94-.02,3.88-.15,5.81-.23,3.73-.58,6.95-1.4,10.55-.71,3.13,4.11,4.47,4.82,1.33h0Z"/><path class="cls-3" d="M104.55,328.36c-3.08,12.26,1.09,24.54,2.46,36.71,.33,2.95,.5,5.93,.33,8.9-.07,1.2-.15,2.43-.44,3.61-.26,1.07-.35,1.23-.95,2.18-.82,1.29-2.21,2.52-3.65,3.41-1.78,1.11-3.2,1.69-5.2,2.23-.91,.25-2.28,.51-2.79,.57-1.1,.12-2.2,.15-3.3,.07-.16-.01-.32-.03-.48-.04-.3-.04-.32-.04-.04,0-.15-.02-.3-.05-.45-.08-.44-.1-.86-.21-1.29-.34-.08-.02-.74-.29-.19-.05-.19-.08-.37-.17-.55-.27s-.34-.2-.51-.3c-.58-.35,.03,.06-.26-.2-1.01-.89-2.54-1-3.54,0-.91,.91-1.02,2.64,0,3.54,3.3,2.9,7.93,3.11,12.08,2.49,4.4-.66,8.81-2.55,12.08-5.59,1.65-1.53,2.94-3.44,3.66-5.58,.92-2.73,.93-5.99,.88-8.84-.12-6.61-1.49-13.13-2.59-19.62-1.2-7.06-2.2-14.42-.44-21.47,.78-3.12-4.04-4.45-4.82-1.33h0Z"/><path class="cls-3" d="M34.46,47.02c5.03,.25,9.97,2.02,14.53,4.06,5.03,2.24,9.85,4.94,14.59,7.74,9.44,5.57,18.59,11.34,26.82,18.63,4.22,3.74,8.21,7.74,12.02,11.89,4.02,4.37,7.65,8.94,11.12,13.76s6.99,9.86,10.78,14.57c1.86,2.31,3.8,4.56,5.89,6.66,1.51,1.52,2.92,3.18,4.46,4.66s3.28,1.69,5.25,1.91c2.76,.31,5.53-.38,8.14-1.25s5-1.91,7.63-2.33c2.78-.45,5.22,.28,7.51,1.85,1.11,.76,2.77,.21,3.42-.9,.72-1.24,.22-2.66-.9-3.42-2.38-1.63-5.1-2.6-7.99-2.67-2.51-.05-5,.6-7.36,1.39s-4.59,1.7-6.99,2.19c-1.91,.39-3.64,.3-5.18-.22,.71,.24-.3-.4,.23,.12-.2-.19-.4-.38-.59-.59-.69-.74-1.33-1.52-2.04-2.25-2.04-2.12-4.13-4.14-6.03-6.38-3.91-4.59-7.37-9.54-10.88-14.45s-7.06-9.68-11.08-14.16-7.85-8.43-12.09-12.32-8.6-7.42-13.22-10.72-9.34-6.09-14.13-8.96c-5.36-3.21-10.79-6.35-16.49-8.93s-11.33-4.6-17.43-4.9c-3.22-.16-3.21,4.84,0,5h0Z"/><path class="cls-3" d="M141.8,134.28c3.98,7.58,4.48,15.94,5.9,24.21,.04,.22,.07,.44,.1,.66,.09,.57-.02-.18,.04,.29,.08,.64,.15,1.29,.22,1.94,.15,1.38,.27,2.75,.4,4.13,.26,2.83,.51,5.66,.95,8.47,.35,2.27,1.1,5.64,4.21,4.95s1.81-5.52-1.33-4.82c.89-.2,2.04,.31,2.44,.91-.22-.33,.03-.03,.07,.2-.04-.31-.2-.64-.27-.95-.1-.43-.17-.86-.24-1.3-.04-.25-.08-.5-.11-.76-.08-.55,0,.06-.07-.52-.31-2.62-.54-5.25-.79-7.88-.22-2.33-.43-4.69-.85-6.99-.62-3.39-.98-7.66-1.71-11.37-.93-4.76-2.38-9.39-4.64-13.69-1.5-2.85-5.81-.33-4.32,2.52h0Z"/><path class="cls-3" d="M48.29,4.93c13.27,4.61,26.17,10.18,38.34,17.22,12.54,7.25,24.09,15.88,34.93,25.47,11.16,9.88,21.79,20.56,30.75,32.51,4.44,5.93,8.43,12.14,11.87,18.7,3.61,6.88,6.96,13.92,9.38,21.31,1.2,3.67,2.17,7.41,2.8,11.22,.6,3.59,.71,7.2,.7,10.83-.02,7.33-.45,14.7,.49,21.99,.24,1.85,.55,3.69,.99,5.5,.76,3.12,5.59,1.8,4.82-1.33-1.74-7.14-1.45-14.62-1.34-21.91,.05-3.6,.16-7.23-.13-10.83-.33-3.98-1.03-7.92-2.03-11.79-2.02-7.81-5.23-15.28-8.79-22.49s-7.12-13.43-11.51-19.69c-8.78-12.52-19.31-23.74-30.57-34.06s-22.73-19.36-35.5-27.18c-12.17-7.46-25.15-13.46-38.54-18.39-1.77-.65-3.56-1.29-5.34-1.91-1.28-.44-2.73,.51-3.08,1.75-.38,1.38,.47,2.63,1.75,3.08h0Z"/><path class="cls-3" d="M43.79,10.43c20,8.02,38.88,18.86,56.09,31.83,17.67,13.31,33.4,28.98,46.64,46.71,1.92,2.58,3.93,5.16,5.65,7.88,1.36,2.15,2.43,4.46,3.49,6.77,2.2,4.78,4.29,9.85,8.03,13.68,2.25,2.3,5.79-1.23,3.54-3.54-3.19-3.26-4.98-7.72-6.85-11.8-1-2.18-1.99-4.37-3.18-6.45-1.33-2.33-2.99-4.48-4.57-6.64-6.93-9.49-14.41-18.63-22.69-26.97-15.38-15.51-32.85-29.01-51.69-40.06-10.62-6.23-21.7-11.63-33.12-16.22-1.25-.5-2.75,.55-3.08,1.75-.39,1.43,.49,2.57,1.75,3.08h0Z"/><path class="cls-3" d="M150.12,109.61c-7.09-2.26-14.59,1.37-20.93,4.25-1.23,.56-1.53,2.34-.9,3.42,.74,1.26,2.19,1.46,3.42,.9,2.85-1.29,5.53-2.52,8.56-3.39s5.74-1.24,8.51-.36c1.29,.41,2.73-.48,3.08-1.75,.37-1.35-.45-2.66-1.75-3.08h0Z"/><path class="cls-3" d="M137.79,95.61c-5.03,1-10.12,1.89-15,3.5-1.24,.41-2.18,1.75-1.75,3.08,.4,1.24,1.75,2.19,3.08,1.75,4.88-1.61,9.97-2.5,15-3.5,1.28-.26,2.14-1.85,1.75-3.08-.44-1.36-1.7-2.02-3.08-1.75h0Z"/><path class="cls-3" d="M123.96,80.02c-6.32,.05-11.77,3.09-17.26,5.84-1.21,.61-1.55,2.31-.9,3.42,.72,1.23,2.21,1.5,3.42,.9s2.39-1.22,3.58-1.82c.64-.32,1.29-.64,1.94-.94s1.1-.5,1.5-.67c1.25-.51,2.53-.94,3.85-1.26,.31-.07,.62-.14,.93-.2,.1-.02,1-.17,.69-.13,.74-.1,1.49-.13,2.24-.14,1.31-.01,2.56-1.14,2.5-2.5s-1.1-2.51-2.5-2.5h0Z"/><path class="cls-3" d="M115.46,66.02c-8.25,.07-15.83,3.65-23.26,6.84-1.24,.53-1.52,2.36-.9,3.42,.75,1.28,2.17,1.43,3.42,.9,6.59-2.83,13.43-6.1,20.74-6.16,3.22-.03,3.22-5.03,0-5h0Z"/><path class="cls-3" d="M95.29,51.61c-7.1,1.53-13.99,3.72-20.6,6.75-1.23,.56-1.53,2.34-.9,3.42,.74,1.26,2.19,1.46,3.42,.9,6.2-2.84,12.74-4.81,19.4-6.25,1.32-.28,2.09-1.83,1.75-3.08-.38-1.36-1.75-2.03-3.08-1.75h0Z"/><path class="cls-3" d="M80.46,45.52c-7.44-.48-13.15,5.39-18.76,9.34-1.1,.78-1.62,2.18-.9,3.42,.64,1.09,2.31,1.68,3.42,.9,2.69-1.9,5.19-4.06,7.96-5.85,.69-.45,1.39-.87,2.11-1.26,.35-.19,.71-.37,1.08-.54,.05-.02,.55-.24,.25-.12,.16-.07,.32-.13,.49-.19,.77-.28,1.55-.49,2.35-.65,.42-.08-.33,.03,.09-.02,.21-.02,.42-.04,.63-.05,.43-.02,.85-.01,1.28,.02,1.35,.09,2.5-1.21,2.5-2.5,0-1.43-1.15-2.41-2.5-2.5h0Z"/><path class="cls-3" d="M60.96,37.02c-5.82,.06-9.79,5.53-12.16,10.24-.59,1.17-.35,2.76,.9,3.42,1.14,.6,2.79,.35,3.42-.9,.51-1.01,1.06-1.99,1.67-2.94,.32-.49,.73-.94,1.01-1.45-.34,.59-.15,.19-.03,.04,.09-.11,.19-.23,.28-.34,.2-.24,.41-.48,.63-.71,.39-.41,.81-.81,1.25-1.17s-.27,.19-.07,.05c.11-.08,.22-.16,.34-.24,.22-.15,.45-.3,.69-.43,.12-.07,.23-.13,.35-.19,.09-.04,.55-.24,.12-.07s.04-.01,.13-.04c.12-.04,.25-.08,.37-.12,.25-.07,.51-.11,.76-.17s-.69,.04-.14,.03c.15,0,.31-.02,.46-.02,1.31-.01,2.56-1.14,2.5-2.5s-1.1-2.52-2.5-2.5h0Z"/><path class="cls-3" d="M40.19,29.25c-1.81,2.2-3.23,4.69-4.45,7.26-1.34,2.82-2.56,5.78-3.19,8.85-.26,1.28,.37,2.76,1.75,3.08,1.25,.28,2.79-.38,3.08-1.75s.66-2.61,1.11-3.87c.26-.72,.54-1.44,.83-2.15-.1,.24-.05,.12,.02-.05s.16-.36,.24-.53c.16-.35,.32-.71,.49-1.05,.6-1.26,1.26-2.51,1.98-3.71,.32-.53,.65-1.06,.99-1.57,.16-.24,.33-.48,.51-.72,.04-.06,.13-.23,.2-.26-.25,.11-.26,.33,0,.02,.83-1.01,1.06-2.56,0-3.54-.92-.84-2.65-1.08-3.54,0h0Z"/><path class="cls-4" d="M11.12,334.52c.02,18.95,2.15,37.8,4.8,56.54,.74,5.21,1.51,10.42,2.29,15.62,.2,1.34,1.89,2.07,3.08,1.75,1.43-.39,1.95-1.73,1.75-3.08-2.7-18.16-5.38-36.35-6.43-54.69-.31-5.38-.47-10.76-.48-16.14,0-3.22-5-3.22-5,0h0Z"/><path class="cls-4" d="M30.86,399.86l-.44,.22c-2.88,1.44-.35,5.75,2.52,4.32l.44-.22c2.88-1.44,.35-5.75-2.52-4.32l-.44,.22,2.52,4.32,.44-.22c2.88-1.44,.35-5.75-2.52-4.32h0Z"/><path class="cls-4" d="M30.12,295.52h-4.5c-.64,0-1.31,.28-1.77,.73s-.76,1.15-.73,1.77,.24,1.32,.73,1.77,1.09,.73,1.77,.73h4.5c.64,0,1.31-.28,1.77-.73s.76-1.15,.73-1.77-.24-1.32-.73-1.77-1.09-.73-1.77-.73h0Z"/><path class="cls-4" d="M41.71,219.19c4.09,17.72,4.66,36.22,3.91,54.32-.21,5.01-.54,10.02-1,15.01-.12,1.35,1.24,2.5,2.5,2.5,1.45,0,2.38-1.15,2.5-2.5,1.66-18.4,1.93-37.11-.43-55.46-.66-5.11-1.5-10.19-2.66-15.2-.72-3.13-5.55-1.81-4.82,1.33h0Z"/><path class="cls-4" d="M66.62,227.52c0,29.14-1.24,58.34,.88,87.44,.59,8.11,1.47,16.19,2.7,24.23,.21,1.34,1.88,2.07,3.08,1.75,1.43-.39,1.95-1.74,1.75-3.08-4.38-28.42-3.92-57.38-3.6-86.05,.09-8.09,.19-16.19,.19-24.28,0-3.22-5-3.22-5,0h0Z"/><path class="cls-4" d="M100.12,288.02c-.49-6.84,1.17-13.94-.59-20.66-.82-3.11-5.64-1.79-4.82,1.33,.75,2.86,.64,6.01,.53,9.13-.12,3.4-.36,6.81-.12,10.21,.1,1.35,1.08,2.5,2.5,2.5,1.28,0,2.6-1.15,2.5-2.5h0Z"/><path class="cls-4" d="M158.89,198.75c-.37-.34-.72-.69-1.06-1.07-.12-.13-.23-.28-.35-.41-.17-.21-.15-.18,.06,.09-.07-.09-.14-.18-.21-.28-.23-.32-.44-.65-.64-.98-.13-.23-.3-.84-.51-.99,.15,.36,.17,.42,.08,.17-.04-.09-.07-.19-.1-.28-.06-.19-.12-.37-.18-.56-.04-.14-.07-.28-.1-.42-.05-.22-.05-.83-.03-.02,0-.32-.06-.63-.05-.94,0-.18,.02-.35,.03-.52,.02-.47-.15,.65,0,.09,.02-.09,.29-.89,.27-.91,.09,.09-.3,.59-.05,.14,.08-.15,.16-.3,.25-.44,.05-.07,.09-.14,.14-.21,.15-.21,.1-.14-.16,.2-.01-.02,.24-.28,.26-.3,.12-.13,.25-.25,.38-.37,.07-.06,.14-.12,.21-.18-.31,.23-.38,.29-.23,.18,.32-.18,.6-.4,.93-.56,.46-.23,.14,.04-.04,0,.11,.03,.49-.18,.61-.22,.38-.12,.77-.22,1.17-.3,.15-.03,.91-.25,.26-.05,.24-.07,.54-.05,.79-.07,1.3-.09,2.56-1.09,2.5-2.5-.06-1.28-1.1-2.59-2.5-2.5-3.37,.22-6.81,1.4-8.67,4.41-1.68,2.74-1.31,6.05-.01,8.84,.79,1.71,2.04,3.24,3.42,4.51,.96,.89,2.6,1.02,3.54,0,.89-.97,1.02-2.59,0-3.54h0Z"/><path class="cls-4" d="M148.96,117.11c-2.8,.94-5.57,2-8.5,2.5-.58,.1-1.21,.66-1.49,1.15-.31,.54-.45,1.33-.25,1.93,.45,1.39,1.69,1.98,3.08,1.75,2.93-.5,5.7-1.56,8.5-2.5,1.24-.41,2.18-1.74,1.75-3.08-.4-1.23-1.75-2.19-3.08-1.75h0Z"/><path class="cls-2" d="M54.96,29.93c-1.91,3.17-4.09,6.16-6,9.33-.68,1.12-.29,2.8,.9,3.42s2.7,.3,3.42-.9c1.91-3.17,4.09-6.16,6-9.33,.68-1.12,.29-2.8-.9-3.42s-2.7-.3-3.42,.9h0Z"/><path class="cls-2" d="M69.86,19.35c7.62,3.69,14.84,8.15,21.82,12.92,3.65,2.5,7.23,5.09,10.77,7.74,.87,.65,1.74,1.31,2.6,1.97,.45,.34,.89,.68,1.34,1.03,.23,.17-.03-.02-.06-.05,.12,.09,.24,.18,.35,.27,.24,.18,.47,.37,.71,.55,1.73,1.35,3.45,2.71,5.16,4.08,3.32,2.66,6.61,5.36,9.88,8.09s6.5,5.41,9.46,8.44c1.4,1.43,2.74,2.91,4.03,4.44,.61,.73,1.21,1.47,1.8,2.22,.08,.1,.61,.72,.21,.26,.13,.14,.24,.31,.35,.46,.31,.41,.62,.82,.92,1.24,2.2,3.01,4.22,6.16,6.12,9.37,3.94,6.63,7.46,13.5,11.4,20.13,.52,.87,1.04,1.73,1.57,2.59,.68,1.11,2.27,1.64,3.42,.9s1.63-2.23,.9-3.42c-4.11-6.68-7.71-13.65-11.63-20.44-3.89-6.75-8.2-13.26-13.44-19.04-2.84-3.13-5.94-5.97-9.18-8.68s-6.51-5.42-9.8-8.09c-7.01-5.68-14.14-11.22-21.52-16.41-7.03-4.95-14.29-9.61-21.94-13.54-.91-.47-1.82-.92-2.74-1.36-1.18-.57-2.76-.36-3.42,.9-.59,1.12-.36,2.81,.9,3.42h0Z"/><path class="cls-2" d="M122.02,74.96c.65,.78,1.29,1.57,1.92,2.37,.14,.18,.28,.35,.42,.53,.07,.09,.51,.66,.23,.29,.3,.39,.59,.77,.88,1.16,1.22,1.62,2.4,3.26,3.56,4.93,2.31,3.32,4.51,6.71,6.7,10.12,1.3,2.03,2.6,4.06,3.9,6.09,.71,1.1,2.25,1.65,3.42,.9,1.1-.71,1.65-2.24,.9-3.42-4.48-6.98-8.86-14.04-13.82-20.69-1.47-1.98-2.99-3.92-4.57-5.82-.84-1.01-2.68-.93-3.54,0-.99,1.07-.9,2.46,0,3.54h0Z"/><path class="cls-2" d="M162.2,196.52c.68-3.09,.92-6.27,1.83-9.3,.1-.33,.21-.66,.32-.98,.03-.09,.28-.7,.09-.26s.09-.19,.14-.29c.15-.3,.31-.59,.48-.86,.05-.08,.26-.3,.27-.39,0,0-.37,.43-.21,.28,.07-.07,.12-.15,.19-.22,.1-.11,.21-.22,.32-.32,.05-.05,.12-.1,.17-.15,.25-.25-.22,.17-.24,.18,.13-.06,.25-.17,.37-.25,.11-.06,.65-.31,.21-.13s.03,0,.13-.03c.15-.05,.31-.08,.46-.12,.61-.14-.46,.02-.05,0,.2,0,.4-.02,.6-.01,.19,0,.37,.02,.56,.04,.58,.04-.6-.12-.05-.01,.33,.07,.65,.14,.97,.24,.11,.04,.56,.22,.13,.03-.46-.2,.07,.04,.16,.08,.28,.14,.53,.32,.8,.49,.32,.21-.51-.44-.08-.05,.11,.1,.22,.19,.32,.3,.21,.21,.4,.43,.6,.66,.21,.23-.37-.53-.05-.06,.09,.13,.17,.25,.26,.38,.17,.26,.32,.53,.47,.81s.26,.59,.41,.87c-.37-.72-.1-.22-.02-.03,.07,.18,.13,.35,.19,.53,.22,.65,.4,1.31,.56,1.98,.16,.71,.29,1.43,.4,2.15,.03,.21,.08,.83,0,0,.01,.15,.04,.31,.06,.46,.04,.37,.08,.75,.11,1.13,.24,2.73,.2,5.46,.2,8.19,0,1.31,1.15,2.56,2.5,2.5s2.5-1.1,2.5-2.5c0-5.82,.16-12-2.38-17.39-1.35-2.86-3.88-5.18-7.08-5.65-1.96-.29-4.01-.16-5.69,.99-1.42,.98-2.45,2.36-3.13,3.94-1.57,3.64-1.79,7.61-2.63,11.44-.28,1.27,.38,2.76,1.75,3.08,1.26,.29,2.78-.38,3.08-1.75h0Z"/><path class="cls-2" d="M120.69,296.76c-7.89,7.31-16.69,13.67-23.22,22.32-1.76,2.34-3.31,4.84-4.51,7.52-.42,.95-.47,1.91,.2,2.78s1.61,1.08,2.63,.9c.54-.1-.7,.03-.23,.03,.12,0,.24-.01,.36,0,.06,0,.12,.01,.18,.01,.31,0-.57-.11-.46-.06,.1,.04,.24,.05,.35,.08,.14,.04,.53,.2,0-.01s-.1-.03,.04,.04c.09,.05,.17,.12,.25,.17-.54-.32-.46-.38-.19-.12,.09,.08,.16,.17,.24,.25,.04,.04,.07,.09,.11,.13,.19,.19-.42-.61-.23-.3,.15,.23,.3,.46,.43,.7,.06,.12,.12,.23,.17,.35,.03,.06,.05,.12,.08,.18,.14,.3-.28-.71-.12-.28,.11,.3,.22,.6,.31,.91,.21,.69,.37,1.4,.49,2.11,.03,.19,.07,.39,.1,.58,.03,.17,.13,.9,.06,.37s.02,.14,.03,.29c.03,.23,.05,.46,.07,.7,.19,1.93,.25,3.88,.26,5.82,.03,4.48-.22,8.96-.5,13.43s-.59,8.57-.77,12.87c-.12,3.08-.3,6.34,.37,9.37,.05,.21,.1,.43,.17,.63,.41,1.24,1.75,2.18,3.08,1.75,1.24-.4,2.18-1.74,1.75-3.08-.16-.47-.23-.96-.32-1.45-.06-.33,.09,.75,.06,.41,0-.08-.02-.15-.03-.23-.02-.16-.03-.32-.05-.49-.03-.33-.05-.65-.07-.98-.08-1.67-.05-3.35,0-5.03,.14-4.31,.47-8.62,.75-12.93,.29-4.59,.56-9.2,.56-13.8,0-3.78-.08-7.76-1.12-11.42-.84-2.96-2.74-5.96-6.16-5.99-.46,0-.92,.07-1.37,.16l2.82,3.67c1.06-2.36,2.38-4.58,3.88-6.67,.19-.26,.37-.51,.57-.77,.08-.1,.15-.2,.23-.31,.39-.52-.33,.41,.08-.1s.8-1,1.22-1.49c.88-1.04,1.79-2.05,2.73-3.03,3.67-3.83,7.71-7.28,11.73-10.73,2.19-1.88,4.38-3.77,6.5-5.73,.96-.89,.97-2.65,0-3.54-1.03-.94-2.51-.95-3.54,0h0Z"/><path class="cls-2" d="M86.05,265.85c.87,3.76,2.07,7.44,3.01,11.19,.25,1.01,.49,2.03,.7,3.05,.1,.48,.19,.95,.27,1.43,.04,.22,.08,.44,.11,.67,.02,.13,.04,.25,.06,.38,0,.02,.1,.63,.04,.24-.05-.36,0,.05,.02,.14,.02,.13,.03,.25,.04,.38,.02,.22,.05,.44,.07,.66,.05,.52,.09,1.05,.11,1.58,.04,.93,.03,1.87-.04,2.79-.02,.26-.05,.52-.08,.79-.04,.35,.08-.49,.02-.15-.02,.14-.04,.28-.07,.43-.09,.5-.2,1-.34,1.5-.13,.46-.29,.91-.46,1.35-.12,.32,.2-.44,.05-.13-.06,.13-.12,.25-.18,.38-.12,.25-.26,.5-.4,.74-.65,1.13-.3,2.79,.9,3.42s2.73,.31,3.42-.9c2.09-3.64,2.47-7.97,2.05-12.08-.45-4.38-1.57-8.62-2.76-12.85-.59-2.1-1.2-4.21-1.7-6.34-.3-1.27-1.83-2.15-3.08-1.75-1.33,.43-2.06,1.71-1.75,3.08h0Z"/><path class="cls-2" d="M70.46,345.36c-1.19,.15-2.07,.72-2.44,1.89-.09,.28-.1,.6-.11,.9-.02,.35,0,.7,0,1.05,.04,1.37,.12,2.73,.2,4.09,.27,4.67,.57,9.34,.83,14.01,.33,5.9,.62,11.8,.79,17.71,.16,5.43,.26,10.86,.03,16.29-.05,1.09-.11,2.17-.19,3.26-.04,.49-.08,.97-.13,1.46-.02,.23-.05,.46-.08,.68-.01,.1-.03,.21-.04,.31-.06,.45,.11-.78,.03-.21-.11,.76-.24,1.51-.42,2.25-.07,.3-.16,.59-.25,.88-.04,.12-.09,.24-.13,.36-.13,.36,.3-.66,.17-.39-.03,.06-.06,.13-.09,.19-.09,.19-.2,.36-.32,.53-.8,1.04-.2,2.84,.9,3.42,1.32,.7,2.57,.22,3.42-.9,.77-1.01,1.1-2.44,1.33-3.66,.38-1.98,.57-4,.7-6.01,.33-5.13,.28-10.28,.16-15.42-.13-5.86-.39-11.72-.7-17.58-.26-4.98-.57-9.96-.87-14.93-.15-2.49-.26-4.98-.33-7.48,0-.34-.11,.72-.07,.54-.22,.94-1.25,1.63-2.38,1.77,1.29-.16,2.57-1.03,2.5-2.5-.05-1.21-1.11-2.67-2.5-2.5h0Z"/><path class="cls-2" d="M44.62,351.86c.63,7.66,.44,15.38,.53,23.05,.1,8.46,.31,16.98,1.73,25.34,.67,3.97,1.69,7.88,3.41,11.53,.56,1.19,2.35,1.58,3.42,.9,1.22-.79,1.5-2.15,.9-3.42-.08-.16-.15-.32-.22-.48-.04-.08-.33-.75-.14-.32s-.07-.19-.11-.27c-.08-.19-.15-.39-.22-.58-.29-.78-.55-1.58-.79-2.38-.5-1.7-.9-3.44-1.23-5.19-.17-.92-.32-1.84-.46-2.76-.03-.22-.06-.44-.1-.67-.01-.1-.05-.23-.05-.34,0,.59,.04,.33,.02,.16-.06-.51-.13-1.02-.19-1.53-.23-2.03-.4-4.06-.53-6.1-.54-8.29-.45-16.61-.54-24.91-.04-4.02-.11-8.04-.44-12.04-.11-1.3-1.07-2.56-2.5-2.5-1.26,.06-2.62,1.1-2.5,2.5h0Z"/><path class="cls-2" d="M41.29,210.52c-.38,2.99,1.55,5.88,3.16,8.23,.91,1.33,1.86,2.63,2.71,4,.45,.72,.87,1.46,1.24,2.22,.09,.18,.17,.37,.26,.55,.2,.43-.15-.4,.02,.04,.15,.4,.3,.8,.43,1.22,.5,1.66,.85,3.39,1.17,5.09,.17,.9,.32,1.8,.45,2.7,.03,.23,.07,.46,.1,.69,.01,.1,.03,.2,.04,.3-.05-.56-.03-.19-.01-.07,.06,.47,.12,.93,.17,1.4,.43,3.79,.66,7.59,.79,11.4s.14,7.27,.14,10.91c0,1.31,1.15,2.56,2.5,2.5s2.5-1.1,2.5-2.5c0-6.94-.07-13.89-.77-20.8-.38-3.81-.91-7.62-1.85-11.34-.45-1.77-1-3.45-1.85-5.08-.77-1.47-1.7-2.86-2.65-4.22s-2.01-2.8-2.82-4.31c-.17-.31-.32-.63-.47-.95-.14-.28,.19,.52,.1,.22-.03-.08-.06-.17-.09-.25-.06-.16-.11-.33-.16-.49s-.08-.33-.12-.49c-.13-.53,.03,.58,0,.06-.02-.34-.02-.67,.03-1.01,.17-1.3-1.27-2.56-2.5-2.5-1.5,.07-2.32,1.1-2.5,2.5h0Z"/><path class="cls-2" d="M14.02,218.76c-1.49,1.51-2.7,3.42-3.14,5.52s-.28,4.26,.5,6.25c.24,.63,.55,1.14,1.15,1.49,.54,.31,1.33,.45,1.93,.25,1.18-.38,2.26-1.77,1.75-3.08-.15-.38-.28-.76-.38-1.16-.05-.19-.09-.38-.13-.58-.01-.07-.07-.22-.05-.29-.02,.06,.06,.6,.03,.23s-.05-.76-.04-1.14c0-.1-.03-.5,.04-.56-.02,.02-.1,.62-.03,.25,.02-.12,.04-.23,.06-.35,.08-.37,.18-.73,.31-1.09,.03-.08,.16-.4,0-.03s-.02,.05,.02-.03c.08-.18,.17-.35,.27-.52,.2-.35,.42-.68,.66-1.01,.18-.26-.32,.38-.1,.14,.07-.08,.14-.16,.2-.24,.16-.18,.33-.36,.5-.53,.92-.93,1-2.62,0-3.54s-2.55-1-3.54,0h0Z"/><path class="cls-2" d="M27.38,239.19c.05,.19,.09,.38,.12,.57,.02,.1,.03,.2,.05,.3-.05-.39-.06-.48-.04-.28,.03,.4,.07,.8,.09,1.21,.03,.79,.03,1.59,.03,2.38,0,1.72,.02,3.47,.42,5.16l2.41-3.16c-3.8,.01-7.61,.68-11.33,1.42-1.28,.26-2.14,1.85-1.75,3.08,.44,1.37,1.7,2.02,3.08,1.75,1.74-.35,3.48-.65,5.24-.9,.19-.03,.13-.02-.19,.03,.13-.02,.25-.03,.38-.05,.22-.03,.44-.05,.66-.08,.44-.05,.87-.09,1.31-.13,.87-.07,1.73-.11,2.6-.11,1.67,0,2.79-1.59,2.41-3.16-.05-.19-.09-.38-.12-.57-.02-.1-.03-.2-.05-.3,.05,.39,.06,.48,.04,.28-.03-.4-.07-.8-.09-1.21-.03-.79-.03-1.59-.03-2.38,0-1.72-.02-3.47-.42-5.16-.3-1.27-1.82-2.15-3.08-1.75-1.32,.43-2.07,1.71-1.75,3.08h0Z"/><path class="cls-2" d="M10.05,313.86c-2.41,10.72-2.9,21.81-2.45,32.76s1.87,21.9,3.59,32.74c.05,.3,.06,.66,.15,.95-.17-.52-.05-.46-.04-.21,0,.22,.02,.44,.03,.66,.02,.45,.03,.91,.03,1.36,.01,1.1,0,2.21-.02,3.31-.04,2.8-.11,5.6-.11,8.4,0,6,.1,12.25,1.69,18.08,.67,2.47,1.68,4.94,3.44,6.84,1.66,1.79,4.11,2.8,6.55,2.57,.74-.07,1.48-.18,2.2-.39,1.26-.35,2.16-1.79,1.75-3.08s-1.73-2.12-3.08-1.75c-.27,.08-.55,.15-.83,.2-.12,.02-.24,.03-.36,.06,.92-.18,.4-.05,.15-.04-.23,.02-.47,.02-.7,.01-.12,0-.24-.02-.36-.03-.31,0,.81,.16,.2,.02-.2-.04-.39-.08-.59-.14-.11-.03-.21-.07-.32-.11-.36-.11,.69,.34,.19,.08-.19-.1-.37-.19-.55-.3-.08-.05-.16-.11-.25-.16-.42-.26,.52,.45,.15,.12s-.66-.65-.97-1c-.19-.21,.42,.59,.14,.18-.07-.1-.14-.2-.21-.3-.15-.22-.29-.46-.43-.69-.12-.21-.23-.42-.33-.63-.15-.3-.46-1.12-.15-.29-.2-.54-.41-1.07-.58-1.62-.39-1.25-.67-2.52-.9-3.81-.05-.3-.1-.61-.15-.92-.03-.17-.05-.35-.08-.52-.01-.1-.03-.2-.04-.29,.02,.11,.09,.67,.03,.25-.09-.71-.17-1.41-.23-2.12-.28-2.98-.37-5.98-.39-8.98-.02-2.8,.03-5.6,.08-8.41,.04-2.09,.1-4.2,0-6.29-.05-.97-.24-1.93-.39-2.89-.2-1.29-.4-2.57-.59-3.86s-.37-2.54-.55-3.81c-.05-.33-.09-.66-.14-.99-.02-.15-.04-.29-.06-.44,.07,.5,.01,.1,0,0-.09-.7-.18-1.4-.27-2.11-.67-5.32-1.21-10.67-1.53-16.02s-.44-10.75-.24-16.13c.1-2.65,.27-5.29,.54-7.93,.06-.63,.13-1.25,.21-1.87,.04-.33,.08-.66,.12-.99,.02-.15,.04-.29,.06-.44-.06,.45,0-.03,.03-.21,.18-1.27,.38-2.53,.61-3.79s.48-2.49,.76-3.72-.39-2.77-1.75-3.08c-1.27-.29-2.77,.38-3.08,1.75h0Z"/><path class="cls-2" d="M31.13,302.78c-3.21,.81-6.2,2.28-9.33,3.33-1.24,.42-2.18,1.74-1.75,3.08,.4,1.23,1.75,2.19,3.08,1.75,3.13-1.05,6.13-2.52,9.33-3.33,1.27-.32,2.16-1.81,1.75-3.08s-1.72-2.09-3.08-1.75h0Z"/><path class="cls-2" d="M32.46,338.02c-2.7,0-5.36,.11-8,.76-1.21,.3-1.95,1.55-1.79,2.74s1.2,2.17,2.46,2.17c1.61,0,3.22-.26,4.43-1.4,.96-.9,.97-2.64,0-3.54-1.02-.94-2.52-.96-3.54,0-.04,.04-.09,.08-.14,.12l.51-.39c-.13,.09-.26,.17-.4,.24l.6-.25c-.3,.13-.62,.2-.94,.25l.66-.09c-.39,.05-.79,.06-1.19,.06l.66,4.91c.74-.18,1.49-.33,2.24-.44l-.66,.09c1.69-.23,3.39-.23,5.09-.23,1.31,0,2.56-1.15,2.5-2.5s-1.1-2.5-2.5-2.5h0Z"/><path class="cls-2" d="M31.12,406.02c-1.13,0-2.3,.24-3.37,.6-1.37,.46-2.69,1.11-3.73,2.13-.45,.45-.73,1.13-.73,1.77s.27,1.35,.73,1.77,1.1,.76,1.77,.73,1.28-.26,1.77-.73c.13-.13,.27-.25,.41-.36l-.51,.39c.47-.36,1-.64,1.54-.87l-.6,.25c.82-.34,1.67-.58,2.55-.7l-.66,.09c.27-.04,.55-.06,.83-.06,.64,0,1.31-.28,1.77-.73s.76-1.15,.73-1.77c-.06-1.35-1.1-2.51-2.5-2.5h0Z"/><path class="cls-2" d="M163.21,227.11c-.07,.18-.14,.36-.21,.53-.24,.61,.22-.48-.05,.11-.14,.3-.27,.59-.41,.88-.34,.72-.71,1.42-1.1,2.11-.76,1.34-1.59,2.63-2.46,3.9-.42,.6-.85,1.2-1.28,1.79-.25,.34-.5,.68-.76,1.02-.11,.14-.21,.28-.32,.42-.06,.08-.13,.17-.19,.25q.17-.23,0,0c-1.01,1.29-2.03,2.56-3.06,3.83-2.03,2.5-4.08,5-5.98,7.61s-3.58,5.29-5.25,7.99c-2.03,3.27-3.9,6.66-5.18,10.3-.43,1.24,.49,2.79,1.75,3.08,1.4,.32,2.61-.42,3.08-1.75,.14-.39,.28-.78,.43-1.17,0,0,.25-.64,.11-.29s.13-.29,.12-.29c.35-.79,.73-1.57,1.12-2.35,.76-1.49,1.6-2.93,2.47-4.36,1.69-2.77,3.44-5.55,5.32-8.18,.4-.56,.81-1.12,1.23-1.66,.1-.13,.2-.27,.3-.4,.05-.07,.47-.6,.1-.13,.25-.32,.5-.64,.76-.96,.99-1.26,2.01-2.5,3.02-3.75,2.1-2.58,4.19-5.17,6.11-7.89,2.07-2.92,3.86-5.99,5.15-9.33,.47-1.22-.52-2.8-1.75-3.08-1.43-.33-2.57,.44-3.08,1.75h0Z"/><path class="cls-1" d="M162.62,137.19c.01,8.29,1.4,16.51,2.76,24.66,.22,1.29,1.88,2.13,3.08,1.75,1.4-.45,1.98-1.69,1.75-3.08-.33-1.96-.65-3.92-.96-5.88-.15-.98-.3-1.96-.44-2.94-.07-.49-.14-.98-.21-1.47,.07,.48-.03-.22-.04-.31-.04-.29-.07-.57-.11-.86-.49-3.94-.81-7.9-.82-11.88,0-1.31-1.15-2.56-2.5-2.5s-2.5,1.1-2.5,2.5h0Z"/><path class="cls-1" d="M171.36,167.42c-.14,.14-.29,.26-.44,.39-.29,.25,.6-.43,.11-.09-.09,.06-.18,.13-.27,.19-.49,.33-.99,.63-1.51,.92-.6,.34-1.22,.65-1.84,.95-.31,.15-.62,.29-.94,.43-.07,.03-.15,.06-.22,.1-.25,.11-.2,.09,.15-.06-.04,.08-.44,.18-.53,.22-1.37,.55-2.77,1.02-4.2,1.35-.34,.08-.67,.15-1.01,.21-.14,.02-.28,.04-.42,.07,.81-.17,.2-.03,0-.01-.29,.03-.59,.04-.88,.04-.27,0-1.21-.14-.23,.02-1.29-.2-2.75,.33-3.08,1.75-.27,1.19,.36,2.86,1.75,3.08,3.2,.5,6.46-.49,9.41-1.67,2.64-1.05,5.62-2.28,7.69-4.31,.94-.92,.99-2.63,0-3.54s-2.54-.98-3.54,0h0Z"/><path class="cls-1" d="M33.12,280.36s.02,0,.04,0l-.66-.09s.02,0,.02,0l-.6-.25h0c-.17-.13-.34-.26-.51-.39h0c-.21-.36-.43-.73-.64-1.1h0v-1.32h0c.08-.19,.17-.39,.25-.59h0c.13-.16,.26-.33,.39-.5,0,0-.01,.01-.02,.02l.51-.39s-.09,.05-.14,.07l.6-.25c-.81,.34-1.73,.48-2.6,.6l.66-.09c-1.14,.15-2.3,.19-3.45,.04l.66,.09c-.18-.03-.35-.06-.53-.09-.59-.1-1.08-.11-1.63,.13-.33,.14-.57,.27-.84,.55-.21,.23-.43,.47-.58,.74-.34,.66-.44,1.32-.27,2.05,.21,.88,.99,1.58,1.83,1.82,.72,.21,1.41,.09,2.13-.03,.68-.11,1.35-.28,2.01-.44,1.27-.32,2.15-1.81,1.75-3.08s-1.71-2.08-3.08-1.75c-.72,.18-1.44,.36-2.18,.47l.66-.09c-.18,.02-.37,.05-.55,.02l.66,.09s-.07-.01-.1-.02l.6,.25s-.02-.01-.04-.02l.51,.39s-.02-.01-.03-.02l.39,.51s-.01-.02-.02-.03l.25,.6v-.02c.03,.22,.06,.44,.08,.66,0-.01,0-.02,0-.03l-.09,.66s0-.04,.01-.06l-.25,.6s.04-.08,.07-.12l-.39,.51c.05-.06,.1-.12,.16-.17l-2.43,.64c2.17,.42,4.37,.3,6.53-.16,.67-.14,1.4-.32,2.01-.65,.64-.35,1.06-.89,1.28-1.58,.33-1.02-.21-2.33-1.16-2.83-.43-.23-.83-.34-1.33-.35-1.31-.03-2.56,1.17-2.5,2.5s1.1,2.47,2.5,2.5h0Z"/><path class="cls-1" d="M31.79,263.02h.06c1.31,0,2.56-1.15,2.5-2.5s-1.1-2.5-2.5-2.5h-6.72c-1.31,0-2.56,1.15-2.5,2.5s1.1,2.5,2.5,2.5h6.72c1.31,0,2.56-1.15,2.5-2.5s-1.1-2.5-2.5-2.5h-.06c-1.31,0-2.56,1.15-2.5,2.5s1.1,2.5,2.5,2.5h0Z"/><path class="cls-1" d="M30.46,321.45c-.81,.2-1.64,.35-2.47,.48-.5,.08-1,.16-1.5,.23-.11,.02-.22,.03-.33,.05-.42,.06,.04,0,.2-.03-.26,.04-.53,.07-.8,.1-1.46,.18-2.96,.4-4.43,.41-1.31,0-2.56,1.14-2.5,2.5s1.1,2.51,2.5,2.5c1.52,0,3.06-.24,4.57-.43,2.04-.26,4.1-.51,6.1-1,1.27-.31,2.15-1.81,1.75-3.08s-1.71-2.08-3.08-1.75h0Z"/><path class="cls-1" d="M31.12,368.69c-1.62,0-3.24,.21-4.83,.51-1.3,.24-2.57,.59-3.76,1.17-.54,.26-.99,.93-1.15,1.49-.16,.6-.09,1.4,.25,1.93,.78,1.21,2.16,1.51,3.42,.9,.08-.04,.16-.08,.25-.11l-.6,.25c1.33-.56,2.8-.82,4.21-1.01l-.66,.09c.95-.13,1.91-.2,2.87-.21,1.31,0,2.56-1.15,2.5-2.5s-1.1-2.5-2.5-2.5h0Z"/><path class="cls-1" d="M32.46,385.45c-2.69,.89-5.38,1.65-7.93,2.92-1.17,.58-1.59,2.34-.9,3.42,.77,1.2,2.16,1.52,3.42,.9,.47-.23,.95-.45,1.44-.66l-.6,.25c1.92-.8,3.92-1.35,5.89-2.01,.62-.2,1.16-.58,1.49-1.15,.31-.54,.45-1.33,.25-1.93-.4-1.23-1.75-2.19-3.08-1.75h0Z"/><path class="cls-1" d="M11.96,231.86v8.15c0,4.58,.16,9.16,.14,13.75-.03,10.93-.43,21.87-.14,32.8,.16,6.01,.54,12.01,1.33,17.97,.17,1.29,1.03,2.57,2.5,2.5,1.21-.05,2.68-1.11,2.5-2.5-1.42-10.71-1.51-21.54-1.4-32.33,.06-5.46,.17-10.92,.2-16.39,.03-4.91-.13-9.81-.13-14.72v-9.23c0-1.31-1.15-2.56-2.5-2.5s-2.5,1.1-2.5,2.5h0Z"/><path class="cls-1" d="M51.96,262.52c.85,7.44,.95,14.95,.87,22.43-.08,8.12-.41,16.23-.64,24.35-.13,4.41-.22,8.82-.23,13.23,0,1.31,1.15,2.56,2.5,2.5s2.5-1.1,2.5-2.5c0-7.96,.31-15.91,.56-23.86s.46-15.97,.25-23.95c-.11-4.07-.34-8.15-.8-12.2-.15-1.29-1.04-2.57-2.5-2.5-1.23,.05-2.66,1.11-2.5,2.5h0Z"/><path class="cls-1" d="M79.29,303.19c1.03,9.32,1.57,18.68,1.68,28.06s-.22,18.72-.89,28.06c-.38,5.31-.87,10.6-1.46,15.89-.14,1.3,1.25,2.56,2.5,2.5,1.48-.07,2.35-1.1,2.5-2.5,1.03-9.32,1.77-18.68,2.13-28.06s.32-18.71-.17-28.06c-.28-5.31-.71-10.61-1.29-15.89-.14-1.3-1.05-2.57-2.5-2.5-1.23,.06-2.65,1.11-2.5,2.5h0Z"/><path class="cls-1" d="M154.62,220.52c-.02,.26-.05,.53-.08,.79,0,.06-.08,.59-.02,.14s-.01,.08-.02,.14c-.08,.55-.18,1.1-.29,1.65-.21,1.04-.48,2.08-.79,3.1s-.7,2.1-1.11,3.12c-.04,.1-.08,.2-.12,.3-.21,.52,.18-.4,.03-.07-.1,.22-.2,.45-.3,.68-.25,.55-.51,1.1-.77,1.65-2.04,4.13-4.63,7.97-7.4,11.63-.18,.24-.36,.47-.54,.71-.36,.47,.24-.31,0,0-.09,.12-.18,.24-.28,.35-.39,.5-.78,.99-1.17,1.48-.76,.94-1.52,1.88-2.3,2.81-1.58,1.89-3.18,3.76-4.79,5.63-3.12,3.63-6.27,7.24-9.22,11.01-3.18,4.07-6.22,8.29-8.48,12.95-.57,1.17-.36,2.76,.9,3.42,1.12,.59,2.81,.36,3.42-.9,1.96-4.05,4.51-7.78,7.24-11.35,.07-.09,.14-.18,.21-.27-.35,.49-.11,.15-.02,.02,.16-.21,.32-.41,.48-.62,.4-.51,.8-1.01,1.21-1.51,.75-.92,1.5-1.84,2.26-2.75,1.59-1.9,3.2-3.77,4.82-5.65,6.35-7.36,12.97-14.81,17.48-23.49,2.45-4.7,4.16-9.7,4.66-14.99,.12-1.31-1.24-2.56-2.5-2.5-1.46,.07-2.37,1.1-2.5,2.5h0Z"/><path class="cls-1" d="M114.46,74.69c-1.79,.01-3.63,.4-5.31,1.03-1.87,.7-3.69,1.62-5.13,3.04-.93,.92-.99,2.63,0,3.54s2.54,.98,3.54,0c.11-.1,.21-.2,.32-.3,.15-.14,.62-.44-.06,.03,.26-.18,.52-.37,.79-.54s.57-.34,.87-.49c.15-.08,.3-.15,.46-.22,.17-.08,.77-.3,0,0,1.27-.47,2.53-.88,3.87-1.06l-.66,.09c.44-.06,.87-.09,1.31-.09,1.31,0,2.56-1.14,2.5-2.5s-1.1-2.51-2.5-2.5h0Z"/><path class="cls-1" d="M79.86,49.03c-2.73,1.81-5.75,3.21-8.67,4.67-1.17,.59-1.6,2.34-.9,3.42,.77,1.2,2.17,1.52,3.42,.9,2.92-1.46,5.94-2.86,8.67-4.67,1.09-.72,1.66-2.24,.9-3.42-.7-1.09-2.25-1.67-3.42-.9h0Z"/><path class="cls-1" d="M65.63,39.26c-.05,.07-.1,.13-.15,.2l.39-.51c-1.89,2.42-4.31,4.42-6.73,6.29l.51-.39c-.37,.29-.74,.57-1.12,.85-.54,.41-.96,.82-1.15,1.49-.16,.6-.09,1.4,.25,1.93s.86,1,1.49,1.15,1.4,.14,1.93-.25c3.25-2.44,6.43-4.97,8.9-8.23,.36-.48,.4-1.37,.25-1.93s-.61-1.21-1.15-1.49c-.58-.31-1.28-.46-1.93-.25s-1.08,.6-1.49,1.15h0Z"/><path class="cls-1" d="M52.05,29.19c-.04,.1-.08,.19-.12,.29-.13,.31,.02-.06,.07-.16-.11,.21-.19,.44-.29,.65-.18,.39-.36,.77-.55,1.15-.42,.82-.87,1.62-1.36,2.39-.23,.37-.47,.73-.72,1.09-.12,.18-.25,.36-.38,.53-.06,.08-.15,.28-.25,.33,.09-.04,.31-.39,.09-.12-.58,.73-1.19,1.42-1.85,2.08-.92,.93-1,2.62,0,3.54s2.55,.99,3.54,0c2.95-2.97,5.09-6.57,6.64-10.44,.23-.56,.04-1.43-.25-1.93s-.9-1.01-1.49-1.15c-.64-.15-1.36-.11-1.93,.25s-.89,.86-1.15,1.49h0Z"/><path class="cls-5" d="M169.71,137.69c.84,2.27,1.25,4.73,1.63,7.12,.05,.35,.11,.69,.16,1.04,.03,.18,.05,.35,.07,.53,.06,.43-.06-.46,.02,.13,.1,.78,.19,1.56,.27,2.34,.15,1.53,.27,3.07,.33,4.61s.06,3.04-.06,4.56c-.11,1.31,1.22,2.56,2.5,2.5,1.44-.06,2.39-1.1,2.5-2.5,.23-2.87,.06-5.77-.21-8.63-.3-3.16-.73-6.32-1.39-9.43-.26-1.22-.55-2.44-.99-3.6s-1.71-2.19-3.08-1.75c-1.2,.39-2.23,1.76-1.75,3.08h0Z"/><path class="cls-5" d="M169.71,190.69c.05,.22,.08,.44,.12,.66,.04,.28,.03,.22-.02-.17,.01,.11,.03,.22,.04,.33,.04,.39,.06,.77,.06,1.16,0,.44-.01,.88-.05,1.32,0,.09-.02,.76-.03,.32s-.04,.2-.06,.31c-.15,.79-.38,1.55-.66,2.31-.1,.25-.08,.2,.07-.16-.04,.1-.08,.19-.13,.28-.08,.16-.16,.32-.24,.48-.18,.34-.37,.66-.58,.98-.11,.16-.26,.32-.35,.49,.3-.57,.16-.21,.02-.05-.25,.29-.52,.57-.81,.82-.07,.06-.14,.12-.22,.19-.2,.16-.15,.12,.17-.13-.12,.05-.24,.17-.35,.24-.31,.2-.68,.33-.99,.54,.54-.36,.29-.12,.07-.05-.18,.06-.36,.12-.54,.16s-.4,.05-.56,.12c.43-.05,.5-.06,.23-.03-.1,0-.2,.02-.29,.02-.36,.02-.71,0-1.06-.03-.27-.03-.21-.02,.19,.03-.11-.02-.21-.04-.32-.06-.22-.04-.43-.1-.65-.16-1.26-.35-2.78,.43-3.08,1.75s.4,2.7,1.75,3.08c3.3,.91,6.62,.13,9.18-2.13,2.26-2,3.64-5.05,4.06-8,.29-2.01,.25-3.95-.16-5.95-.27-1.28-1.85-2.14-3.08-1.75-1.36,.44-2.03,1.7-1.75,3.08h0Z"/><path class="cls-5" d="M124.36,271.75c-5.32,6.74-10.8,13.36-16.76,19.54-1.51,1.57-3.05,3.1-4.62,4.61-.79,.76-1.59,1.51-2.4,2.25-.09,.09-1.25,1.07-1.22,1.11-.01-.02,.49-.38,.06-.05-.15,.12-.31,.23-.47,.35-2.63,1.95-5.37,3.78-7.78,6-2.9,2.67-5.2,5.95-5.54,9.97-.11,1.31,1.23,2.56,2.5,2.5,1.45-.06,2.38-1.1,2.5-2.5,0-.06,0-.19,.02-.23,.15-.27-.1,.51-.03,.2,.03-.15,.05-.31,.09-.46,.08-.38,.19-.75,.32-1.12,.04-.12,.16-.31,.17-.43,0,.05-.26,.55-.06,.17,.04-.07,.07-.14,.1-.21,.16-.33,.34-.65,.53-.97,.18-.3,.38-.59,.58-.87,0,0,.16-.25,.19-.26,.02,0-.33,.39-.14,.18,.15-.16,.28-.34,.42-.51,.49-.57,1.02-1.12,1.57-1.64,.58-.55,1.19-1.08,1.8-1.58,.29-.24,.58-.47,.87-.7,.27-.21-.37,.28-.1,.08,.07-.05,.14-.1,.2-.16,.18-.14,.36-.27,.54-.41,1.18-.88,2.39-1.73,3.58-2.6,3.31-2.44,6.24-5.48,9.11-8.42s5.78-6.15,8.53-9.35c3.07-3.58,6.04-7.24,8.96-10.94,.43-.54,.73-1.05,.73-1.77,0-.61-.27-1.35-.73-1.77-.9-.83-2.67-1.1-3.54,0h0Z"/><path class="cls-5" d="M92.71,331.86c-.39,2.41-.1,4.9,.11,7.31,.31,3.64,.71,7.28,1.06,10.92,.39,4.05,.74,8.1,.9,12.16,.07,1.79,.11,3.59,.06,5.39-.02,.83-.06,1.66-.12,2.48-.03,.35-.06,.7-.1,1.04-.02,.15-.04,.3-.05,.45,.11-1.03,.03-.22-.01,.03-.11,.67-.24,1.33-.44,1.97-.05,.15-.1,.3-.15,.45-.1,.26-.38,.63,.09-.18-.13,.22-.22,.46-.35,.67-.19,.3-.46,.38,.15-.16-.07,.06-.13,.15-.2,.22-.08,.08-.17,.14-.24,.22,.53-.6,.51-.36,.24-.21-.47,.27,.65-.19,.28-.1-.08,.02-.18,.04-.26,.07-.34,.12,.85-.01,.3-.05-.11,0-.22,0-.34-.02-1.3-.15-2.56,1.26-2.5,2.5,.07,1.48,1.1,2.34,2.5,2.5,3.01,.35,4.79-2.58,5.44-5.07,.83-3.19,.84-6.63,.78-9.9-.14-7.97-1.15-15.9-1.89-23.83-.15-1.65-.3-3.31-.38-4.96-.03-.62-.05-1.25-.05-1.87,0-.24,0-.47,.02-.71,0-.11,.02-.22,.03-.33,.03-.48-.12,.8-.05,.34,.21-1.29-.33-2.75-1.75-3.08-1.2-.27-2.85,.37-3.08,1.75h0Z"/><path class="cls-5" d="M49.12,323.02c1.2,15.01,2.6,30,4.17,44.97,.79,7.54,1.63,15.08,2.51,22.61,.39,3.37,.73,6.76,1.27,10.11,.1,.65,.21,1.3,.31,1.95,.06,.37,.12,.74,.17,1.11,.03,.19,.06,.38,.08,.56,.02,.15,.12,.74,.01,.09,.24,1.43,.33,2.92,.34,4.37,0,.4,0,.79-.03,1.19-.02,.31,.04,.87-.1,1.15l.04-.32c-.02,.11-.04,.23-.06,.34-.03,.17-.06,.33-.1,.5-.08,.37-.19,.74-.31,1.1,0-.02-.12,.29-.11,.3,.21-.5,.17-.41-.12,.29-.04,.1-.07,.2-.11,.29l.13-.31c-.04,.1-.09,.19-.13,.29-.08,.17-.16,.34-.25,.5-.16,.31-.33,.6-.52,.9-.08,.13-.17,.26-.26,.39-.04,.06-.09,.13-.14,.19-.11,.15-.06,.08,.16-.2-.25,.15-.48,.56-.69,.77-.07,.07-.14,.13-.21,.19-.5,.45,.32-.19-.02,.03-.11,.07-.21,.14-.33,.21-.09,.05-.59,.29-.14,.09,.43-.19,.06-.02-.04,0-.63,.09,.53,.05,.1,0-.06,0-.29-.03-.34,0,.28-.13,.63,.14,.22,0-.43-.14,.55,.32,.16,.07-.07-.04-.15-.08-.22-.13-.21-.15-.14-.1,.19,.14-.01-.04-.17-.16-.21-.2-.07-.07-.14-.15-.21-.23,.22,.3,.25,.33,.09,.11-.24-.4-.47-.78-.67-1.21-.56-1.19-2.36-1.58-3.42-.9-1.22,.79-1.49,2.15-.9,3.42,.75,1.61,1.93,3.05,3.64,3.66,1.42,.51,2.98,.23,4.26-.52s2.28-1.9,3.11-3.11c.33-.48,.62-.99,.87-1.52,.21-.43,.42-.88,.57-1.32l.06-.15c-.22,.5-.18,.41,.12-.29,.08-.2,.16-.4,.22-.6,.94-2.84,.76-6.02,.4-8.94-.2-1.65-.46-3.29-.72-4.93-.11-.67-.22-1.34-.31-2.01-.02-.17-.05-.72,0,.04,0-.1-.03-.2-.04-.3-.06-.51-.12-1.02-.18-1.53-1.87-15.62-3.56-31.26-5.05-46.92-.83-8.77-1.6-17.56-2.31-26.34-.1-1.3-1.08-2.56-2.5-2.5-1.27,.06-2.61,1.1-2.5,2.5h0Z"/><path class="cls-5" d="M31.86,305.86c-.19,.1-.39,.18-.59,.27l.6-.25c-1.31,.54-2.7,.85-4.09,1.04l.66-.09c-.94,.12-1.88,.19-2.82,.19-1.31,0-2.56,1.15-2.5,2.5s1.1,2.5,2.5,2.5c2.98,0,6.07-.52,8.76-1.84,1.18-.58,1.59-2.34,.9-3.42-.78-1.2-2.16-1.52-3.42-.9h0Z"/><path class="cls-5" d="M29.96,325.11c-1.03,.21-2.05,.41-3.09,.55l.66-.09c-1.27,.16-2.55,.22-3.82,.05l.66,.09c-.2-.03-.39-.06-.59-.1-.67-.13-1.32-.1-1.93,.25-.52,.3-1.01,.9-1.15,1.49-.28,1.23,.37,2.81,1.75,3.08,1.47,.28,2.93,.36,4.41,.21s2.95-.42,4.41-.71c.59-.12,1.2-.64,1.49-1.15,.31-.54,.45-1.33,.25-1.93-.44-1.36-1.7-2.02-3.08-1.75h0Z"/><path class="cls-5" d="M33.12,353.02c-2.08,0-4.14,.09-6.16,.59-.6,.15-1.19,.62-1.49,1.15s-.45,1.33-.25,1.93c.43,1.32,1.71,2.08,3.08,1.75,.56-.14,1.12-.25,1.68-.33l-.66,.09c1.27-.17,2.54-.17,3.82-.17,.64,0,1.31-.28,1.77-.73s.76-1.15,.73-1.77-.24-1.32-.73-1.77-1.09-.73-1.77-.73h0Z"/><path class="cls-5" d="M25.96,238.26c-.03,.06-.07,.11-.1,.17-.11,.23,.47-.52,.22-.29-.05,.04-.1,.09-.14,.14-.17,.19,.58-.38,.28-.21-.12,.06-.28,.13-.38,.21,.4-.3,.55-.22,.25-.11-.06,.02-.12,.04-.19,.06-.17,.05-.33,.09-.5,.13-.11,.02-.22,.04-.32,.06-.34,.07,.32-.04,.33-.04-.13,.08-.44,.05-.59,.06-.23,.02-.46,.03-.69,.03-.89,.02-1.79-.03-2.68-.11-.45-.04-.9-.09-1.35-.14-.22-.03-.44-.05-.65-.08-.31-.04,.64,.09,.22,.03-.12-.02-.25-.03-.37-.05-.69-.1-1.29-.12-1.93,.25-.52,.3-1.01,.9-1.15,1.49-.15,.64-.11,1.36,.25,1.93,.33,.51,.87,1.06,1.49,1.15,2.16,.31,4.36,.62,6.54,.52s4.68-.6,5.78-2.67c.61-1.15,.33-2.77-.9-3.42-1.16-.61-2.77-.34-3.42,.9h0Z"/><path class="cls-5" d="M27.96,216.61c-1.02,.2-2.04,.43-3.07,.57l.66-.09c-1.09,.15-2.17,.18-3.26,.04l.66,.09c-.22-.03-.45-.07-.67-.11-.67-.13-1.32-.1-1.93,.25-.52,.3-1.01,.9-1.15,1.49-.15,.64-.11,1.36,.25,1.93,.34,.52,.86,1.03,1.49,1.15,1.38,.27,2.77,.37,4.16,.21s2.78-.44,4.16-.71c.59-.12,1.2-.64,1.49-1.15,.31-.54,.45-1.33,.25-1.93-.44-1.36-1.7-2.02-3.08-1.75h0Z"/><path class="cls-5" d="M138.46,103.11c-3.24,1.07-6.64,1.52-10,2-.58,.08-1.22,.67-1.49,1.15-.31,.54-.45,1.33-.25,1.93s.57,1.19,1.15,1.49c.64,.34,1.22,.35,1.93,.25,3.36-.48,6.76-.93,10-2,1.24-.41,2.18-1.75,1.75-3.08-.4-1.24-1.75-2.18-3.08-1.75h0Z"/><path class="cls-5" d="M123.71,90.19c.02,.08,.03,.17,.04,.25l-.09-.66c.03,.23,.03,.46,0,.69l.09-.66c-.03,.21-.08,.41-.16,.6l.25-.6c-.08,.19-.19,.36-.31,.52l.39-.51c-.16,.2-.33,.37-.53,.52l.51-.39c-.35,.27-.74,.47-1.14,.65l.6-.25c-.93,.39-1.91,.6-2.9,.77-.58,.1-1.21,.66-1.49,1.15-.31,.54-.45,1.33-.25,1.93s.57,1.19,1.15,1.49l.6,.25c.44,.12,.89,.12,1.33,0,.75-.13,1.49-.28,2.22-.52,.79-.26,1.61-.57,2.29-1.05,.76-.54,1.48-1.18,1.87-2.04,.31-.69,.44-1.15,.51-1.92,.05-.52-.04-1.04-.14-1.55-.11-.59-.65-1.2-1.15-1.49-.54-.31-1.33-.45-1.93-.25s-1.19,.57-1.49,1.15c-.33,.62-.38,1.23-.25,1.93h0Z"/><path class="cls-5" d="M97.71,63.86c-.04,.16-.08,.32-.15,.48l.25-.6c-.07,.16-.16,.31-.27,.46l.39-.51c-.11,.13-.23,.25-.37,.36l.51-.39c-.19,.14-.39,.25-.6,.34l.6-.25c-.41,.16-.84,.25-1.28,.31l.66-.09c-1.6,.2-3.22,.06-4.83,.06-1.31,0-2.56,1.15-2.5,2.5s1.1,2.5,2.5,2.5c1.91,0,3.79,.12,5.68-.17s3.79-1.63,4.23-3.66c.14-.66,.09-1.34-.25-1.93-.3-.52-.9-1.01-1.49-1.15-1.26-.29-2.78,.38-3.08,1.75h0Z"/></g></svg>