<?xml version="1.0" encoding="UTF-8"?><svg id="Layer_1" xmlns="http://www.w3.org/2000/svg" viewBox="0 0 175.6 432.49"><defs><style>.cls-1{fill:#0080b7;}.cls-2{fill:#f6851f;}.cls-3{fill:#fded1f;}.cls-4{fill:#9a4092;}.cls-5{fill:#7fc242;}</style></defs><path class="cls-5" d="M122.57,210.05c-1.85,15.85-.66,31.81-.95,47.72-.32,17.49-.41,34.99-.52,52.48-.22,34.24,.9,68.58,1.98,102.8,.1,3.22,5.1,3.23,5,0-1.08-34.23-2.16-68.55-1.98-102.8,.09-16.9,.46-33.8,.48-50.7,.01-16.44-.91-33.14,1-49.5,.37-3.2-4.63-3.16-5,0h0Z"/><path class="cls-5" d="M142.73,203.79c-1.54-2.5-5.8-2.3-8.33-2.52-4.7-.39-9.55-.38-14.21,.33-11.39,1.75-18.33,8.73-22.44,19.26-4.61,11.8-3.96,25.59-4.33,38.02-.48,16.1-1.31,32.19-2.14,48.27-1.59,31.01,1.17,61.82,5.72,92.48,1.38,9.3,.95,23.83,10.72,28.85,7.09,3.65,18.67,5.68,26.12,2.22-1.01-.13-2.02-.26-3.03-.39,3.59,3.15,5.93-.86,7.18-4.1,1.16-3.02-3.68-4.31-4.82-1.33,.39,.63,.79,1.26,1.18,1.9-.92-.8-1.94-.9-3.03-.39-6.31,2.93-20.23,.45-24.52-5.18-2.91-3.83-2.97-9.46-3.62-14-.88-6.14-1.87-12.27-2.72-18.41-3.55-25.73-5.53-51.76-4.38-77.74,.57-12.88,1.32-25.75,1.85-38.63,.48-11.78,.43-23.62,1.49-35.37,.95-10.62,4.04-23.05,14.19-28.43,4.22-2.23,9.39-2.45,14.05-2.56,1.86-.04,3.71,.03,5.57,.13,1.16,.06,2.32,.17,3.47,.29,.8,.08,2.42,.96,1.72-.17,1.68,2.74,6.01,.23,4.32-2.52h0Z"/><path class="cls-5" d="M138.66,216.21c7.48,31.3,3.32,63.58,2.44,95.34-.92,33.15,2.02,66.32,1.47,99.49-.05,3.23,4.95,3.22,5,0,.55-33.17-2.25-66.33-1.47-99.49,.76-32.28,4.98-64.85-2.62-96.67-.75-3.14-5.57-1.81-4.82,1.33h0Z"/><path class="cls-5" d="M146.74,208.96c4.82-1.23,8.33-3.33,12.86,.28,3.5,2.79,5.7,7.87,7.23,11.94,3.78,10.05,4.06,21.1,3.62,31.7-.45,10.76-2.04,21.46-3.22,32.16-1.22,11.1-1.44,22.13-.93,33.28,1.09,23.81,4.75,47.53,2.47,71.38-.67,7.02-2.97,13.86-6.24,20.08-1.56,2.97-3.5,5.68-5.97,7.94-2.96,2.71-5.34,1.61-8.8,1.88-1.71,.13-3.35,2.09-2.16,3.76,.1,.15,.21,.29,.31,.44,1.86,2.6,6.2,.11,4.32-2.52-.1-.15-.21-.29-.31-.44-.72,1.25-1.44,2.51-2.16,3.76,3.3-.25,5.55,.49,8.81-.92,3.05-1.32,5.36-4.12,7.33-6.68,4.69-6.09,7.52-14.13,9.09-21.58,2.42-11.47,1.77-23.92,1.21-35.54-.7-14.5-2.32-28.94-2.98-43.45-1.16-25.3,5.25-50.06,4.28-75.29-.4-10.54-2.7-20.98-8.07-30.12-1.97-3.37-4.9-6.59-8.6-8.04-4.98-1.94-8.57-.09-13.42,1.15-3.12,.8-1.8,5.62,1.33,4.82h0Z"/><path class="cls-5" d="M88.66,246.39c0,.05-.02,.11-.03,.16l1.75-1.75c-3.2,1.14-7.39-.7-10.88,.49-3.01,1.03-4.03,4.5-4.61,7.28-1.12,5.34-2.31,17.1,2.42,21.24,2.41,2.12,5.96-1.41,3.54-3.54-3.14-2.75-1.74-12.82-1.13-16.38,.6-3.54,1.55-4.27,5.14-4.28,2.13,0,4.8,.74,6.86,0,.77-.28,1.59-.87,1.75-1.75,0-.05,.02-.11,.03-.16,.55-3.15-4.27-4.5-4.82-1.33h0Z"/><path class="cls-5" d="M29.91,208.31c17.13,30.56,36.14,60.54,60.39,86.01,2.23,2.34,5.76-1.2,3.54-3.54-23.96-25.16-42.68-54.8-59.61-84.99-1.58-2.81-5.9-.29-4.32,2.52h0Z"/><path class="cls-5" d="M14.91,213.31c16.72,26.09,34.34,51.76,54.89,75.01,2.14,2.42,5.66-1.13,3.54-3.54-20.27-22.93-37.62-48.26-54.11-73.99-1.73-2.7-6.06-.2-4.32,2.52h0Z"/><path class="cls-5" d="M18.41,229.31c16.29,27.07,30.5,55.84,52.39,79.01,2.22,2.35,5.75-1.19,3.54-3.54-21.58-22.85-35.55-51.3-51.61-77.99-1.66-2.76-5.98-.25-4.32,2.52h0Z"/><path class="cls-5" d="M70.07,296.55c2.46,20.25,1.04,40.68,.5,61-.19,7.15-1.75,14.38,4.24,19.66,4.92,4.34,12.45,3.86,18.42,2.75,3.17-.59,1.82-5.4-1.33-4.82-7.19,1.33-16.25,.68-16.77-8.53-.41-7.17,.6-14.77,.84-21.96,.55-16.04,1.04-32.13-.91-48.1-.38-3.16-5.39-3.2-5,0h0Z"/><path class="cls-5" d="M152.91,223.29c-.17,.37,.36-.2-.22,.1-.37,.19-.95,.29-1.36,.34-1.12,.14-2.44,.14-3.5-.34-1.24-.56-2.68-.37-3.42,.9-.63,1.08-.34,2.86,.9,3.42,2.27,1.03,4.66,1.29,7.11,.88,1.75-.3,3.99-1.02,4.81-2.77,1.34-2.91-2.96-5.45-4.32-2.52h0Z"/><path class="cls-5" d="M158.07,241.05h-10c-3.22,0-3.22,5,0,5h10c3.22,0,3.22-5,0-5h0Z"/><path class="cls-5" d="M158.41,258.14c-2.33,.67-5.81,.36-8.17-.5-3.04-1.11-4.33,3.73-1.33,4.82,3.13,1.14,7.6,1.42,10.83,.5,3.09-.89,1.78-5.71-1.33-4.82h0Z"/><path class="cls-5" d="M156.41,285.14c-2.22,.71-4.89,1.43-7.07,.25-2.84-1.53-5.36,2.79-2.52,4.32,3.44,1.85,7.33,1.4,10.93,.25,3.06-.98,1.75-5.8-1.33-4.82h0Z"/><path class="cls-5" d="M156.81,304.89c-2.83,1.68-6.62,.7-9.74,.66-3.23-.05-3.22,4.95,0,5,4.19,.06,8.46,.92,12.26-1.34,2.77-1.64,.26-5.97-2.52-4.32h0Z"/><path class="cls-5" d="M151.81,325.78c.37-.3,.82-.42,.14-.24-.14,.04-.82,.16-.72,.15-.84,.1-1.82,.1-2.5-.05-1.33-.29-2.7,.38-3.08,1.75-.35,1.26,.42,2.78,1.75,3.08,2.5,.55,5.85,.54,7.93-1.14,1.06-.86,.89-2.65,0-3.54-1.04-1.04-2.48-.86-3.54,0h0Z"/><path class="cls-5" d="M156.41,353.64c-2.1,.8-4.41,1.39-6.67,1-3.15-.54-4.5,4.28-1.33,4.82,3.17,.54,6.32,.15,9.33-1,1.27-.49,2.13-1.67,1.75-3.08-.34-1.22-1.8-2.23-3.08-1.75h0Z"/><path class="cls-5" d="M154.91,375.14c-2.61,.4-5.15,.28-7.67-.5-3.09-.96-4.4,3.87-1.33,4.82,3.42,1.06,6.82,1.04,10.33,.5,1.35-.21,2.08-1.88,1.75-3.08-.39-1.43-1.73-1.95-3.08-1.75h0Z"/><path class="cls-5" d="M153.31,396.39c-1.79,1.27-3.5,1.39-5.57,.75-3.09-.95-4.4,3.88-1.33,4.82,3.23,.99,6.62,.74,9.43-1.25,2.61-1.85,.11-6.19-2.52-4.32h0Z"/><path class="cls-5" d="M153.57,405.55c-.56,0-1.13,.07-1.69,.12-.31,.03-.61,.05-.92,.08-.1,0-.19,.02-.29,.02-.33,.02-.35-.12,.47,.09,.37,.21,.74,.43,1.1,.64,0,0,0,0,0,0v3.54c-.79,.79-1.49,.7-.78,.56,.26-.05,.51-.09,.77-.13,1.35-.23,2.08-1.86,1.75-3.08-.39-1.41-1.73-1.97-3.08-1.75-.81,.14-1.58,.23-2.2,.86-.47,.47-.73,1.11-.73,1.77,0,.72,.3,1.23,.73,1.77,.72,.9,1.91,.75,2.9,.66,.65-.06,1.31-.14,1.96-.14,1.36-.01,2.5-1.13,2.5-2.5s-1.14-2.51-2.5-2.5h0Z"/><path class="cls-5" d="M11.57,115.55c-.41,4.29-1.78,8.64-2.78,12.84-1.7,7.13-3.37,14.26-4.81,21.45-2.81,14.05-5.78,29.63-2.64,43.87,2.96,13.4,14.42,16.6,26.31,11.78,8.53-3.46,18.15-10.38,21.33-19.41,2.12-6.03,.74-18.26-7.49-19.05-5.77-.56-11.87,2.67-16.93,5.06-2.28,1.08-9.9,5.92-3.65,7.88,3.08,.97,4.39-3.86,1.33-4.82,.22,.13,.44,.26,.66,.39,.21,.81,.43,1.62,.64,2.43-.14,.71,2.02-.8,2.68-1.14,1.86-.95,3.8-1.79,5.73-2.59,2.52-1.05,7.9-3.71,10.27-1.66,3.89,3.37,3.23,9.67,1.2,13.7-2.52,5-7.36,8.78-11.99,11.7-5.24,3.3-13.47,7.02-19.58,3.75-4.46-2.38-5.76-8.47-6.33-13.03-1.73-13.94,1.38-28.6,4.25-42.19,2.15-10.2,5.81-20.55,6.8-30.95,.31-3.21-4.7-3.18-5,0h0Z"/><path class="cls-5" d="M37.07,127.55c-1.85,14.19-9.05,30.4-4.41,44.66,.99,3.05,5.82,1.75,4.82-1.33-2.33-7.15-.75-15.12,.6-22.31,1.31-7.02,3.07-13.94,3.99-21.03,.42-3.19-4.59-3.15-5,0h0Z"/><path class="cls-5" d="M33.57,120.55c-4.94-.59-10.04-1.03-15-.5-3.17,.34-3.2,5.34,0,5,4.96-.53,10.06-.09,15,.5,3.2,.38,3.16-4.62,0-5h0Z"/><path class="cls-5" d="M126.31,.78c-7.28,7.85-19.72,9.25-29.02,13.87-12.02,5.96-22.82,14.12-32.78,23.05-10.08,9.04-19.88,18.91-27.91,29.84-8.12,11.05-13.96,23.6-20.19,35.76-1.47,2.86,2.85,5.39,4.32,2.52,6-11.71,11.72-23.58,19.23-34.42,7.76-11.2,18.04-21.01,28.08-30.16,10.04-9.15,21.12-16.98,33.29-23.02,9.41-4.67,21.04-5.85,28.51-13.89,2.19-2.36-1.34-5.9-3.54-3.54h0Z"/><path class="cls-5" d="M126.31,11.89c-24.47,15.25-52.47,24.55-70.35,48.42-6.03,8.05-11.9,16.24-17.46,24.62-1.63,2.46-10.78,13.69-6.69,16.88,2.51,1.96,6.08-1.55,3.54-3.54,1.2,.93,.19,1.73,1.03-.09,.64-1.39,1.43-2.71,2.2-4.02,2.19-3.73,4.63-7.32,7.06-10.9,4.98-7.31,10.17-14.48,15.48-21.55,16.83-22.39,44.76-31.21,67.72-45.52,2.73-1.7,.22-6.03-2.52-4.32h0Z"/><path class="cls-5" d="M151.81,38.78c-4.8,4.89-10.98,8.17-16.91,11.48-6.32,3.52-12.27,7.19-18.1,11.48-12.76,9.38-26.33,18.12-37.94,28.96-5.71,5.33-10.92,11.2-16.51,16.65-3.39,3.31-6.87,6.54-10.52,9.56-1.44,1.19-2.95,2.29-4.53,3.27-.62,.39-2.59,.91-1.95,1.21-2.91-1.34-5.45,2.97-2.52,4.32,5.69,2.62,13.25-5.76,16.91-9.04,7.33-6.56,14.06-13.75,20.96-20.75,10.93-11.08,24.59-19.65,37.13-28.76,6.37-4.63,12.72-8.76,19.61-12.58,6.31-3.5,12.82-7.06,17.92-12.26,2.26-2.3-1.27-5.84-3.54-3.54h0Z"/><path class="cls-5" d="M126.81,32.82c4.77,4.23,10.24,7.85,14.11,12.99,1.91,2.54,6.26,.06,4.32-2.52-4.18-5.55-9.75-9.44-14.89-14.01-2.4-2.13-5.95,1.39-3.54,3.54h0Z"/><path class="cls-5" d="M116.41,38.31c3.6,5.64,9.66,8.92,13.89,14.01,2.06,2.48,5.58-1.08,3.54-3.54-3.93-4.72-9.78-7.78-13.11-12.99-1.73-2.71-6.06-.2-4.32,2.52h0Z"/><path class="cls-5" d="M105.91,52.46c4.93,1.66,8.44,6.2,12.4,9.36,2.49,1.99,6.06-1.52,3.54-3.54-4.73-3.77-8.71-8.66-14.6-10.64-3.06-1.03-4.37,3.8-1.33,4.82h0Z"/><path class="cls-5" d="M87.91,59.31c4.3,5.89,11.94,7.81,16.89,13.01,2.23,2.34,5.76-1.2,3.54-3.54-2.25-2.36-4.96-4.15-7.71-5.85-2.84-1.76-6.37-3.38-8.39-6.14-1.88-2.58-6.22-.08-4.32,2.52h0Z"/><path class="cls-5" d="M74.31,72.71c4.78,3.24,11.62,5.31,15.1,10.1,1.88,2.58,6.22,.09,4.32-2.52-4.16-5.72-11.22-8.05-16.9-11.9-2.68-1.81-5.18,2.52-2.52,4.32h0Z"/><path class="cls-5" d="M58.81,80.71c4.36,3.35,9.04,6.26,12.99,10.11,2.31,2.25,5.85-1.28,3.54-3.54-4.26-4.14-9.31-7.29-14.01-10.89-2.56-1.96-5.04,2.38-2.52,4.32h0Z"/><path class="cls-5" d="M50.81,90.32c3.69,3.55,8.56,5.69,12,9.5,2.16,2.4,5.69-1.15,3.54-3.54-3.45-3.83-8.31-5.95-12-9.5-2.32-2.23-5.86,1.3-3.54,3.54h0Z"/><path class="cls-5" d="M46.31,101.71c3.44,2.43,7.06,4.57,10.5,7,2.64,1.86,5.14-2.47,2.52-4.32-3.44-2.43-7.06-4.57-10.5-7-2.64-1.86-5.14,2.47-2.52,4.32h0Z"/><path class="cls-2" d="M126.07,217.05c.51,37.88,2.52,75.71,5,113.5,.21,3.2,5.21,3.22,5,0-2.48-37.79-4.49-75.62-5-113.5-.04-3.22-5.04-3.23-5,0h0Z"/><path class="cls-2" d="M110.07,228.05c0,24.4-.65,48.79-.1,73.19,.27,11.99,.8,23.93,.68,35.92-.06,6.16-.08,12.32,.19,18.48,.22,5.04-.64,10.89,2.57,15.17,1.91,2.55,6.25,.06,4.32-2.52-1.65-2.21-1.73-4.46-1.68-7.12,.05-2.81-.23-5.63-.32-8.45-.2-5.83-.12-11.66-.06-17.49,.12-11.68-.46-23.31-.72-34.98-.54-24.06,.12-48.13,.12-72.2,0-3.22-5-3.22-5,0h0Z"/><path class="cls-2" d="M158.07,274.55c-.81,.02-1.68,.23-2.48,.38-.71,.13-1.61,.2-2.24,.6-1.02,.64-1.35,1.68-1.15,2.82h0c.14,.79,.97,1.6,1.75,1.75,.78,.15,1.51-.01,2.28-.14,1.35-.22,2.08-1.87,1.75-3.08-.39-1.41-1.73-1.97-3.08-1.75-.21,.03-.42,.07-.63,.1-.44,.07,.71-.09,.43-.06-.25,.03-.36-.09,.58,.09,.58,.58,1.16,1.16,1.75,1.75,0,0,0,0,0,0-.38,.94-.77,1.88-1.15,2.82-.62,.39-.76,.28-.43,.21,.12-.03,.23-.05,.35-.08,.35-.07,.69-.14,1.04-.21,.37-.07,.74-.14,1.11-.2,.15-.02,.29-.05,.44-.07,.34-.05-.82,.1-.44,.06,.04,0,.07,0,.11,0,1.36-.03,2.5-1.11,2.5-2.5s-1.14-2.53-2.5-2.5h0Z"/><path class="cls-2" d="M161.07,265.05c-2.97-.03-5.91-.43-8.84-.91-3.15-.52-4.5,4.3-1.33,4.82,3.36,.55,6.75,1.05,10.16,1.09,3.23,.04,3.22-4.96,0-5h0Z"/><path class="cls-2" d="M157.57,237.55l-.64-.09c.22-1.64,.44-3.27,.66-4.91-2.38,.02-5.08-.11-7.29,.84-1.25,.54-1.52,2.35-.9,3.42,.75,1.28,2.17,1.44,3.42,.9-.76,.33-.3,.15-.09,.1,.68-.15-.19,0,.32-.05,.65-.07,1.3-.11,1.95-.14,.86-.04,1.73-.06,2.59-.07,2.74-.02,3.52-4.44,.66-4.91-.27-.04-.46-.09-.69-.09-3.22,0-3.22,5,0,5h0Z"/><path class="cls-2" d="M158.41,249.14c-2.16,.53-4.34,.97-6.5,1.5-3.13,.77-1.8,5.59,1.33,4.82,2.16-.53,4.34-.97,6.5-1.5,3.13-.77,1.8-5.59-1.33-4.82h0Z"/><path class="cls-2" d="M149.57,216.05h-3c-1.36,0-2.5,1.14-2.5,2.5s1.14,2.5,2.5,2.5h3c1.36,0,2.5-1.14,2.5-2.5s-1.14-2.5-2.5-2.5h0Z"/><path class="cls-2" d="M154.07,340.55c-1.4,.04-2.91,.51-4.25,.89-1.52,.43-2.96,1.52-2.46,3.35,.5,1.81,2.19,1.95,3.7,1.76,1.35-.17,2.5-1.01,2.5-2.5,0-1.24-1.14-2.67-2.5-2.5-.29,.04-.58,.07-.87,.09-.08,0-.17,0-.25,.01-.03,0-.05,0-.08,0,.64,0,1.2,.24,1.68,.71,.24,.59,.49,1.18,.73,1.77,0,0,0,0,0,0-.11,.42-.23,.84-.34,1.26-.59,1.11-1.23,1.05-.82,.84-.84,.43-.64,.26-.4,.17,.17-.06,.34-.11,.51-.15,.44-.12,.89-.23,1.33-.34,.45-.11,.9-.21,1.35-.3,.16-.03,.32-.06,.48-.09,.59-.1-.68,.05-.32,.04,1.36-.04,2.5-1.11,2.5-2.5s-1.14-2.54-2.5-2.5h0Z"/><path class="cls-2" d="M150.81,368.78c-.51,.47,.38-.21-.24,.16-.26,.13-.29,.15-.09,.04-.16,.05-.33,.09-.5,.13,.45-.1-.34-.04-.38-.04,.23,.01,.19-.01-.12-.08,.18,.07,.13,.03-.14-.11-2.77-1.67-5.28,2.65-2.52,4.32,2.42,1.46,5.49,1,7.53-.89,1-.93,.94-2.6,0-3.54-.99-.99-2.54-.92-3.54,0h0Z"/><path class="cls-2" d="M156.57,389.55c-.27,0-.53-.03-.8-.06,.27,.03,.25,.03-.07-.02-.27-.04-.54-.08-.8-.12-.94-.14-1.88-.28-2.83-.3-1.36-.02-2.5,1.16-2.5,2.5s1.14,2.48,2.5,2.5c1.49,.03,2.8,.46,4.5,.5,1.36,.03,2.5-1.16,2.5-2.5s-1.14-2.47-2.5-2.5h0Z"/><path class="cls-2" d="M127.41,414.29c-.91,2.12-2.27,5.04-3.9,6.29-1.29,.99-1.8,.86-2.99,.17-3.82-2.22-6.42-8.35-8.28-12.48-4.56-10.1-7.84-21.07-10.26-31.88-.7-3.15-5.52-1.81-4.82,1.33,2.7,12.08,6.49,24.31,11.88,35.46,2.32,4.81,5.39,10.56,10.61,12.66,5.97,2.39,10.16-4.57,12.08-9.02,1.26-2.93-3.04-5.48-4.32-2.52h0Z"/><path class="cls-2" d="M78.07,305.55c.02,11.64,1.33,23.15,1.94,34.75,.23,4.28,.44,8.56,.83,12.83,.2,2.27,.05,6.5,1.97,8.19,2.41,2.12,5.96-1.4,3.54-3.54,.27,.23,.36,.76,.16,.06-.14-.49-.22-1-.3-1.5-.26-1.57-.37-3.17-.5-4.76-.34-4.11-.53-8.23-.75-12.35-.59-11.25-1.86-22.4-1.88-33.69,0-3.22-5.01-3.22-5,0h0Z"/><path class="cls-2" d="M87.24,251.14c-3.45-.59-3.67,3.03-3.76,5.49-.11,3.14,.08,6.28,.1,9.42,.02,3.22,5.02,3.23,5,0-.01-2.09-.1-4.19-.12-6.28-.01-1.2,0-2.4,.04-3.6,.02-.41,.05-.81,.08-1.22,.08-.9,.67-.09-.83,.75-.64,.08-1.28,.17-1.93,.25,.03,0,.06,.01,.09,.02,3.15,.54,4.5-4.28,1.33-4.82h0Z"/><path class="cls-2" d="M24.81,217.82c14.13,12.63,25,29.75,32.61,46.99,1.3,2.94,5.61,.4,4.32-2.52-7.76-17.6-18.97-35.12-33.39-48.01-2.4-2.14-5.94,1.38-3.54,3.54h0Z"/><path class="cls-2" d="M15.66,141.71c2.22,6.77,.23,14.39-1.46,21.07-1.79,7.07-4.16,14.02-5.13,21.27-.76,5.7,.33,12.73,6.51,14.79,6.44,2.15,12.67-4.01,16.14-8.53,1.97-2.56-2.38-5.04-4.32-2.52-1.98,2.57-7.71,8.79-11.51,5.72-4.06-3.28-1.61-11.3-.61-15.45,1.59-6.59,3.69-13.04,5.07-19.69,1.21-5.83,2.02-12.2,.13-17.98-1-3.05-5.83-1.74-4.82,1.33h0Z"/><path class="cls-1" d="M107.98,334.39c-.18-.42-.32-.85-.41-1.3-.41-1.65-2.27-2.2-3.67-1.49-4.04,2.02-3.95,11.11-4.19,14.97-.45,7.3,.29,14.66,1.28,21.88,.91,6.63,2.5,13.07,4.26,19.51,1.64,6.02,5.65,8.6,11.65,9.5,3.15,.47,4.51-4.34,1.33-4.82-6.39-.96-7.35-3.56-9.05-9.25-1.45-4.85-2.38-9.87-3.17-14.87-.93-5.91-1.38-11.9-1.41-17.88-.02-2.78,.07-13.85,1.82-14.73-1.22-.5-2.45-1-3.67-1.49,.09,.45,.23,.88,.41,1.3,1.1,3,5.94,1.7,4.82-1.33h0Z"/><path class="cls-1" d="M131.16,346.21c5.88,20.27,5.52,41.52,7.91,62.34,.36,3.16,5.37,3.2,5,0-2.44-21.25-2.09-42.96-8.09-63.66-.9-3.09-5.72-1.77-4.82,1.33h0Z"/><path class="cls-1" d="M154.16,317.39c.11-.19,.22-.38,.33-.57,.26-.16,.26-.17,.01-.02,.26-.11,.24-.12-.04-.03,.26-.03,.23-.03-.09-.01-.51,.02-1.05-.12-1.54-.36-1.23-.58-2.69-.35-3.42,.9-.64,1.1-.34,2.84,.9,3.42,3.09,1.46,7.16,1.67,8.67-1.99,.52-1.26-.55-2.75-1.75-3.08-1.44-.4-2.56,.49-3.08,1.75h0Z"/><path class="cls-1" d="M152.57,295.55c.02-.73,.38-1.31,1.06-1.76,.59-.41,1.01-.32,1.51-.23-.05-.01-.11-.03-.16-.04-.38-.12,.64,.29,.28,.12-.15-.07-.3-.15-.44-.25-1.14-.75-2.76-.23-3.42,.9-.72,1.22-.24,2.67,.9,3.42,.47,.31,1.03,.58,1.58,.69,.78,.15,1.63,.15,2.31-.33,.89-.62,1.3-1.44,1.36-2.52,.08-1.36-1.2-2.5-2.5-2.5-1.42,0-2.42,1.14-2.5,2.5h0Z"/><path class="cls-1" d="M155.91,271.64c-2,.45-4.17,.37-6.17,0-3.15-.58-4.5,4.23-1.33,4.82,2.92,.54,5.92,.66,8.83,0,3.14-.71,1.81-5.54-1.33-4.82h0Z"/><path class="cls-1" d="M152.81,233.71c.24,.16,.2,.12-.13-.12-.34-.38-.51-.83-.51-1.36,.03-.81,.34-1.39,.95-1.75-.14,.1-.55,.26,.14-.03-.48,.19-1,.29-1.5,.38-.13,.02-.99,.14-.3,.05-.31,.04-.63,.07-.95,.1-.48,.04-.96,.07-1.44,.07-3.22,.02-3.23,5.02,0,5,1.73-.01,3.58-.19,5.24-.68,1.25-.37,2.28-1.06,2.74-2.33,.55-1.51-.52-2.89-1.72-3.65-1.15-.73-2.75-.24-3.42,.9-.71,1.21-.25,2.69,.9,3.42h0Z"/><path class="cls-1" d="M152.66,214.71c5.35,15.89,11.79,31.41,12.91,48.34,.21,3.2,5.21,3.22,5,0-1.16-17.41-7.58-33.3-13.09-49.66-1.02-3.04-5.85-1.74-4.82,1.33h0Z"/><path class="cls-1" d="M35.31,108.21c3.07,1.83,6.21,3.57,9.6,4.75,3.05,1.07,4.35-3.77,1.33-4.82-2.97-1.04-5.71-2.64-8.4-4.25-2.77-1.66-5.29,2.67-2.52,4.32h0Z"/><path class="cls-1" d="M49.91,93.81c2.27,3.47,6.29,5.58,9.9,7.4,2.87,1.45,5.4-2.87,2.52-4.32-2.73-1.37-6.37-2.96-8.1-5.6-1.76-2.69-6.09-.18-4.32,2.52h0Z"/><path class="cls-1" d="M92.81,55.82c3.11,3.94,7.89,6.06,11,10,2,2.53,5.51-1.03,3.54-3.54-3.11-3.94-7.89-6.06-11-10-2-2.53-5.51,1.03-3.54,3.54h0Z"/><path class="cls-1" d="M111.91,44.96c3.19,1,5.69,3.4,8.4,5.25,2.67,1.82,5.17-2.51,2.52-4.32-3.14-2.14-5.91-4.59-9.6-5.75-3.09-.97-4.39,3.86-1.33,4.82h0Z"/><path class="cls-1" d="M29.07,135.05c-2.21-.15-2.15-2.62-2.08-1,.03,.85-.03,1.72-.08,2.57-.14,2.41-.42,4.81-.68,7.2-.42,3.89-1.08,7.81-1.16,11.73-.06,3.23,4.94,3.22,5,0,.1-5.19,1.04-10.39,1.55-15.55,.27-2.73,1.82-9.65-2.55-9.95-3.22-.22-3.2,4.78,0,5h0Z"/><path class="cls-1" d="M29.31,180.82c1.31,1.09,3.04,2.45,3.21,4.29,.17,1.93-1.92,3.57-3.21,4.67-2.45,2.1,1.1,5.62,3.54,3.54,2.53-2.17,4.57-4.75,4.67-8.21,.09-3.2-2.39-5.93-4.67-7.83-2.46-2.05-6.01,1.47-3.54,3.54h0Z"/><path class="cls-1" d="M53.41,277.81c4.39,6.02,8.91,11.93,14.39,17.01,2.36,2.19,5.9-1.34,3.54-3.54-5.17-4.79-9.47-10.31-13.61-15.99-1.88-2.58-6.22-.09-4.32,2.52h0Z"/><path class="cls-3" d="M82.41,70.05c4.29-.41,7.45,3.15,10.23,5.93,2.28,2.28,5.82-1.25,3.54-3.54-3.72-3.71-8.09-7.94-13.77-7.4-3.18,.3-3.21,5.3,0,5h0Z"/><path class="cls-3" d="M59.97,76.65c4.1,3.45,7.88,7.24,11.33,11.33,2.08,2.47,5.6-1.09,3.54-3.54-3.45-4.1-7.24-7.88-11.33-11.33-2.45-2.06-6.01,1.46-3.54,3.54h0Z"/><path class="cls-3" d="M41.97,105.32c2.64,3.26,5.58,6.18,9.17,8.39,2.75,1.69,5.26-2.63,2.52-4.32-3.22-1.98-5.79-4.68-8.16-7.61-.86-1.06-2.65-.89-3.54,0-1.04,1.04-.86,2.48,0,3.54h0Z"/><path class="cls-3" d="M47.81,96.38c3.32,2.03,6.4,4.48,10,6,1.26,.53,2.67,.39,3.42-.9,.62-1.06,.36-2.89-.9-3.42-3.6-1.52-6.68-3.97-10-6-2.76-1.69-5.27,2.64-2.52,4.32h0Z"/><path class="cls-3" d="M20.92,133.48c2.79,4.26,1.62,10.99,1.21,15.74-.51,6.03-1.67,12.28-.89,18.33,.41,3.15,5.41,3.19,5,0-.81-6.26,.41-12.76,.94-19,.47-5.55,1.28-12.66-1.95-17.59-1.76-2.68-6.09-.18-4.32,2.52h0Z"/><path class="cls-3" d="M60.25,268.15c3.55,5.66,8.06,10.53,12.74,15.27,4.27,4.33,9.35,8.69,11.74,14.43,1.51,3.62,1.06,7.37,.58,11.15-.67,5.35-.73,10.53,.02,15.88,.45,3.18,5.26,1.82,4.82-1.33-.73-5.21-.37-10.32,.28-15.52,.49-3.93,.56-7.76-.88-11.52-2.16-5.64-6.54-10.05-10.69-14.27-5.15-5.24-10.37-10.37-14.3-16.63-1.71-2.72-6.04-.22-4.32,2.52h0Z"/><path class="cls-3" d="M103.24,242.22c-.75,6.73,.56,13.27,.71,19.97,.17,7.83,0,15.65-.15,23.48-.29,15.57-.32,31.13,2.19,46.55,.52,3.18,5.34,1.82,4.82-1.33-2.44-14.95-2.29-30.12-2.02-45.22,.14-7.5,.29-15,.17-22.49-.11-7.02-1.52-13.92-.73-20.96,.36-3.2-4.65-3.17-5,0h0Z"/><path class="cls-3" d="M129.24,352.22c1.36,23.54,.42,47.61,6.09,70.66,.77,3.13,5.59,1.8,4.82-1.33-5.56-22.61-4.58-46.25-5.91-69.34-.18-3.2-5.19-3.22-5,0h0Z"/><path class="cls-3" d="M151.97,248.45c-.54,.54-1.1,1.07-1.69,1.56-.2,.16-.13,.1,.22-.17-.09,.07-.19,.13-.28,.2-.22,.15-.89,.42,.01,.07-.05,.02-.09,.03-.14,.04,.96-.24,1.91,.19,2.44,1.02,.07,.16,.14,.32,.21,.48,.05,.54,.07,.67,.08,.41-.02,.77-.06,.42,0,.17,.31-1.33-.39-2.7-1.75-3.08-1.27-.35-2.77,.42-3.08,1.75-.34,1.47-.14,2.87,1.18,3.78,1.01,.7,2.31,.4,3.3-.14,1.13-.62,2.12-1.63,3.03-2.54,.96-.96,.96-2.57,0-3.54-.96-.96-2.57-.96-3.54,0h0Z"/><path class="cls-3" d="M152.92,281.62c-.84,1.55-2.17,1.9-3.84,1.52-3.14-.71-4.47,4.11-1.33,4.82,3.78,.86,7.57-.26,9.49-3.82,1.53-2.84-2.78-5.36-4.32-2.52h0Z"/><path class="cls-3" d="M150.57,302.88c-.01,.28,0,.18,.04-.28,.02-.1,.59-.86,.38-.65,.2-.22,.45-.36,.73-.44-.44,.15,.67-.04,.16-.02-.1,0-.2,0-.29,0-.57-.03,.6,.11,0,0-.4-.08-.8-.2-1.19-.33-1.3-.42-2.73,.48-3.08,1.75-.37,1.36,.45,2.65,1.75,3.08,1.27,.41,2.54,.63,3.87,.4,1.65-.3,2.57-1.93,2.63-3.47,.05-1.36-1.18-2.5-2.5-2.5-1.4,0-2.45,1.14-2.5,2.5h0Z"/><path class="cls-3" d="M164.91,363.55c-.03-.69-.22-1.25-.39-1.9v1.33s0,0,0,0c-1.39,.37-2.79,.74-4.18,1.1-.72-.91-.25-.24-.1,.06,.61,1.22,2.3,1.55,3.42,.9,1.23-.72,1.51-2.2,.9-3.42-.21-.42-.38-.69-.69-1.08-1.14-1.45-3.84-.62-4.18,1.1-.11,.56-.09,1.06,.08,1.59,.04,.12,.08,.25,.11,.38,.02,.07,.04,.14,.05,.21,.1,.43-.06-.68-.04-.27,.05,1.36,1.1,2.5,2.5,2.5,1.32,0,2.55-1.14,2.5-2.5h0Z"/><path class="cls-3" d="M165.57,381.55v-1.99c0-3.22-5-3.22-5,0v6.66c0,3.22,5,3.22,5,0v-6.66c0-3.22-5-3.22-5,0v1.99c0,3.22,5,3.22,5,0h0Z"/><path class="cls-3" d="M38.84,118.45c-5.92-4.92-13.33-5.26-20.44-7.31-3.1-.9-4.42,3.93-1.33,4.82,6.04,1.74,13.2,1.84,18.23,6.02,2.46,2.05,6.02-1.47,3.54-3.54h0Z"/><path class="cls-4" d="M135.24,225.55c1.88,15.78-.61,31.54-.67,47.33-.01,3.22,4.99,3.22,5,0,.06-15.8,2.55-31.55,.67-47.33-.38-3.16-5.38-3.2-5,0h0Z"/><path class="cls-4" d="M117.74,215.14c-8.73,1.7-25.28,10.67-18.16,21.67,1.74,2.7,6.08,.19,4.32-2.52-4.81-7.42,9.92-13.3,15.17-14.33,3.16-.62,1.82-5.44-1.33-4.82h0Z"/><path class="cls-4" d="M155.07,349.72c-.94,.07-1.68,.41-2.54,.79-.19,.09-.38,.17-.57,.26,.52-.23-.14,.05-.21,.08-.2,.07-.4,.13-.6,.19-.63,.17,.52,0-.08,.02,.42,.11,.84,.23,1.26,.34-.23-.12-.46-.24-.68-.36-.44-.25,.4,.48,.44,.54,.11,.42,.23,.84,.34,1.26,0-.01,0-.03,0-.04-.11,.42-.23,.84-.34,1.26,0-.01,.01-.02,.02-.03-.3,.3-.6,.6-.9,.9-1.04,.55-1.42,.27-.73,.3,.2,.01,.41,.04,.61,.06,.44,.05,.87,.09,1.31,.1,1.36,.02,2.5-1.15,2.5-2.5s-1.14-2.48-2.5-2.5c-.76-.01-1.51-.18-2.27-.16-2.34,.06-3.61,2.77-1.88,4.49,.52,.52,1.45,1.06,2.15,1.25,.8,.22,1.7,.02,2.47-.22,.68-.22,1.34-.53,1.99-.82,.13-.06,.95-.4,.26-.12,.27-.11,.81-.14-.06-.07,1.36-.11,2.5-1.06,2.5-2.5,0-1.28-1.14-2.61-2.5-2.5h0Z"/><path class="cls-4" d="M153.15,332.73c-.32,.16-.65,.3-.99,.45-.41,.17,.61-.26,.19-.08-.14,.06-.29,.12-.43,.18-.26,.11-.52,.21-.78,.31-.48,.19-.96,.36-1.45,.52-.18,.06-.35,.11-.53,.15-.06,.01-.11,.02-.17,.03,.41-.07,.77-.14,1.13,0,.37,.21,.74,.43,1.1,.64,.12,.16,.25,.32,.37,.48,.11,.42,.23,.84,.34,1.26,0,1.73-1.17,2.09-.59,1.58-.71,.61-.38,.29-.17,.15,.37-.25,.77-.48,1.16-.7,1.18-.68,1.58-2.25,.9-3.42-.69-1.18-2.24-1.58-3.42-.9-1.13,.65-2.34,1.29-2.78,2.6-.42,1.24,.48,2.9,1.81,3.13,.65,.11,1.23,.08,1.86-.1,1.69-.47,3.41-1.2,4.98-1.98,1.22-.6,1.55-2.31,.9-3.42-.72-1.24-2.2-1.5-3.42-.9h0Z"/><path class="cls-4" d="M151.58,382.96c-.23,.46-.5,.89-.8,1.31-.07,.1-.14,.19-.21,.29,.56-.75,.24-.31,.09-.14-.05,.06-.11,.12-.17,.18-.18,.15-.04,.05,.4-.3,.12-.08,.86-.33,1.13-.3,.42,.11,.84,.23,1.26,.34,.65,.3,1.21,1.41,1.18,1.96-.05,.91-.09,.58-.01,.3,.1-.36,.23-.7,.37-1.04,.5-1.27-.54-2.74-1.75-3.08-1.42-.39-2.57,.48-3.08,1.75-.14,.34-.27,.69-.37,1.04-.18,.63-.17,1.15-.08,1.79,.24,1.7,2.58,2.47,3.9,1.53,1.07-.76,1.86-1.94,2.45-3.1,.62-1.21,.33-2.7-.9-3.42-1.12-.66-2.8-.32-3.42,.9h0Z"/><path class="cls-4" d="M157.91,396.88c.55,7.09-1.12,14.09-4.99,20.07-1.76,2.72,2.57,5.22,4.32,2.52,4.3-6.65,6.28-14.71,5.67-22.59-.25-3.19-5.25-3.22-5,0h0Z"/><path class="cls-4" d="M161.33,276.22c2.64,13.16-.03,26.73-.09,40-.01,3.23,4.99,3.22,5,0,.06-13.77,2.65-27.66-.09-41.33-.63-3.16-5.45-1.82-4.82,1.33h0Z"/><path class="cls-4" d="M97.91,285.55c.03,13.53,1.36,27.21-.58,40.67-.45,3.15,4.36,4.51,4.82,1.33,2.01-13.94,.79-27.98,.76-42,0-3.22-5.01-3.22-5,0h0Z"/><path class="cls-4" d="M31.31,247.32c8.15,8.99,12.43,20.97,21.33,29.33,2.35,2.2,5.89-1.32,3.54-3.54-8.87-8.33-13.19-20.35-21.33-29.33-2.17-2.39-5.7,1.15-3.54,3.54h0Z"/><path class="cls-4" d="M10.66,142.22c-1.33,4.78-3.07,9.43-4.45,14.19-1.21,4.19-2.39,8.77-1.55,13.14,.61,3.17,5.42,1.82,4.82-1.33-.73-3.83,.88-8.25,1.96-11.86,1.27-4.29,2.84-8.49,4.04-12.81,.87-3.11-3.96-4.43-4.82-1.33h0Z"/><path class="cls-4" d="M111.15,14.73c-17.35,9.24-34.27,19.42-49.46,31.96-15.03,12.41-28.28,27.68-35.02,46.2-1.11,3.04,3.73,4.33,4.82,1.33,6.54-17.96,19.79-32.47,34.31-44.47,14.64-12.09,31.16-21.8,47.87-30.7,2.85-1.52,.32-5.83-2.52-4.32h0Z"/><path class="cls-4" d="M117.97,33.99c5.48,6.11,11.61,11.54,18,16.67,2.49,2,6.05-1.52,3.54-3.54-6.39-5.13-12.52-10.56-18-16.67-2.16-2.41-5.68,1.14-3.54,3.54h0Z"/><path class="cls-4" d="M97.24,38.88c.36,6.65,7.69,10.27,12.57,13.49,2.7,1.78,5.2-2.55,2.52-4.32-1.98-1.31-4-2.55-5.92-3.95-1.61-1.17-4.06-3.04-4.17-5.23-.17-3.21-5.17-3.22-5,0h0Z"/><path class="cls-4" d="M115.91,376.88c.01,12.38,.11,25.09,2.09,37.33,.51,3.18,5.33,1.82,4.82-1.33-1.9-11.78-1.9-24.09-1.91-36,0-3.22-5-3.22-5,0h0Z"/><path class="cls-4" d="M88.84,338.45c-1.71-1.98-4.28-1.6-5.27,.83-.82,2.02,.15,5.19,.47,7.22,1.29,8.18,2.46,16.74,2.53,25.05,1.05-.8,2.11-1.61,3.16-2.41-2.27-.9-4.74-1.11-7.14-1.43-.78-.1-4.95-.37-5.02-1.5-.21-3.2-5.21-3.22-5,0,.48,7.53,10.86,5.78,15.84,7.74,1.53,.61,3.18-.91,3.16-2.41-.06-7.31-1.46-14.49-2.02-21.76-.14-1.87-.55-3.73-.83-5.58-.13-.83-.23-1.65-.29-2.49-.03-.35-.03-.7-.03-1.05,.02-.36,.02-.38,0-.07-3.07-.1-4.1,.36-3.09,1.38,2.11,2.45,5.63-1.11,3.54-3.54h0Z"/></svg>