<?xml version="1.0" encoding="UTF-8"?><svg id="Layer_2" xmlns="http://www.w3.org/2000/svg" viewBox="0 0 175.49 432.22"><defs><style>.cls-1{fill:#0080b7;}.cls-2{fill:#f6851f;}.cls-3{fill:#fded1f;}.cls-4{fill:#9a4092;}.cls-5{fill:#7fc242;}</style></defs><g id="Layer_1-2"><path class="cls-1" d="M122.43,209.99c-1.57,12.75-1,25.63-.9,38.44s-.17,26.22-.33,39.32-.32,26.7-.11,40.05c.21,13.39,.44,26.77,.71,40.16,.3,15.01,.66,30.02,1.14,45.03,.1,3.21,5.1,3.22,5,0-.85-26.75-1.33-53.52-1.76-80.28-.43-26.63,.28-53.24,.37-79.86,.05-14.28-.85-28.64,.89-42.86,.16-1.34-1.27-2.5-2.5-2.5-1.49,0-2.33,1.15-2.5,2.5h0Z"/><path class="cls-1" d="M142.84,204.33c-.26-1.58-2.07-2.21-3.41-2.48-1.68-.34-3.41-.5-5.12-.63-3.7-.28-7.43-.32-11.13-.02-4.11,.33-8.13,1.12-11.88,2.88s-6.97,4.72-9.37,8.18c-5.56,8-7.19,18.05-7.89,27.56-.78,10.69-.8,21.43-1.23,32.14-.91,22.71-2.82,45.4-1.94,68.14,.44,11.33,1.36,22.65,2.62,33.92s2.98,22.44,4.61,33.64c1.09,7.5,1.68,17.11,9.58,20.83,3.23,1.52,6.74,2.42,10.25,3.02,3.81,.65,7.71,1.01,11.55,.46,1.48-.21,2.89-.61,4.22-1.3l-3.03-.39c1.38,1.36,3.34,1.76,4.8,.23,1.17-1.23,1.84-2.75,2.38-4.33,.44-1.28-.5-2.73-1.75-3.08-1.37-.38-2.63,.46-3.08,1.75-.31,.91-.69,1.7-1.36,2.4l1.77-.73c1.05,.63,1.3,.71,.77,.23-.82-.81-2.03-.91-3.03-.39-.12,.06-.25,.13-.37,.19,.45-.18,.08-.03,0,0-.29,.1-.59,.2-.89,.28-.32,.09-.65,.16-.98,.22-.62,.11-.29,.07-.94,.13-1.67,.15-3.35,.12-5.01,0-3.36-.25-6.74-.92-9.98-1.93-.7-.22-1.38-.46-2.06-.72-.31-.12-.79-.32-1.41-.65-1.37-.73-2.43-1.94-3.24-3.25-1.89-3.09-2.41-6.85-2.86-10.38-1.27-10.06-3.01-20.06-4.24-30.13-1.31-10.71-2.34-21.45-2.96-32.22s-.83-21.38-.49-32.06c.34-10.78,1.06-21.54,1.56-32.31,.5-10.76,.81-21.52,1.2-32.29,.32-9.01,.49-18.21,3.2-26.9,2.28-7.33,6.63-14.22,14.23-16.7,3.55-1.16,7.27-1.48,10.99-1.56,3.32-.07,6.66,.05,9.95,.45,.46,.06-.28-.04,.15,.02,.17,.02,.34,.05,.5,.08,.3,.05,.6,.1,.89,.17,.22,.05,.47,.16,.7,.19,.32,.04-.45-.24-.23-.09-.2-.13-.79-.76-.86-1.18,.22,1.33,1.87,2.08,3.08,1.75,1.42-.39,1.96-1.74,1.75-3.08h0Z"/><path class="cls-1" d="M138.52,216.16c5.96,24.36,4.55,49.67,3.31,74.49-.62,12.36-1.19,24.73-.91,37.11,.3,13.08,.69,26.15,1.06,39.22,.41,14.67,.71,29.34,.45,44.01-.06,3.22,4.94,3.22,5,0,.47-26.27-.86-52.52-1.42-78.78-.27-12.62,.01-25.19,.63-37.8s1.34-25.11,1.27-37.69c-.08-14.07-1.22-28.2-4.57-41.9-.76-3.12-5.59-1.8-4.82,1.33h0Z"/><path class="cls-1" d="M146.6,208.9c3.44-.8,6.29-2.77,9.73-1.56,2.94,1.03,5.04,3.53,6.62,6.11,3.98,6.5,6.05,13.97,6.92,21.5,2.02,17.51-1.28,35.12-3.04,52.51-.94,9.22-1.16,18.41-.8,27.67,.38,9.96,1.27,19.9,2.04,29.83s1.43,19.78,1.35,29.69c-.04,4.85-.25,9.69-.73,14.52-.09,.93-.2,1.86-.3,2.78-.07,.63,.06-.34-.04,.31-.05,.31-.1,.63-.16,.94-.22,1.21-.49,2.4-.79,3.59-1.47,5.68-3.53,10.95-6.73,15.87-.81,1.25-1.37,2.02-2.28,3.05-.42,.47-.86,.93-1.31,1.37-.24,.23-.48,.44-.73,.66-.12,.1-.24,.21-.37,.31,.2-.16,.07-.05-.06,.04-.49,.36-1,.69-1.54,.98-.23,.12-.46,.24-.69,.34-.35,.16,.35-.13,0,0-.17,.06-.34,.12-.51,.18-.24,.08-.48,.14-.72,.2-.14,.03-.28,.06-.42,.09-.38,.08,.41-.04,.03,0-.58,.06-1.15,.06-1.73,0-.39-.03,.39,.07,0,0-.11-.02-.22-.04-.33-.06-.3-.08-.6-.18-.9-.24-1.12-.24-2.42-.1-3.26,.74-.59,.59-.95,1.62-.64,2.43,.23,.6,.53,1.06,.97,1.51,2.26,2.3,5.8-1.24,3.54-3.54-.11-.1-.2-.2-.29-.32l.64,1.1-.03-.09-.64,2.43,.05-.05-1.1,.64c-.55,.1-.19,.08,.12,.15s.59,.12,.89,.17c.72,.11,1.45,.19,2.19,.16,1.42-.06,2.78-.38,4.08-.93,2.57-1.08,4.76-2.92,6.57-5.04,4.08-4.78,6.79-10.67,8.78-16.59,2.21-6.57,2.9-13.3,3.25-20.2,.52-10.17,.06-20.37-.64-30.52-1.38-19.92-3.83-39.92-2.13-59.9,1.54-18.06,5.25-36.16,3.69-54.35-.72-8.44-2.6-16.74-6.6-24.26-1.74-3.27-3.86-6.33-6.87-8.55-3.16-2.33-7.22-3.33-11.04-2.19-1.8,.54-3.51,1.27-5.34,1.69-3.13,.73-1.81,5.55,1.33,4.82h0Z"/><path class="cls-1" d="M88.52,247.66v-1.2c.22-.37,.43-.74,.64-1.1,.49-.53,1.34-.66,.89-.53-.35,.1,.56,.06,.29-.04-.13-.05-.46,.01-.6,0-.67,0-1.35-.06-2.02-.1-1.51-.09-3.02-.18-4.53-.11-2.94,.12-5.69,.88-7.09,3.7-1.32,2.67-1.71,5.73-1.92,8.67-.23,3.11-.15,6.25,.25,9.33,.36,2.76,.81,6.13,3.24,7.87,1.1,.79,2.78,.19,3.42-.9,.74-1.26,.2-2.63-.9-3.42,.66,.47,.32,.21,.14,.04,.51,.47,.17,.27,.05-.01s-.24-.55-.06-.08c-.1-.27-.2-.54-.28-.81-.16-.51-.28-1.03-.39-1.55-.06-.29-.11-.58-.16-.88-.03-.15-.05-.31-.07-.46-.12-.77,.06,.51-.04-.29-.36-2.97-.41-6-.18-8.98,.12-1.57,.18-2.17,.53-3.7,.13-.6,.3-1.19,.49-1.77,.04-.13,.09-.25,.13-.37,.12-.34-.19,.39-.04,.08,.11-.23,.23-.46,.36-.69,.16-.28,.42-.49,.05-.12,.13-.13,.26-.26,.39-.39-.55,.56,.32-.08-.23,.14,.33-.13,.67-.21,1.02-.28,.08-.02,.48-.08,.03-.02,.16-.02,.33-.04,.49-.05,.35-.03,.69-.05,1.04-.06,.82-.02,1.63,0,2.45,.03,1.38,.06,2.78,.23,4.16,.19,1.8-.05,4.05-1.26,3.28-3.46-.45-1.27-1.71-2.12-3.08-1.75-1.24,.34-2.19,1.79-1.75,3.08h0Z"/><path class="cls-1" d="M29.77,208.25c13.43,24,28.05,47.47,45.37,68.89,4.78,5.91,9.77,11.63,15.02,17.12,2.23,2.33,5.76-1.21,3.54-3.54-18.76-19.59-34.23-42.12-48.19-65.3-3.92-6.5-7.71-13.07-11.42-19.7-1.57-2.81-5.89-.29-4.32,2.52h0Z"/><path class="cls-1" d="M14.77,213.25c13.05,20.38,26.66,40.44,41.76,59.37,4.24,5.32,8.61,10.54,13.13,15.64,2.14,2.41,5.67-1.14,3.54-3.54-15.94-17.95-30.01-37.49-43.31-57.44-3.65-5.48-7.25-11.01-10.8-16.55-1.73-2.7-6.06-.2-4.32,2.52h0Z"/><path class="cls-1" d="M18.27,229.25c12.72,21.09,24,43.14,38.84,62.88,4.22,5.62,8.7,11.04,13.55,16.13,2.22,2.33,5.76-1.21,3.54-3.54-16.9-17.74-29.11-39.23-41.26-60.32-3.41-5.91-6.82-11.83-10.35-17.67-1.66-2.75-5.99-.24-4.32,2.52h0Z"/><path class="cls-1" d="M69.93,296.49c1.83,14.46,1.52,29.1,1.05,43.64-.22,6.91-.21,13.88-.71,20.77-.22,3.02-.49,6.01,.06,9s2.36,5.78,4.9,7.68c5.05,3.77,11.99,3.47,17.86,2.32,1.33-.26,2.08-1.84,1.75-3.08-.38-1.38-1.75-2.01-3.08-1.75-4.27,.84-9.6,1.24-13.44-1.41-4.51-3.1-3.28-9.06-2.99-13.73,.41-6.58,.43-13.22,.64-19.82,.22-6.97,.4-13.95,.34-20.92-.07-7.59-.44-15.18-1.39-22.72-.17-1.34-1.03-2.5-2.5-2.5-1.22,0-2.67,1.15-2.5,2.5h0Z"/><path class="cls-1" d="M152.52,223.83c.33-.89,.28-.59,.16-.41-.06,.1-.2,.28,.1-.11,.32-.42,.03-.1-.07,.01,.57-.58,.39-.29,.11-.13-.06,.03-.35,.23-.4,.2,0,0,.7-.27,.31-.13-.07,.03-.15,.05-.22,.08-.19,.06-.37,.12-.57,.17-.38,.1-.76,.17-1.15,.22l.66-.09c-.92,.12-1.84,.12-2.76,0l.66,.09c-.38-.05-.76-.12-1.13-.23-.16-.04-.32-.1-.48-.15-.03-.01-.25-.06-.26-.1,.01,.05,.67,.3,.2,.07-.61-.3-1.25-.44-1.93-.25-.58,.16-1.21,.61-1.49,1.15-.59,1.12-.36,2.81,.9,3.42,2.26,1.1,4.72,1.25,7.17,.87,2.08-.32,4.24-1.27,5-3.36,.21-.58,.05-1.41-.25-1.93s-.9-1.01-1.49-1.15c-1.41-.32-2.59,.43-3.08,1.75h0Z"/><path class="cls-1" d="M157.93,240.99h-10c-1.31,0-2.56,1.15-2.5,2.5s1.1,2.5,2.5,2.5h10c1.31,0,2.56-1.15,2.5-2.5s-1.1-2.5-2.5-2.5h0Z"/><path class="cls-1" d="M158.27,258.08c-.24,.08-.48,.12-.73,.16-.37,.07,.73-.08,.33-.04-.08,0-.15,.02-.23,.03-.18,.02-.36,.03-.55,.05-.84,.06-1.69,.06-2.53,.03-.45-.01-.89-.04-1.34-.08-.23-.02-.46-.04-.69-.07-.1-.01-.21-.03-.31-.04,.83,.07,.37,.05,.18,.02-.78-.12-1.56-.28-2.3-.57-.57-.22-1.42-.04-1.93,.25s-1.01,.9-1.15,1.49c-.33,1.44,.44,2.56,1.75,3.08,.77,.3,1.6,.47,2.42,.58,1.12,.16,2.24,.28,3.37,.32,.88,.03,1.76,.02,2.64-.04,.8-.06,1.64-.12,2.4-.36,1.24-.4,2.17-1.75,1.75-3.08-.4-1.25-1.74-2.17-3.08-1.75h0Z"/><path class="cls-1" d="M156.27,285.08c-1.14,.38-2.31,.67-3.51,.83l.66-.09c-.97,.12-1.93,.15-2.9,.03l.66,.09c-.44-.06-.87-.15-1.29-.28-.09-.03-.17-.06-.26-.09-.44-.16,.08,.09,.16,.07-.12,.03-.5-.25-.6-.32-1.13-.66-2.79-.3-3.42,.9s-.31,2.72,.9,3.42c3.31,1.93,7.44,1.4,10.93,.25,1.24-.41,2.18-1.75,1.75-3.08-.4-1.24-1.75-2.18-3.08-1.75h0Z"/><path class="cls-1" d="M156.67,304.83c-.2,.13-.4,.25-.6,.36-.1,.05-.21,.1-.31,.15,.33-.14,.38-.16,.12-.06-.38,.13-.76,.24-1.16,.32-.11,.02-.23,.04-.34,.06-.28,.04-.23,.04,.14-.02-.1,.07-.42,.04-.53,.05-.45,.03-.91,.04-1.37,.04-1.9-.02-3.79-.24-5.69-.25-1.31,0-2.56,1.15-2.5,2.5s1.1,2.49,2.5,2.5c4.1,.02,8.58,1.04,12.26-1.34,1.1-.71,1.65-2.25,.9-3.42-.71-1.1-2.25-1.66-3.42-.9h0Z"/><path class="cls-1" d="M151.66,325.72s-.03,.02-.04,.04l.51-.39c-.1,.08-.21,.13-.32,.18l.6-.25c-.52,.21-1.08,.31-1.63,.39l.66-.09c-.93,.12-1.89,.15-2.82,.03l.66,.09c-.23-.03-.46-.07-.68-.13-.64-.16-1.35-.09-1.93,.25-.52,.3-1.01,.9-1.15,1.49-.15,.64-.11,1.36,.25,1.93,.35,.54,.86,.99,1.49,1.15,1.31,.32,2.71,.37,4.05,.2s2.84-.36,3.88-1.35c.46-.43,.73-1.15,.73-1.77s-.27-1.35-.73-1.77c-1.02-.94-2.52-.96-3.54,0h0Z"/><path class="cls-1" d="M156.27,353.58c-1.29,.51-2.63,.87-4,1.06l.66-.09c-1.12,.15-2.24,.18-3.37,.04l.66,.09c-.21-.03-.42-.06-.63-.1-.67-.13-1.32-.1-1.93,.25-.52,.3-1.01,.9-1.15,1.49-.28,1.23,.37,2.81,1.75,3.08,3.12,.6,6.39,.16,9.33-1,.63-.25,1.14-.55,1.49-1.15,.31-.54,.45-1.33,.25-1.93s-.57-1.19-1.15-1.49-1.31-.49-1.93-.25h0Z"/><path class="cls-1" d="M154.77,375.08c-.28,.05-.57,.09-.85,.13l.66-.09c-1.75,.23-3.51,.27-5.26,.04l.66,.09c-.98-.14-1.94-.36-2.89-.67-1.24-.41-2.79,.47-3.08,1.75-.31,1.37,.41,2.64,1.75,3.08,3.37,1.1,6.87,1.07,10.33,.5,.58-.09,1.21-.66,1.49-1.15,.31-.54,.45-1.33,.25-1.93-.45-1.4-1.69-1.97-3.08-1.75h0Z"/><path class="cls-1" d="M153.17,396.33c-.5,.37-1.03,.68-1.59,.93l.6-.25c-.61,.26-1.24,.43-1.89,.52l.66-.09c-.7,.09-1.4,.08-2.1,0l.66,.09c-.65-.09-1.29-.24-1.91-.45-1.24-.41-2.79,.47-3.08,1.75-.31,1.37,.41,2.64,1.75,3.08,3.15,1.03,6.71,.76,9.43-1.25,.54-.4,.96-.82,1.15-1.49,.16-.6,.09-1.4-.25-1.93s-.86-1-1.49-1.15-1.4-.14-1.93,.25h0Z"/><path class="cls-1" d="M153.43,405.49c-.43,0-.86,.05-1.29,.08-.47,.04-.94,.09-1.41,.12-.12,0-.26,.03-.38,.02l.66,.09s0,0-.01,0l.6,.25s0,0,0,0l.51,.39h0c.13,.17,.26,.34,.39,.51h0c.08,.2,.17,.4,.25,.6h0v1.33h0c-.08,.2-.17,.4-.25,.6h0c-.13,.17-.26,.34-.39,.51,0,0,0,0,0,0l-.51,.39s0,0,0,0l-.6,.25c.09-.04,.2-.05,.3-.07,.26-.05,.52-.09,.78-.14,.33-.08,.61-.23,.85-.45,.27-.18,.49-.41,.64-.7,.18-.29,.28-.6,.3-.93,.07-.33,.06-.66-.04-1l-.25-.6c-.22-.38-.52-.67-.9-.9l-.6-.25c-.44-.12-.89-.12-1.33,0-.35,.06-.71,.1-1.05,.19-.22,.06-.45,.15-.65,.27-.54,.32-1.01,.88-1.15,1.5l-.04,.33c-.07,.33-.06,.66,.04,1h0c.02,.11,.06,.21,.13,.3,.17,.4,.06,.21,.32,.55,.05,.1,.12,.18,.2,.25l.51,.39c.06,.04,.54,.24,.61,.26,.03,0,.64,.09,.67,.09,0,0,.01,0,.02,0,.03,0,.06,0,.1,0,.65-.03,1.29-.11,1.93-.16,.34-.03,.69-.06,1.03-.06,.34,.01,.67-.06,.96-.22,.31-.1,.58-.27,.8-.52,.24-.23,.42-.49,.52-.8,.16-.3,.23-.62,.22-.96l-.09-.66c-.12-.42-.33-.79-.64-1.1l-.51-.39c-.39-.23-.81-.34-1.26-.34h0Z"/><path class="cls-1" d="M11.43,115.49c-.03,.37-.21,1.07,0,.18-.07,.32-.1,.66-.16,.98-.14,.79-.3,1.58-.46,2.37-.43,2.05-.92,4.1-1.4,6.14-1.34,5.66-2.71,11.31-3.96,16.99C2.59,155.16-.08,168.58,0,181.95c.05,9.27,1.68,22.39,12.32,25.33,6.56,1.82,13.77-.8,19.49-3.91,4.2-2.28,8.17-5.21,11.42-8.71,3.01-3.24,5.69-7.23,6.45-11.66s-.38-9-2.97-12.65c-1.05-1.49-2.41-2.69-4.2-3.19s-3.76-.22-5.57,.15c-3.44,.7-6.6,2.05-9.8,3.46-1.61,.71-3.22,1.45-4.77,2.28-1.19,.64-2.68,1.39-3.41,2.57-1.04,1.67-.2,3.89,1.79,4.28,1.32,.26,2.7-.38,3.08-1.75,.34-1.23-.42-2.81-1.75-3.08-.33-.06-.21-.18,.28,.15l.52,1.28c.59,.59,.69,1.18,.31,1.76,.06-.11-.46,.59,0,.09-.38,.41-.2,.15,.13-.07,.28-.18,.56-.35,.85-.52,1.39-.8,2.84-1.48,4.3-2.15,1.63-.75,2.7-1.2,4.14-1.78,1.25-.5,2.48-.95,3.79-1.28,.92-.23,1.85-.45,2.79-.61,.08-.01,.5-.06,.05-.01,.19-.02,.37-.04,.56-.05,.38-.02,.75-.02,1.13,0-.66-.04,.25,.08,.43,.12,.14,.04,.41,.19-.1-.06,.13,.06,.26,.16,.4,.21s.47,.35,.02-.02c.1,.08,.2,.16,.29,.25,.14,.15,.28,.29,.42,.44,.34,.39-.18-.3,.15,.2,2.04,3.16,2.93,6.42,2.09,9.71-1.92,7.58-9.67,13.44-16.48,16.89-1.75,.89-3.39,1.58-5.28,2.16-.82,.25-1.64,.47-2.48,.64-.34,.07-.67,.13-1.01,.19-.19,.03-.38,.06-.57,.09,.41-.06,.22-.03-.08,0-1.14,.11-2.27,.14-3.42,.05-.33-.03-.66-.1-.12,0-.25-.05-.5-.08-.75-.13-.48-.1-.95-.23-1.42-.38-.23-.08-.44-.17-.67-.25,.77,.28,0,0-.17-.1-.41-.21-.81-.44-1.19-.69-.16-.11-.78-.62-.16-.09-.17-.15-.35-.29-.52-.44-.34-.31-.67-.64-.97-.98-.16-.18-.3-.36-.45-.54,.32,.39,.15,.21-.04-.06-.31-.44-.59-.89-.86-1.36-.22-.4-.43-.8-.62-1.21-.07-.15-.41-.99-.12-.26-.11-.27-.22-.54-.32-.82-.37-1.03-.68-2.08-.92-3.15-.13-.58-.25-1.17-.36-1.75-.04-.24-.08-.48-.12-.73-.03-.18-.18-1.32-.1-.64-.33-2.65-.46-5.33-.45-8,.01-2.96,.18-5.91,.44-8.86,.14-1.57,.31-3.13,.5-4.69,.22-1.79,.3-2.42,.57-4.23,.93-6.27,2.15-12.5,3.49-18.7,1.18-5.43,2.47-10.84,3.76-16.24,.86-3.6,1.8-7.21,2.4-10.87,.11-.7,.22-1.41,.28-2.12,.12-1.35-1.23-2.5-2.5-2.5-1.45,0-2.38,1.15-2.5,2.5h0Z"/><path class="cls-1" d="M36.93,127.49c-1.43,11.68-5.74,23.63-5.72,35.75,0,3,.3,6.08,1.31,8.92,.45,1.27,1.71,2.12,3.08,1.75,1.23-.34,2.2-1.8,1.75-3.08-1.7-4.8-1.25-10.21-.58-15.31,.82-6.23,2.28-12.37,3.54-18.52,.64-3.15,1.23-6.31,1.62-9.51,.16-1.34-1.27-2.5-2.5-2.5-1.49,0-2.33,1.15-2.5,2.5h0Z"/><path class="cls-1" d="M33.43,120.49c-2.49-.31-4.99-.51-7.5-.62s-5.02-.17-7.5,.12c-1.29,.16-2.57,1.04-2.5,2.5,.05,1.22,1.11,2.67,2.5,2.5,2.48-.3,5.01-.24,7.5-.12s5.01,.32,7.5,.62c1.3,.16,2.56-1.26,2.5-2.5-.07-1.49-1.1-2.33-2.5-2.5h0Z"/><path class="cls-1" d="M126.16,.72c-2.59,2.96-6.22,4.8-9.82,6.31-4.11,1.72-8.38,3.02-12.54,4.6-9.36,3.56-18.09,9.07-26.1,15.03-8.46,6.29-16.25,13.4-23.66,20.89s-14.94,15.63-20.9,24.75c-6.43,9.84-11.5,20.49-16.87,30.93-1.47,2.86,2.84,5.39,4.32,2.52,4.78-9.3,9.32-18.75,14.8-27.66,2.66-4.33,5.55-8.54,8.75-12.49,3.44-4.24,7.26-8.17,11.07-12.1,7.24-7.47,14.81-14.68,23.05-21.04,4.05-3.13,8.28-6.04,12.66-8.7,4.05-2.46,8.4-4.97,12.71-6.72s9.2-3.21,13.71-5.06,9.11-4.02,12.36-7.73c.89-1.02,1-2.54,0-3.54-.91-.91-2.64-1.02-3.54,0h0Z"/><path class="cls-1" d="M126.17,11.83c-21.16,13.3-45.77,21.59-63.41,39.98-4.38,4.57-8.02,9.84-11.74,14.95-4.71,6.47-9.35,12.99-13.71,19.7-1.84,2.83-3.69,5.69-5.2,8.72-.99,2-2.64,5.46,.05,6.97s5.33-2.74,2.52-4.32c.44,.25,.84,.83,.95,1.23-.06-.23,.05,.87,.06,.37,0-.43-.22,.78-.03,.21,.05-.16,.08-.33,.14-.48s.11-.31,.17-.47c.24-.72-.21,.42,.06-.15,.22-.46,.43-.92,.67-1.37,1.36-2.62,2.95-5.13,4.55-7.6,4.2-6.51,8.68-12.83,13.22-19.1,1.92-2.66,3.86-5.3,5.83-7.92,.69-.93,1.39-1.85,2.1-2.77,.13-.17,.64-.83,.08-.1,.1-.13,.21-.27,.31-.4,.48-.62,1-1.2,1.52-1.79,8.05-9.01,17.99-15.82,28.47-21.7,11.9-6.68,24.35-12.37,35.92-19.64,2.72-1.71,.21-6.04-2.52-4.32h0Z"/><path class="cls-1" d="M151.66,38.72c-3.6,3.8-8.21,6.52-12.71,9.11-4.98,2.86-10.1,5.49-14.94,8.58-2.54,1.62-4.92,3.48-7.35,5.26-2.89,2.12-5.79,4.21-8.7,6.3-5.53,3.98-11.06,7.97-16.46,12.14-4.43,3.41-8.96,6.85-13,10.73-1.74,1.67-3.4,3.43-5.08,5.15-5.28,5.43-10.58,10.85-16.16,15.98-1.52,1.4-3.07,2.78-4.65,4.11-.74,.62-1.49,1.23-2.25,1.83,.45-.35-.09,.07-.16,.12-.16,.12-.32,.24-.49,.36-.31,.23-.62,.46-.94,.68-.61,.43-1.24,.84-1.88,1.22-.26,.15-.52,.3-.79,.44-.14,.07-.98,.44-.55,.27s-.33,.11-.47,.15c-.41,.12-.73-.07-.02,.05-.02,0-.51,.03-.51,0,.02-.15,.79,.16,.37,.03-.35-.11,.69,.35,.27,.11-2.81-1.58-5.33,2.74-2.52,4.32,2.2,1.24,4.77,.09,6.75-1.06,2.81-1.64,5.36-3.78,7.82-5.9,5.97-5.15,11.53-10.77,17.04-16.41,2.12-2.17,4.22-4.36,6.36-6.51,2.75-2.77,5.77-5.25,8.8-7.7,10.92-8.86,22.59-16.77,33.88-25.13,5.13-3.8,10.91-6.68,16.45-9.81s11.1-6.29,15.43-10.86c2.21-2.34-1.32-5.88-3.54-3.54h0Z"/><path class="cls-1" d="M126.66,32.76c2.44,2.19,5.04,4.18,7.53,6.3,1.2,1.02,2.38,2.07,3.5,3.19,.58,.58,1.14,1.17,1.68,1.78,.27,.31,.54,.62,.8,.94,.13,.16,.26,.32,.39,.49-.25-.32,.19,.26,.21,.29,.77,1.05,2.2,1.68,3.42,.9,1.04-.67,1.72-2.29,.9-3.42-2.08-2.83-4.51-5.28-7.17-7.55s-5.22-4.21-7.72-6.45c-.97-.87-2.59-1.03-3.54,0-.87,.95-1.04,2.6,0,3.54h0Z"/><path class="cls-1" d="M116.27,38.25c3.48,5.72,9.74,8.87,13.89,14.01,.83,1.02,2.69,.92,3.54,0,1-1.08,.88-2.45,0-3.54-2.04-2.53-4.58-4.59-7.04-6.68-1.2-1.02-2.39-2.05-3.5-3.16-.52-.52-1.02-1.06-1.49-1.62-.13-.15-.25-.3-.37-.46,.38,.48-.02-.04-.07-.12-.22-.31-.43-.63-.63-.96-.68-1.12-2.27-1.64-3.42-.9s-1.63,2.23-.9,3.42h0Z"/><path class="cls-1" d="M105.77,52.4c.32,.1,.63,.21,.94,.33,.26,.1,.14,.07-.05-.02,.15,.08,.3,.14,.45,.21,.58,.29,1.14,.61,1.69,.96,.29,.19,.58,.38,.86,.59,.14,.1,.29,.21,.43,.31,.08,.06,.48,.37,.09,.06,.54,.42,1.07,.86,1.59,1.31,2.15,1.85,4.16,3.86,6.4,5.61,1.03,.8,2.55,1.08,3.54,0,.82-.9,1.1-2.67,0-3.54-4.71-3.69-8.69-8.81-14.6-10.64-1.25-.39-2.78,.46-3.08,1.75-.31,1.36,.41,2.66,1.75,3.08h0Z"/><path class="cls-1" d="M87.77,59.25c2.04,2.99,5.24,4.92,8.28,6.77,1.6,.98,3.22,1.94,4.77,2.99,.39,.26,.77,.54,1.15,.82,.08,.06,.61,.47,.23,.17,.18,.14,.36,.28,.53,.43,.68,.57,1.32,1.17,1.92,1.82,.91,1,2.61,.92,3.54,0,.99-.99,.91-2.54,0-3.54-2.52-2.76-5.84-4.72-9.01-6.64-1.5-.91-3.01-1.82-4.44-2.85-.14-.1-.29-.21-.43-.32-.47-.35,.25,.22-.15-.12-.31-.26-.61-.51-.91-.78-.28-.26-.54-.53-.8-.81-.1-.11-.19-.24-.29-.35-.12-.14-.08-.09,.12,.15-.07-.09-.14-.19-.2-.29-.76-1.11-2.2-1.61-3.42-.9-1.1,.65-1.66,2.3-.9,3.42h0Z"/><path class="cls-1" d="M74.17,72.65c2.71,1.88,5.69,3.35,8.54,5,1.41,.81,2.78,1.67,4.09,2.64,.23,.17-.26-.22,.1,.08,.17,.14,.33,.27,.49,.41,.26,.23,.52,.46,.77,.7s.47,.47,.69,.72c.13,.15,.25,.29,.37,.45-.26-.33-.09-.1,.05,.11,.76,1.11,2.2,1.61,3.42,.9,1.1-.65,1.66-2.3,.9-3.42-3.96-5.81-11.33-8.04-16.9-11.9-1.08-.75-2.82-.23-3.42,.9-.67,1.28-.25,2.62,.9,3.42h0Z"/><path class="cls-1" d="M58.16,80.26c2.37,1.84,4.83,3.55,7.25,5.31,.55,.4,1.09,.8,1.63,1.21,.16,.12,.32,.24,.47,.36-.21-.16-.07-.05,.06,.05,.28,.22,.56,.44,.83,.67,1.13,.92,2.22,1.88,3.26,2.91,.93,.92,2.62,1,3.54,0s.99-2.55,0-3.54c-2.11-2.1-4.48-3.93-6.88-5.69-1.12-.82-2.26-1.63-3.39-2.44-.58-.42-1.16-.84-1.74-1.26-.29-.21-.58-.42-.86-.64-.13-.1-.25-.19-.38-.29-.01-.01-.62-.47-.25-.19-1.03-.8-2.54-1.08-3.54,0-.82,.89-1.1,2.68,0,3.54h0Z"/><path class="cls-1" d="M50.66,90.26c1.96,1.94,4.27,3.48,6.53,5.03,.53,.36,1.06,.73,1.59,1.1,.26,.18,.52,.37,.77,.56,.13,.09,.25,.19,.38,.28,.07,.06,.15,.11,.22,.17l-.21-.16c.21,.04,.54,.43,.71,.58,.25,.21,.5,.43,.74,.65,.45,.41,.87,.84,1.27,1.3,.86,.99,2.67,.95,3.54,0,.97-1.06,.92-2.48,0-3.54-1.74-2-3.99-3.54-6.16-5.03-1.07-.73-2.14-1.46-3.19-2.22-.25-.19-.53-.36-.77-.57,.46,.41-.01-.01-.09-.08-.12-.1-.24-.2-.36-.3-.5-.41-.97-.85-1.43-1.3-.93-.92-2.62-1-3.54,0s-.99,2.55,0,3.54h0Z"/><path class="cls-1" d="M46.17,101.65c3.43,2.44,7.07,4.56,10.5,7,1.07,.76,2.83,.22,3.42-.9,.68-1.29,.24-2.61-.9-3.42-3.43-2.44-7.07-4.56-10.5-7-1.07-.76-2.83-.22-3.42,.9-.68,1.29-.24,2.61,.9,3.42h0Z"/><path class="cls-3" d="M107.59,333.73c.26,.36,.04,.1-.02-.18-.04-.17-.06-.33-.11-.49-.34-1.09-1.33-1.89-2.49-1.9-1.88-.02-2.75,1.57-3.31,3.1-.76,2.12-1.22,4.34-1.53,6.56-.78,5.52-.79,11.11-.44,16.66,.68,10.5,2.45,21.14,5.65,31.18,.71,2.23,1.75,4.38,3.6,5.88,2.43,1.96,5.47,2.56,8.49,2.96,1.34,.18,2.5-1.27,2.5-2.5,0-1.5-1.15-2.32-2.5-2.5-2.01-.26-3.78-.66-5.27-1.75,.35,.25-.39-.38-.5-.49s-.2-.22-.29-.33c.35,.42-.08-.13-.12-.19-.19-.32-.38-.64-.55-.97-.07-.14-.13-.28-.19-.42,.19,.44-.11-.32-.14-.41-1.31-3.71-2.22-7.69-3.05-11.54-1.99-9.3-3.13-18.93-2.81-28.45,.15-4.55,.58-9,2.34-13.29l-.64,1.1-.09,.07-1.26,.34h.12c-.59-.26-1.18-.5-1.77-.75l.08,.06-.64-1.1c.27,.64,.2,1.25,.64,1.86,.78,1.1,2.18,1.62,3.42,.9,1.08-.63,1.69-2.32,.9-3.42h0Z"/><path class="cls-3" d="M131.02,346.16c4.67,15.72,5.35,32.18,6.6,48.43,.36,4.64,.76,9.28,1.31,13.91,.16,1.34,1.04,2.5,2.5,2.5,1.23,0,2.66-1.15,2.5-2.5-1.96-16.65-2.09-33.49-4.94-50.04-.79-4.6-1.82-9.15-3.15-13.62-.92-3.08-5.74-1.77-4.82,1.33h0Z"/><path class="cls-3" d="M154.02,317.33s-.02,.07-.04,.1l.25-.6c-.06,.13-.12,.24-.21,.35l.39-.51c-.08,.09-.16,.17-.25,.25l.51-.39c-.14,.11-.29,.2-.46,.27l.6-.25c-.24,.1-.48,.16-.73,.19l.66-.09c-.42,.05-.84,.04-1.26-.02l.66,.09c-.56-.08-1.11-.24-1.64-.45l.6,.25c-.14-.06-.28-.12-.42-.19-.61-.3-1.26-.44-1.93-.25-.58,.16-1.21,.61-1.49,1.15-.31,.58-.46,1.28-.25,1.93,.19,.59,.57,1.21,1.15,1.49,.71,.35,1.45,.66,2.22,.82,.71,.15,1.47,.27,2.2,.2,.86-.08,1.69-.23,2.44-.7,.9-.56,1.47-1.33,1.81-2.32,.21-.59,.05-1.4-.25-1.93s-.9-1.01-1.49-1.15c-.64-.15-1.36-.11-1.93,.25s-.92,.85-1.15,1.49h0Z"/><path class="cls-3" d="M152.43,295.49s0,.07,0,.11l.09-.66s-.02,.09-.03,.13l.25-.6s-.03,.05-.04,.07l.39-.51s-.03,.04-.05,.06l.51-.39s-.04,.03-.07,.04l.6-.25s-.07,.02-.11,.03l.66-.09c-.06,0-.13,0-.19,0l.66,.09c-.14-.02-.28-.07-.42-.12l.6,.25c-.2-.09-.4-.19-.58-.31-.29-.18-.6-.28-.93-.3-.33-.07-.66-.06-1,.04-.33,.08-.61,.23-.85,.45-.27,.18-.49,.41-.64,.7l-.25,.6c-.12,.44-.12,.89,0,1.33l.25,.6c.22,.38,.52,.67,.9,.9,.17,.11,.36,.21,.55,.3,.26,.12,.53,.24,.81,.33,.07,.02,.15,.04,.23,.06,.2,.03,.59,.12,.86,.1,.16-.01,.52-.06,.67-.09,0,0,.01,0,.02,0,.02,0,.03,0,.05-.01,.23-.07,.46-.16,.67-.28s.41-.27,.58-.45c0,0,.01-.01,.02-.02l.39-.51s0-.01,.01-.02c0-.02,.02-.03,.03-.05,.06-.12,.21-.48,.26-.61,0-.01,0-.02,.01-.03,0-.02,.01-.04,.02-.06,.05-.27,.1-.54,.1-.81,.01-.34-.06-.67-.22-.96-.1-.31-.27-.58-.52-.8-.23-.24-.49-.42-.8-.52-.3-.16-.62-.23-.96-.22l-.66,.09c-.42,.12-.79,.33-1.1,.64l-.39,.51c-.23,.39-.34,.81-.34,1.26h0Z"/><path class="cls-3" d="M155.77,271.58c-.39,.09-.78,.17-1.17,.22l.66-.09c-1.72,.23-3.48,.19-5.19-.03l.66,.09c-.38-.05-.76-.11-1.13-.19-.67-.13-1.32-.1-1.93,.25-.52,.3-1.01,.9-1.15,1.49-.28,1.24,.37,2.81,1.75,3.08,2.87,.56,5.96,.7,8.83,0,1.27-.31,2.15-1.82,1.75-3.08-.43-1.32-1.71-2.08-3.08-1.75h0Z"/><path class="cls-3" d="M152.67,233.65c.08,.05,.17,.11,.25,.17l-.51-.39c.09,.07,.17,.14,.24,.22l-.39-.51s.07,.09,.09,.15l-.25-.6s.02,.06,.03,.1l-.09-.66s0,.06,0,.09l.09-.66s-.01,.06-.03,.09l.25-.6s-.03,.06-.05,.09l.39-.51s-.08,.09-.13,.13l.51-.39c-.13,.1-.27,.17-.42,.23l.6-.25c-.72,.3-1.53,.42-2.3,.53l.66-.09c-.88,.12-1.78,.2-2.67,.2-.64,0-1.31,.28-1.77,.73s-.76,1.15-.73,1.77,.24,1.32,.73,1.77,1.09,.73,1.77,.73c1.28,0,2.58-.16,3.85-.37,1.65-.27,3.62-.86,4.14-2.67,.22-.78,.09-1.58-.3-2.27-.32-.57-.88-1.02-1.42-1.35s-1.31-.42-1.93-.25c-.58,.16-1.21,.61-1.49,1.15-.31,.58-.46,1.28-.25,1.93s.58,1.15,1.15,1.49h0Z"/><path class="cls-3" d="M152.52,214.66c5.3,15.86,11.93,31.43,12.91,48.34,.19,3.2,5.19,3.22,5,0-.51-8.69-2.3-17.21-4.84-25.52-2.49-8.14-5.56-16.08-8.25-24.14-1.01-3.04-5.85-1.73-4.82,1.33h0Z"/><path class="cls-3" d="M35.17,108.15c3.06,1.83,6.21,3.61,9.6,4.75,1.24,.42,2.79-.48,3.08-1.75,.32-1.38-.42-2.63-1.75-3.08-.39-.13-.77-.27-1.15-.42-.11-.04-.7-.29-.32-.13s.03,.01-.05-.02c-.09-.04-.19-.08-.28-.12-.8-.36-1.59-.75-2.37-1.15-1.44-.75-2.85-1.57-4.24-2.4-1.12-.67-2.79-.29-3.42,.9s-.3,2.7,.9,3.42h0Z"/><path class="cls-3" d="M49.77,93.75c1.14,1.86,2.93,3.24,4.72,4.44,1.65,1.11,3.4,2.06,5.18,2.95,1.17,.59,2.76,.35,3.42-.9,.6-1.13,.35-2.8-.9-3.42-1.69-.85-3.36-1.75-4.94-2.8-.39-.26-.77-.52-1.15-.8-.14-.1-.5-.43,.07,.06-.08-.07-.18-.14-.26-.21-.17-.14-.34-.28-.5-.42-.32-.28-.63-.58-.92-.9-.13-.14-.24-.29-.37-.43,.57,.66,.09,.1-.03-.1-.68-1.11-2.27-1.64-3.42-.9s-1.63,2.23-.9,3.42h0Z"/><path class="cls-3" d="M92.27,55.25c1.73,2.27,3.85,3.99,6.12,5.69,.5,.37,.99,.77,1.5,1.13-.22-.16-.3-.24-.04-.03,.11,.09,.22,.18,.33,.26,.26,.21,.53,.43,.78,.65,.45,.38,.89,.78,1.3,1.2,.22,.22,.43,.44,.64,.68,.11,.13,.22,.25,.33,.39,.1,.12,.43,.55,.03,.03,.41,.54,.81,.96,1.49,1.15,.6,.16,1.4,.09,1.93-.25,1.03-.66,1.74-2.31,.9-3.42-1.73-2.27-3.85-3.99-6.12-5.69-.5-.37-.99-.77-1.5-1.13,.22,.16,.3,.24,.04,.03-.11-.09-.22-.18-.33-.26-.26-.21-.53-.43-.78-.65-.45-.38-.89-.78-1.3-1.2-.22-.22-.43-.44-.64-.68-.11-.13-.22-.25-.33-.39-.1-.12-.43-.55-.03-.03-.41-.54-.81-.96-1.49-1.15-.6-.16-1.4-.09-1.93,.25-1.03,.66-1.74,2.31-.9,3.42h0Z"/><path class="cls-3" d="M111.77,44.9c.42,.12,.85,.35,1.27,.44-.09-.02-.5-.22-.19-.08,.09,.04,.18,.08,.27,.12,.2,.09,.39,.19,.59,.3,.77,.41,1.51,.88,2.22,1.38,1.44,1,2.8,2.11,4.25,3.08,1.09,.73,2.82,.25,3.42-.9,.67-1.26,.27-2.64-.9-3.42-1.5-1-2.89-2.14-4.37-3.17-1.6-1.11-3.34-2.04-5.22-2.59-1.25-.37-2.78,.44-3.08,1.75s.4,2.68,1.75,3.08h0Z"/><path class="cls-3" d="M29.6,134.9c-1.45,.34-2.39-.48-2.8-1.52,.03,.09,.05,.18,.07,.27,.08,.34-.04-.79-.03-.2,0,.16,.02,.31,.02,.47,.02,.81-.02,1.61-.07,2.42-.14,2.28-.38,4.55-.63,6.82-.44,4.07-1.2,8.22-1.22,12.32-.02,3.22,4.98,3.22,5,0,.04-7.21,2.11-14.34,1.92-21.56-.06-2.06-.99-4.46-3.58-3.85-3.13,.74-1.81,5.56,1.33,4.82h0Z"/><path class="cls-3" d="M29.16,180.76c.54,.44,1.07,.9,1.56,1.4,.22,.23,.43,.46,.64,.7,.06,.07,.34,.49,.14,.17s.06,.1,.11,.17c.15,.23,.3,.46,.42,.7,.06,.12,.11,.24,.17,.35,.14,.26-.19-.59-.05-.1,.07,.24,.13,.47,.2,.71,.12,.42,0-.46-.01-.16,0,.12,.02,.24,.02,.36,0,.23-.06,.5-.03,.72-.01-.1,.11-.56,.02-.23-.04,.15-.07,.29-.11,.44-.03,.1-.07,.19-.1,.29-.15,.51,.26-.5,0,0-.12,.23-.23,.45-.36,.67-.08,.13-.16,.25-.24,.37,0,.01-.35,.49-.13,.2s-.12,.15-.17,.2c-.11,.13-.22,.26-.34,.38-.54,.59-1.13,1.12-1.75,1.63-1.01,.84-.93,2.68,0,3.54,1.08,.99,2.46,.89,3.54,0,2.44-2.02,4.77-4.85,4.67-8.21s-2.25-5.88-4.67-7.83c-1.02-.82-2.56-1.07-3.54,0-.84,.91-1.09,2.66,0,3.54h0Z"/><path class="cls-3" d="M53.27,277.75c4.37,6.01,8.89,11.98,14.39,17.01,1,.91,2.55,.99,3.54,0,.92-.92,1-2.62,0-3.54-5.27-4.82-9.48-10.33-13.61-15.99-.79-1.09-2.17-1.63-3.42-.9-1.08,.63-1.7,2.32-.9,3.42h0Z"/><path class="cls-5" d="M135.1,225.49c1.52,12.34,.29,24.75-.36,37.1-.18,3.41-.31,6.82-.31,10.23,0,1.31,1.15,2.56,2.5,2.5s2.5-1.1,2.5-2.5c.01-12.27,1.62-24.48,1.39-36.76-.07-3.54-.29-7.07-.72-10.58-.16-1.29-1.04-2.57-2.5-2.5-1.22,.05-2.67,1.11-2.5,2.5h0Z"/><path class="cls-5" d="M117.6,215.08c-1.79,.33-3.52,.9-5.2,1.58-2.12,.86-4.18,1.84-6.12,3.06-3.52,2.22-7.39,5.44-8.31,9.73-.55,2.55,0,5.14,1.47,7.3,.73,1.08,2.23,1.66,3.42,.9,1.07-.69,1.68-2.26,.9-3.42-.27-.39-.49-.8-.71-1.22-.18-.35,.08,.2,.09,.23-.03-.12-.1-.24-.14-.36-.07-.2-.13-.4-.18-.6-.07-.29-.05-.86-.04-.05,0-.2-.04-.4-.04-.59,0-.18,0-.35,0-.53,0-.1,.02-.19,.02-.29,.03-.46-.13,.65-.02,.2,.09-.39,.17-.77,.3-1.14,.03-.08,.06-.15,.08-.22,.14-.43-.24,.49-.09,.21,.11-.2,.19-.41,.3-.61,.2-.37,.43-.73,.68-1.07,.05-.07,.1-.14,.15-.21,.28-.39-.33,.39-.11,.14,.16-.18,.31-.38,.48-.56,.63-.7,1.31-1.34,2.04-1.94,.16-.13,.84-.54,.18-.16,.19-.11,.36-.27,.54-.4,.43-.31,.86-.6,1.3-.89,.85-.54,1.73-1.05,2.63-1.51,.42-.22,.85-.43,1.28-.63,.2-.09,.4-.19,.61-.28,.13-.06,.27-.12,.4-.18,.43-.19-.53,.22-.06,.03,1.77-.72,3.59-1.34,5.47-1.69,1.29-.24,2.14-1.87,1.75-3.08-.45-1.38-1.69-2-3.08-1.75h0Z"/><path class="cls-5" d="M154.93,349.66c-.79,.02-1.38,.29-2.09,.6-.43,.19-.86,.39-1.3,.57l.6-.25c-.5,.21-1.02,.4-1.55,.48l.66-.09c-.11,.01-.21,.02-.32,.02l1.26,.34c-.34-.17-.7-.34-1-.57l.51,.39s-.08-.06-.11-.11l.39,.51s-.01-.02-.02-.04l.25,.6s0-.01,0-.02l.09,.66s0-.01,0-.02l-.09,.66h0c-.08,.19-.17,.39-.25,.59h0c-.13,.16-.26,.33-.39,.5,0,0,0-.01,.01-.01l-.51,.39s.02-.01,.03-.02l-.6,.25s.06-.02,.09-.02l-.66,.09c.34-.04,.7,.02,1.04,.06,.43,.05,.86,.1,1.29,.1,.64,0,1.32-.28,1.77-.73s.76-1.15,.73-1.77-.24-1.32-.73-1.77-1.09-.73-1.77-.73c-.52,0-1.04-.08-1.56-.13-.96-.09-1.93,.02-2.66,.74-.3,.3-.55,.72-.66,1.13-.06,.22-.09,.46-.09,.69,0,.69,.29,1.37,.78,1.85,.3,.3,.68,.55,1.06,.76,.18,.1,.36,.19,.54,.28,.42,.21,.89,.36,1.37,.34,.29-.01,.6-.07,.87-.11,.31-.05,.62-.13,.92-.23,.89-.31,1.73-.73,2.59-1.1l-.6,.25c.22-.09,.44-.18,.67-.22l-.66,.09s.06,0,.1,0c.65-.01,1.3-.27,1.77-.73,.43-.43,.76-1.15,.73-1.77s-.24-1.32-.73-1.77-1.1-.75-1.77-.73h0Z"/><path class="cls-5" d="M153,332.67c-.39,.19-.79,.36-1.18,.53l.6-.25c-1.01,.42-2.02,.85-3.07,1.16-.17,.05-.35,.11-.53,.13l.66-.09s-.08,0-.12,0l.66,.09s-.02,0-.03,0l.6,.25s0,0-.01,0l.51,.39s0,0,0,0l.39,.51s0,0,0,0l.25,.6s0,0,0,0l.09,.66s0,0,0,0l-.09,.66s0-.01,0-.02l-.25,.6s.02-.03,.02-.04l-.39,.51c.05-.06,.12-.11,.18-.16l-.51,.39c.44-.34,.94-.61,1.43-.89,.54-.31,.98-.89,1.15-1.49,.1-.33,.12-.66,.04-1-.02-.33-.11-.64-.3-.93-.34-.53-.86-1-1.49-1.15s-1.33-.09-1.93,.25c-.37,.21-.74,.42-1.09,.66s-.7,.46-.99,.75c0,0-.02,.02-.03,.03-.08,.08-.35,.43-.41,.53,0,0,0,.02-.01,.02-.04,.06-.24,.54-.26,.61s-.09,.61-.09,.68c0,.23,.02,.46,.09,.68,.2,.63,.58,1.17,1.16,1.51,.38,.23,.9,.38,1.35,.36,.28-.01,.56-.06,.83-.11,.47-.09,.92-.27,1.37-.43,.61-.22,1.21-.46,1.81-.71,.71-.29,1.43-.58,2.12-.92,.29-.16,.53-.37,.7-.64,.22-.24,.37-.52,.45-.85,.1-.33,.12-.66,.04-1-.02-.33-.11-.64-.3-.93-.34-.53-.86-1-1.49-1.15l-.66-.09c-.45,0-.87,.12-1.26,.34h0Z"/><path class="cls-5" d="M151.44,382.9c-.23,.46-.51,.9-.8,1.32-.08,.12-.17,.23-.26,.35l.39-.51c-.15,.19-.3,.39-.49,.54l.51-.39s-.06,.05-.1,.06l.6-.25s-.03,.01-.04,.01l.66-.09s-.01,0-.02,0l.66,.09s-.01,0-.02,0l.6,.25s0,0-.01,0l.51,.39s0,0-.01-.01l.39,.51s0-.01-.01-.02l.25,.6s0-.03-.01-.04l.09,.66c0-.05,0-.11,0-.16l-.09,.66c.02-.17,.08-.35,.13-.51,.09-.29,.2-.57,.31-.85,.1-.33,.12-.66,.04-1-.02-.33-.11-.64-.3-.93-.16-.29-.37-.53-.64-.7-.24-.22-.52-.37-.85-.45l-.66-.09c-.45,0-.87,.12-1.26,.34l-.51,.39c-.31,.31-.52,.68-.64,1.1-.11,.27-.22,.55-.31,.83-.05,.17-.1,.34-.13,.51-.04,.24-.08,.49-.1,.73,0,.03,0,.05,0,.08,.03,.51,.1,.9,.36,1.35,.34,.58,.89,1.01,1.53,1.18,.47,.13,.92,.12,1.39,0,.5-.13,.92-.43,1.29-.78,.1-.09,.18-.19,.27-.29,.36-.43,.69-.87,1-1.34,.22-.33,.42-.67,.6-1.02,.18-.29,.28-.6,.3-.93,.07-.33,.06-.66-.04-1-.08-.33-.23-.61-.45-.85-.18-.27-.41-.49-.7-.64l-.6-.25c-.44-.12-.89-.12-1.33,0l-.6,.25c-.38,.22-.67,.52-.9,.9h0Z"/><path class="cls-5" d="M157.76,396.83c.16,1.86,.17,3.72,.01,5.58-.03,.42-.08,.83-.13,1.25-.04,.29-.03,.28,0-.04-.01,.1-.03,.21-.04,.31-.04,.24-.07,.48-.11,.73-.15,.9-.34,1.79-.56,2.67s-.47,1.75-.76,2.61c-.15,.46-.32,.92-.49,1.37-.07,.19-.15,.39-.23,.58-.03,.07-.31,.7-.07,.17-.76,1.68-1.6,3.29-2.61,4.83-.72,1.09-.25,2.81,.9,3.42,1.25,.66,2.65,.27,3.42-.9,4.32-6.53,6.36-14.81,5.67-22.59-.11-1.3-1.07-2.56-2.5-2.5-1.26,.06-2.62,1.1-2.5,2.5h0Z"/><path class="cls-5" d="M161.19,276.16c.13,.6,.24,1.21,.34,1.82,.05,.32,.11,.65,.16,.97,.02,.14,.04,.29,.06,.43,.07,.49-.02-.21,.01,.1,.14,1.29,.28,2.58,.36,3.87,.17,2.61,.19,5.22,.13,7.84-.11,5.38-.56,10.74-.86,16.1-.17,2.95-.29,5.91-.3,8.87,0,1.31,1.15,2.56,2.5,2.5s2.5-1.1,2.5-2.5c.01-10.72,1.65-21.41,1.07-32.14-.17-3.08-.53-6.17-1.16-9.19-.27-1.28-1.85-2.14-3.08-1.75-1.36,.44-2.03,1.7-1.75,3.08h0Z"/><path class="cls-5" d="M97.76,285.49c0,10.77,.81,21.54,.23,32.3-.08,1.44-.18,2.87-.32,4.3-.07,.71-.14,1.42-.23,2.14-.05,.39-.1,.79-.15,1.18,.01-.11,.06-.46,0,.04-.03,.24-.07,.47-.1,.71-.19,1.29,.32,2.75,1.75,3.08,1.19,.27,2.87-.36,3.08-1.75,1.61-10.81,1.19-21.73,.9-32.62-.08-3.13-.15-6.25-.15-9.38,0-1.31-1.15-2.56-2.5-2.5s-2.5,1.1-2.5,2.5h0Z"/><path class="cls-5" d="M31.16,247.26c.8,.87,1.57,1.77,2.3,2.7,.08,.1,.16,.2,.24,.31,.25,.31-.36-.47,.03,.03,.16,.21,.32,.42,.47,.63,.37,.5,.74,1.01,1.1,1.52,1.41,2,2.74,4.06,4.04,6.13,2.57,4.08,5.03,8.24,7.94,12.09,1.59,2.11,3.27,4.14,5.21,5.93,.96,.89,2.6,1.02,3.54,0,.89-.96,1.03-2.59,0-3.54-.81-.74-1.57-1.53-2.3-2.34-.35-.39-.68-.78-1.01-1.18-.18-.21-.35-.43-.53-.65-.1-.12-.19-.24-.29-.37-.04-.06-.37-.48-.15-.19,.24,.32-.14-.18-.15-.2-.08-.1-.15-.2-.23-.3-.15-.2-.3-.41-.45-.61-.38-.52-.75-1.04-1.11-1.57-.67-.97-1.32-1.96-1.96-2.95-2.66-4.12-5.13-8.35-7.94-12.37-1.6-2.3-3.31-4.54-5.21-6.6-.89-.97-2.65-.97-3.54,0-.95,1.03-.95,2.51,0,3.54h0Z"/><path class="cls-5" d="M10.52,142.16c-2.01,7.31-5.13,14.34-6.11,21.91-.24,1.81-.27,3.63,.11,5.42,.27,1.28,1.84,2.15,3.08,1.75,1.35-.44,2.04-1.7,1.75-3.08-.03-.15-.06-.3-.09-.45-.08-.39,.06,.7,.01,.07-.02-.34-.05-.67-.05-1.01,0-.75,.05-1.5,.13-2.25,.01-.1,.04-.21,.04-.3,0-.02-.08,.57-.04,.28,.03-.21,.06-.41,.09-.62,.07-.45,.16-.91,.25-1.36,.17-.87,.37-1.73,.59-2.59,.94-3.72,2.18-7.37,3.38-11.02,.59-1.8,1.18-3.61,1.68-5.44,.35-1.26-.43-2.78-1.75-3.08s-2.71,.4-3.08,1.75h0Z"/><path class="cls-5" d="M111,14.67c-6.45,3.43-12.83,6.98-19.09,10.75-6.62,3.98-13.11,8.18-19.37,12.71s-12.65,9.63-18.45,15.06c-5.68,5.32-10.92,11.08-15.53,17.35s-8.25,12.69-11.06,19.73c-.34,.85-.66,1.71-.97,2.57-.44,1.23,.5,2.79,1.75,3.08,1.41,.32,2.6-.43,3.08-1.75,.31-.86,.63-1.72,.97-2.57,.08-.19,.15-.38,.23-.57,.04-.11,.09-.22,.14-.33,.17-.41-.02,.04-.05,.11,.17-.44,.37-.87,.57-1.3,.75-1.67,1.55-3.32,2.41-4.94,1.72-3.24,3.64-6.36,5.74-9.37,.53-.76,1.08-1.52,1.63-2.27,.25-.34,.5-.68,.76-1.01,.15-.19,.29-.39,.44-.58-.35,.43,.04-.04,.16-.21,1.16-1.48,2.36-2.94,3.59-4.36,2.5-2.88,5.13-5.64,7.87-8.3s5.61-5.22,8.54-7.69c1.46-1.23,2.95-2.43,4.45-3.62,.37-.29,.74-.58,1.11-.87,.07-.05,.39-.3,.12-.09s.05-.04,.12-.09c.2-.15,.4-.31,.6-.46,.77-.59,1.55-1.17,2.33-1.75,6.18-4.57,12.59-8.82,19.15-12.83s12.61-7.42,19.05-10.88c.74-.4,1.49-.8,2.23-1.19,1.16-.62,1.61-2.32,.9-3.42-.76-1.18-2.18-1.55-3.42-.9h0Z"/><path class="cls-5" d="M117.83,33.93c5.45,6.12,11.61,11.55,18,16.67,1.02,.82,2.55,1.07,3.54,0,.83-.91,1.09-2.66,0-3.54-6.39-5.12-12.55-10.55-18-16.67-.87-.98-2.66-.96-3.54,0-.96,1.05-.93,2.49,0,3.54h0Z"/><path class="cls-5" d="M97.1,38.83c.05,3.34,2.34,6.05,4.78,8.08s5.16,3.65,7.79,5.41c1.09,.73,2.81,.25,3.42-.9,.66-1.26,.27-2.65-.9-3.42-1.1-.73-2.22-1.43-3.33-2.15-.61-.4-1.22-.81-1.82-1.23-.3-.21-.6-.43-.9-.65-.08-.06-.17-.13-.25-.19,.28,.21,.34,.26,.19,.15-.14-.11-.29-.23-.43-.34-.55-.45-1.09-.92-1.6-1.42-.24-.24-.48-.49-.7-.74-.09-.11-.18-.22-.28-.32-.29-.33,.36,.5-.03-.04-.18-.25-.35-.51-.51-.78-.06-.11-.12-.23-.18-.34-.29-.59,.14,.42,0,.02-.09-.25-.17-.5-.23-.76s0-.62,0,.13c0-.16-.02-.32-.03-.48-.02-1.31-1.14-2.56-2.5-2.5s-2.52,1.1-2.5,2.5h0Z"/><path class="cls-5" d="M115.76,376.83c0,10.11,.3,20.28,1.23,30.35,.22,2.33,.48,4.67,.86,6.98,.21,1.29,1.88,2.13,3.08,1.75,1.4-.45,1.98-1.69,1.75-3.08-.07-.4-.13-.81-.19-1.21-.03-.19-.12-1.01-.02-.12-.03-.25-.06-.5-.1-.75-.13-1.03-.23-2.05-.33-3.08-.22-2.32-.39-4.65-.54-6.97-.33-5.22-.53-10.45-.64-15.67-.06-2.73-.1-5.46-.1-8.19,0-1.31-1.15-2.56-2.5-2.5s-2.5,1.1-2.5,2.5h0Z"/><path class="cls-5" d="M88.7,338.39c-.78-.96-2.01-1.59-3.27-1.24-1.44,.4-2.01,1.71-2.15,3.06-.17,1.69,.21,3.49,.46,5.15,.14,.94,.3,1.87,.45,2.81,.06,.37,.12,.74,.17,1.11,.01,.09,.03,.18,.04,.27,.05,.35-.06-.46-.05-.41,.03,.17,.04,.35,.06,.52,.31,3.17,.67,6.33,1.05,9.49,.5,4.09,.97,8.21,.98,12.34l3.16-2.41c-1.25-.53-2.6-.78-3.94-.99-.91-.14-1.82-.26-2.73-.37-.2-.03-.39-.05-.59-.08-.71-.09,.38,.06-.07,0-.36-.05-.72-.1-1.08-.16-.67-.11-1.34-.23-2-.4-.3-.08-.6-.17-.89-.27s-.5-.36,.06,.04c-.1-.07-.24-.11-.35-.17s-.22-.12-.33-.18c-.27-.16-.36-.42,.09,.1-.1-.11-.67-.7-.34-.29s.05,.04-.01-.06c-.3-.46,.13,.52,.06,.16-.02-.11-.05-.29-.09-.38,.06,.5,.08,.61,.05,.35,0-.07,0-.15,0-.22-.02-1.31-1.13-2.56-2.5-2.5s-2.52,1.1-2.5,2.5c.05,2.97,2.24,4.76,4.89,5.58,1.11,.34,2.26,.52,3.41,.69,.78,.11,1.57,.21,2.35,.32,.17,.02,.35,.05,.52,.07,.28,.04-.32-.04-.29-.04,.07,.01,.15,.02,.22,.03,.32,.05,.63,.09,.95,.14,1.29,.2,2.59,.46,3.79,.96,1.53,.64,3.17-.96,3.16-2.41-.02-6.83-1.24-13.58-1.91-20.36-.16-1.63-.35-3.24-.61-4.85-.14-.87-.28-1.74-.41-2.61-.03-.2-.05-.4-.08-.59,.16,.91,.03,.19,0-.03-.05-.39-.09-.79-.12-1.18-.03-.36-.05-.73-.05-1.09,0-.15,.02-.29,.02-.44,0-.2-.2,.79-.02,.26,.08-.25,.13-.15-.19,.43,.17-.31-.46,.53-.3,.37-.64,.64-1.67,.79-2.43,.47-.47-.2-.29-.13-.18-.07,.26,.15-.55-.54-.31-.24,.1,.13,.23,.24,.34,.37,.83,1.02,2.69,.93,3.54,0,.99-1.08,.88-2.45,0-3.54h0Z"/><path class="cls-2" d="M82.26,69.99c.54-.07,1.07-.07,1.61-.05,.58,.02-.38-.08-.05-.02,.14,.03,.29,.05,.43,.08,.26,.06,.51,.12,.77,.2,.2,.06,.55,.29,.75,.27-.21,.02-.4-.18-.02,0,.11,.05,.22,.11,.33,.16,.52,.27,1.02,.57,1.51,.9,.23,.16,.47,.32,.69,.49,.05,.04,.38,.3,.13,.09-.28-.22,.14,.12,.2,.16,.45,.37,.88,.75,1.31,1.14,.89,.81,1.74,1.66,2.59,2.51,.93,.93,2.62,.99,3.54,0s.99-2.55,0-3.54c-3.61-3.61-8.17-8.13-13.77-7.4-.69,.09-1.26,.22-1.77,.73-.43,.43-.76,1.15-.73,1.77,.05,1.21,1.11,2.68,2.5,2.5h0Z"/><path class="cls-2" d="M59.83,76.59c4.1,3.43,7.9,7.23,11.33,11.33,.84,1.01,2.68,.93,3.54,0,.98-1.07,.9-2.46,0-3.54-3.43-4.1-7.23-7.9-11.33-11.33-1-.84-2.57-1.06-3.54,0-.85,.92-1.07,2.64,0,3.54h0Z"/><path class="cls-2" d="M41.83,105.26c2.61,3.26,5.58,6.22,9.17,8.39,1.12,.68,2.8,.29,3.42-.9s.3-2.7-.9-3.42c-.81-.49-1.57-1.03-2.33-1.58,.64,.46,0,0-.16-.13-.18-.15-.36-.3-.54-.45-.38-.32-.74-.65-1.1-.99-1.46-1.38-2.78-2.89-4.03-4.45-.37-.47-1.2-.73-1.77-.73-.61,0-1.35,.27-1.77,.73s-.76,1.1-.73,1.77c.03,.7,.29,1.22,.73,1.77h0Z"/><path class="cls-2" d="M47.67,96.32c3.53,2.13,6.75,4.69,10.6,6.25,.56,.23,1.43,.04,1.93-.25s1.01-.9,1.15-1.49c.15-.64,.11-1.36-.25-1.93s-.86-.89-1.49-1.15c-.25-.1-.21-.08,.14,.06-.1-.04-.21-.09-.31-.14-.21-.09-.41-.19-.62-.29-.42-.21-.83-.43-1.23-.66-.84-.48-1.65-.99-2.46-1.52-1.64-1.07-3.25-2.19-4.92-3.2-1.12-.68-2.8-.29-3.42,.9s-.3,2.7,.9,3.42h0Z"/><path class="cls-2" d="M20.77,133.42c.24,.35,.44,.71,.62,1.09,.27,.54-.21-.58,0,.01,.09,.25,.18,.5,.26,.76,.13,.43,.24,.86,.33,1.3,.05,.25,.1,.51,.14,.76,.01,.09,.03,.17,.04,.26,.07,.44-.08-.69,0,0,.28,2.36,.24,4.75,.12,7.12-.26,5.2-.99,10.36-1.3,15.56-.16,2.64-.18,5.25,.19,7.87,.18,1.3,1.91,2.12,3.08,1.75,1.43-.46,1.94-1.68,1.75-3.08,.13,.96,.01,.05-.01-.17-.02-.25-.04-.5-.06-.76-.03-.54-.05-1.07-.06-1.61-.01-1.15,.03-2.31,.09-3.46,.14-2.61,.4-5.21,.66-7.82,.49-4.99,1.12-10.12,.58-15.13-.26-2.4-.72-4.95-2.12-6.98-.74-1.08-2.23-1.67-3.42-.9-1.07,.69-1.69,2.27-.9,3.42h0Z"/><path class="cls-2" d="M60.11,268.09c3,4.85,6.77,9.15,10.73,13.23,1.9,1.96,3.84,3.88,5.74,5.83,.95,.98,1.89,1.96,2.81,2.97,.47,.51,.92,1.05,1.36,1.59,.16,.2,.33,.41,.49,.61,.39,.49-.22-.29,.01,.02,.13,.17,.26,.34,.39,.52,1.18,1.61,2.09,3.29,2.99,5.05-.38-.75-.03-.06,.04,.13,.07,.18,.13,.35,.19,.53,.13,.38,.25,.77,.35,1.16,.09,.36,.17,.71,.24,1.08,.03,.17,.06,.33,.09,.5,.04,.21,.01,.51-.03-.28,0,.11,.03,.22,.04,.33,.32,2.95-.2,5.91-.55,8.84-.59,4.91-.54,9.73,.17,14.63,.19,1.3,1.9,2.13,3.08,1.75,1.42-.46,1.95-1.68,1.75-3.08-.03-.17-.05-.34-.07-.52-.06-.41,.07,.61,0-.04-.04-.3-.07-.59-.1-.89-.07-.66-.13-1.32-.17-1.98-.07-1.09-.11-2.18-.1-3.27,0-1.9,.14-3.81,.35-5.7,.33-2.99,.91-6.01,.71-9.03-.61-9.44-8.26-16.19-14.47-22.48-2.16-2.19-4.3-4.39-6.31-6.72-.51-.59-1.02-1.19-1.51-1.8-.23-.28-.45-.56-.67-.84-.45-.56,.3,.4-.14-.17-.13-.17-.26-.34-.39-.52-.96-1.29-1.87-2.62-2.71-3.99-.69-1.11-2.27-1.64-3.42-.9s-1.63,2.23-.9,3.42h0Z"/><path class="cls-2" d="M103.1,242.16c-.65,5.37-.1,10.85,.47,16.2,.31,2.92,.29,5.87,.31,8.8s0,5.96-.05,8.93c-.16,11.85-.6,23.7-.06,35.54,.31,6.87,.97,13.72,2.09,20.51,.21,1.29,1.88,2.13,3.08,1.75,1.4-.45,1.98-1.69,1.75-3.08-.12-.74-.24-1.48-.35-2.22-.05-.33-.1-.66-.14-.98-.03-.2-.06-.41-.09-.61-.02-.15-.08-.56-.03-.2-.2-1.51-.38-3.02-.53-4.54-.31-2.97-.53-5.94-.69-8.92-.31-5.84-.37-11.68-.33-17.53s.19-11.85,.28-17.77,.25-11.78-.02-17.65c-.07-1.56-.32-3.12-.47-4.67s-.28-3.14-.36-4.71c-.16-2.95-.2-5.93,.16-8.86,.16-1.3-1.26-2.56-2.5-2.5-1.49,.07-2.33,1.1-2.5,2.5h0Z"/><path class="cls-2" d="M129.1,352.16c.54,9.23,.75,18.47,1.13,27.7s.94,18.71,2.19,28c.68,5.03,1.55,10.04,2.77,14.97,.32,1.27,1.81,2.15,3.08,1.75s2.08-1.71,1.75-3.08c-1.06-4.26-1.86-8.57-2.49-12.91-.04-.29-.08-.57-.12-.86-.02-.11-.03-.22-.04-.32-.01-.08-.07-.53-.03-.21s-.02-.13-.03-.21c-.01-.11-.03-.22-.04-.33-.04-.33-.08-.65-.12-.98-.14-1.13-.27-2.26-.39-3.39-.24-2.29-.45-4.58-.63-6.88-.73-9.3-1.01-18.62-1.34-27.93-.18-5.11-.37-10.22-.67-15.32-.08-1.3-1.1-2.56-2.5-2.5-1.29,.06-2.58,1.1-2.5,2.5h0Z"/><path class="cls-2" d="M151.83,248.39c-.59,.59-1.2,1.18-1.87,1.7l.51-.39c-.28,.22-.57,.43-.9,.57l.6-.25c-.09,.04-.17,.07-.27,.08l.66-.09s-.09,0-.13,0l.66,.09s-.05-.01-.08-.02l.6,.25s-.04-.02-.05-.03l.51,.39s-.03-.03-.04-.05l.39,.51s-.03-.05-.04-.07l.25,.6s-.03-.09-.03-.13l.09,.66c-.01-.11,0-.23,0-.34l-.09,.66c.02-.12,.04-.25,.07-.37,.16-.64,.08-1.35-.25-1.93-.16-.29-.37-.53-.64-.7-.24-.22-.52-.37-.85-.45-.64-.15-1.36-.11-1.93,.25s-.99,.86-1.15,1.49c-.1,.42-.19,.86-.18,1.29,.03,.78,.27,1.51,.82,2.07,.51,.52,1.25,.84,1.98,.83,.03,0,.06,0,.08,0,.24-.02,.5-.05,.73-.1,.07-.02,.14-.04,.2-.07,.37-.15,.72-.29,1.04-.5,.34-.22,.67-.49,.99-.74,.36-.28,.7-.58,1.03-.89,.27-.25,.54-.51,.8-.78,.45-.45,.73-1.13,.73-1.77,.01-.34-.06-.67-.22-.96-.1-.31-.27-.58-.52-.8-.48-.44-1.1-.76-1.77-.73s-1.29,.25-1.77,.73h0Z"/><path class="cls-2" d="M152.77,281.56c-.17,.33-.36,.64-.58,.94l.39-.51c-.27,.34-.57,.65-.91,.91l.51-.39c-.33,.25-.68,.46-1.06,.62l.6-.25c-.46,.19-.94,.32-1.44,.39l.66-.09c-.58,.07-1.16,.06-1.74-.01l.66,.09c-.32-.04-.63-.1-.94-.18-.64-.16-1.35-.09-1.93,.25-.52,.3-1.01,.9-1.15,1.49-.29,1.29,.39,2.74,1.75,3.08,1.67,.41,3.56,.5,5.2-.1,1.85-.68,3.38-1.94,4.29-3.72,.31-.6,.43-1.26,.25-1.93-.16-.58-.61-1.21-1.15-1.49-1.14-.6-2.79-.35-3.42,.9h0Z"/><path class="cls-2" d="M150.43,302.83c0,.08,0,.16-.02,.24l.09-.66c-.02,.1-.04,.2-.08,.29l.25-.6c-.03,.07-.06,.13-.11,.19l.39-.51c-.04,.06-.09,.1-.15,.15l.51-.39c-.06,.05-.13,.09-.21,.12l.6-.25c-.12,.05-.25,.08-.38,.1l.66-.09c-.26,.03-.52,.02-.79-.02l.66,.09c-.55-.07-1.09-.23-1.61-.4-.33-.1-.66-.12-1-.04-.33,.02-.64,.11-.93,.3-.29,.16-.53,.37-.7,.64-.22,.24-.37,.52-.45,.85-.15,.64-.11,1.36,.25,1.93l.39,.51c.31,.31,.68,.52,1.1,.64,.47,.16,.95,.3,1.44,.38,.41,.07,.82,.14,1.24,.15,.37,0,.76-.05,1.11-.12,.33-.06,.67-.21,.96-.37,.15-.08,.28-.19,.41-.29s.27-.19,.38-.32c.38-.44,.61-.83,.8-1.39,.12-.35,.15-.74,.15-1.11,0-.64-.28-1.32-.73-1.77-.23-.24-.49-.42-.8-.52-.3-.16-.62-.23-.96-.22-.65,.03-1.32,.24-1.77,.73s-.73,1.09-.73,1.77h0Z"/><path class="cls-2" d="M164.76,363.49s0-.09,0-.14c-.03-.24-.06-.48-.1-.72,0-.03,0-.05-.01-.08-.02-.1-.04-.2-.07-.31-.05-.17-.1-.35-.16-.52-.01-.04-.03-.09-.04-.13l.09,.66s0,0,0,0l-.09,.66s0,0,0,0l-.25,.6h0c-.13,.17-.26,.34-.39,.51h0c-.17,.13-.34,.26-.51,.39h0c-.42,.11-.84,.23-1.26,.34h0c-.22-.03-.44-.06-.66-.09h0c-.2-.08-.4-.17-.6-.25,0,0,0,0,0,0l-.51-.39s0,0,0,0l-.39-.51s.06,.1,.08,.15c.07,.14,.14,.28,.21,.42,.16,.29,.37,.53,.64,.7,.24,.22,.52,.37,.85,.45,.33,.1,.66,.12,1,.04,.33-.02,.64-.11,.93-.3l.51-.39c.31-.31,.52-.68,.64-1.1l.09-.66c0-.45-.12-.87-.34-1.26-.08-.16-.16-.33-.25-.49-.01-.03-.03-.05-.04-.08-.12-.18-.24-.37-.39-.51,0,0-.51-.39-.51-.39h0c-.2-.08-.4-.17-.6-.25,0,0-.66-.09-.66-.09,0,0-.66,.09-.66,.09l-.6,.25h0s-.51,.39-.51,.39-.39,.51-.39,.51c-.25,.39-.24,.54-.3,.93l-.04,.33h0s0,0,0,0c-.01,.33,.05,.57,.15,.84,.04,.12,.08,.24,.12,.37,.05,.16,.09,.33,.11,.49l-.09-.66c0,.06,.01,.13,.01,.19-.01,.34,.06,.67,.22,.96,.1,.31,.27,.58,.52,.8,.23,.24,.49,.42,.8,.52,.3,.16,.62,.23,.96,.22l.66-.09c.42-.12,.79-.33,1.1-.64l.39-.51c.23-.39,.34-.81,.34-1.26h0Z"/><path class="cls-2" d="M165.43,381.49v-1.99c0-.64-.28-1.31-.73-1.77s-1.15-.76-1.77-.73-1.32,.24-1.77,.73-.73,1.09-.73,1.77v6.66c0,.64,.28,1.31,.73,1.77s1.15,.76,1.77,.73,1.32-.24,1.77-.73,.73-1.09,.73-1.77v-6.66c0-.64-.28-1.31-.73-1.77s-1.15-.76-1.77-.73-1.32,.24-1.77,.73-.73,1.09-.73,1.77v1.99c0,.64,.28,1.31,.73,1.77s1.15,.76,1.77,.73,1.32-.24,1.77-.73,.73-1.09,.73-1.77h0Z"/><path class="cls-2" d="M38.7,118.39c-2.91-2.51-6.39-3.99-10.08-4.93-3.43-.87-6.96-1.37-10.36-2.38-1.25-.37-2.78,.45-3.08,1.75s.4,2.68,1.75,3.08c3.28,.97,6.66,1.47,9.98,2.29,.79,.19,1.58,.41,2.35,.65,.4,.13,.8,.26,1.19,.4,.21,.08,.42,.16,.63,.24l.18,.07c.26,.11,.24,.1-.06-.03,.32,.02,.76,.35,1.05,.49,.4,.21,.8,.42,1.19,.66,.33,.2,.66,.42,.98,.65,.18,.13,.46,.35,.13,.08,.21,.17,.42,.34,.62,.51,.99,.85,2.58,1.04,3.54,0,.86-.94,1.06-2.62,0-3.54h0Z"/><path class="cls-4" d="M125.93,216.99c.2,14.83,.62,29.66,1.22,44.48,.59,14.72,1.36,29.43,2.22,44.13,.49,8.3,1.01,16.59,1.56,24.88,.09,1.3,1.09,2.56,2.5,2.5,1.28-.06,2.59-1.1,2.5-2.5-.97-14.82-1.88-29.65-2.65-44.48s-1.39-29.42-1.82-44.13c-.24-8.29-.42-16.59-.53-24.88-.02-1.31-1.14-2.56-2.5-2.5s-2.52,1.1-2.5,2.5h0Z"/><path class="cls-4" d="M109.93,227.99c0,9.5-.1,19-.19,28.5s-.17,19-.12,28.5,.21,18.91,.6,28.35c.19,4.66,.36,9.31,.36,13.97s-.08,9.36-.11,14.05,0,9.47,.23,14.19c.1,2.16,.22,4.29,.19,6.45-.02,2.02,.08,4.14,.84,6.03,.49,1.21,1.1,2.21,1.93,3.23s2.69,.92,3.54,0c1-1.08,.88-2.45,0-3.54,.28,.35-.19-.28-.2-.29-.13-.2-.25-.4-.36-.61-.03-.05-.33-.74-.13-.23-.08-.21-.16-.42-.22-.63-.13-.42-.22-.86-.3-1.29-.13-.7,.02,.51-.02-.21-.02-.3-.05-.59-.06-.89-.04-.9-.02-1.81,0-2.71,.02-1.12-.04-2.22-.11-3.34-.27-4.68-.34-9.38-.34-14.07,.01-9.24,.28-18.48-.14-27.72-.86-18.7-.78-37.43-.61-56.14,.1-10.53,.22-21.07,.22-31.6,0-1.31-1.15-2.56-2.5-2.5s-2.5,1.1-2.5,2.5h0Z"/><path class="cls-4" d="M157.93,274.49c-.31,0-.63,.07-.93,.12-.16,.02-.31,.05-.47,.07-.42,.07-.83,.15-1.25,.22-.37,.07-.74,.14-1.1,.22-.1,.02-.21,.04-.31,.07-.22,.06-.46,.16-.65,.27s-.36,.24-.51,.39h0c-.14,.16-.27,.33-.39,.51,0,0-.25,.6-.25,.6l-.04,.33c-.06,.22-.06,.44,0,.66,.06,.44,0,.23,.17,.63,.15,.35,.18,.49,.52,.8,0,0,.51,.39,.51,.39,0,0,.6,.25,.6,.25,0,0,.66,.09,.67,.09,0,0,0,0,.01,0,.01,0,.03,0,.04,0,.28-.02,.55-.07,.82-.11,.25-.03,.49-.08,.74-.12,.33-.08,.61-.23,.85-.45,.27-.18,.49-.41,.64-.7,.18-.29,.28-.6,.3-.93,.07-.33,.06-.66-.04-1l-.25-.6c-.22-.38-.52-.67-.9-.9l-.6-.25c-.44-.12-.89-.12-1.33,0-.26,.04-.53,.09-.79,.12l.66-.09s-.1,.02-.15,.01l.66,.09s0,0,0,0l.6,.25h0c.17,.13,.34,.26,.51,.39h0c.21,.37,.43,.73,.64,1.1h0v1.33h0c-.21,.37-.43,.73-.64,1.1,0,0,0,0,0,0l-.51,.39s0,0,0,0l-.6,.25c.09-.04,.2-.05,.3-.07,.21-.05,.41-.09,.62-.13,.52-.1,1.04-.2,1.57-.29,.23-.04,.47-.08,.7-.11l-.66,.09c.08-.01,.17-.02,.25-.02,.34,.01,.67-.06,.96-.22,.31-.1,.58-.27,.8-.52,.24-.23,.42-.49,.52-.8,.16-.3,.23-.62,.22-.96l-.09-.66c-.12-.42-.33-.79-.64-1.1-.49-.45-1.09-.74-1.77-.73h0Z"/><path class="cls-4" d="M160.93,264.99c-1.56,0-3.11-.13-4.66-.3-.38-.04-.75-.09-1.13-.14-.28-.04-.23-.03,.15,.02-.11-.02-.23-.03-.34-.05-.17-.02-.34-.05-.51-.07-.78-.11-1.55-.24-2.33-.37-.68-.11-1.31-.11-1.93,.25-.52,.3-1.01,.9-1.15,1.49-.27,1.21,.37,2.85,1.75,3.08,3.35,.56,6.76,1.08,10.16,1.09,1.31,0,2.56-1.15,2.5-2.5s-1.1-2.5-2.5-2.5h0Z"/><path class="cls-4" d="M157.43,237.49s.02,0,.03,0v-5c-1.66,.05-3.32,.04-4.97,.25-.85,.11-1.55,.21-2.33,.59-.54,.26-1,.94-1.15,1.49-.16,.6-.09,1.4,.25,1.93s.86,1,1.49,1.15c.69,.16,1.29,.05,1.93-.25,.02,0,.03-.01,.05-.02l-.6,.25c.32-.13,.68-.18,1.02-.22l-.66,.09c1.65-.22,3.31-.21,4.97-.25,.65-.02,1.3-.27,1.77-.73,.43-.43,.76-1.15,.73-1.77-.06-1.38-1.1-2.47-2.5-2.5-.01,0-.02,0-.03,0-.64,0-1.31,.28-1.77,.73s-.76,1.15-.73,1.77c.06,1.35,1.1,2.5,2.5,2.5h0Z"/><path class="cls-4" d="M158.27,249.08c-2.16,.54-4.34,.96-6.5,1.5-1.27,.32-2.15,1.81-1.75,3.08s1.71,2.08,3.08,1.75c2.16-.54,4.34-.96,6.5-1.5,1.27-.32,2.15-1.81,1.75-3.08s-1.71-2.08-3.08-1.75h0Z"/><path class="cls-4" d="M149.43,215.99h-3c-.64,0-1.31,.28-1.77,.73-.24,.23-.42,.49-.52,.8-.16,.3-.23,.62-.22,.96,.03,.65,.24,1.32,.73,1.77s1.09,.73,1.77,.73h3c.64,0,1.31-.28,1.77-.73,.24-.23,.42-.49,.52-.8,.16-.3,.23-.62,.22-.96-.03-.65-.24-1.32-.73-1.77s-1.09-.73-1.77-.73h0Z"/><path class="cls-4" d="M153.93,340.49c-.33,0-.65,.07-.97,.13-.19,.03-.38,.07-.57,.11-.52,.11-1.04,.22-1.55,.35-.47,.11-.94,.23-1.4,.37-.33,.1-.68,.23-.98,.39-.22,.11-.42,.26-.58,.44-.03,.04-.37,.47-.4,.51l-.25,.6h0s-.09,.66-.09,.67c-.03,.67,.29,1.3,.74,1.78,.48,.53,1.16,.71,1.85,.75,.08,0,.15,0,.23,0,.33-.02,.66-.06,.98-.1,.34,.01,.67-.06,.96-.22,.31-.1,.58-.27,.8-.52,.24-.23,.42-.49,.52-.8,.16-.3,.23-.62,.22-.96-.03-.65-.24-1.32-.73-1.77l-.51-.39c-.39-.23-.81-.34-1.26-.34-.28,.03-.56,.07-.84,.09-.13,0-.27,.02-.4,0l.66,.09s-.03,0-.04,0l.6,.25s0,0-.01,0l.51,.39s0,0,0,0l.39,.51s0,0,0,0l.25,.6h0c.03,.22,.06,.44,.09,.66,0,0,0,0,0,0l-.09,.66s0,0,0,0l-.25,.6s0,0,0,0l-.39,.51s.01-.01,.02-.02l-.51,.39s.07-.04,.1-.05l-.6,.25c.46-.19,.97-.3,1.46-.42,.63-.15,1.25-.3,1.88-.43,.24-.05,.47-.1,.71-.13l-.66,.09s.08-.01,.12-.01c.64,0,1.31-.28,1.77-.73,.24-.23,.42-.49,.52-.8,.16-.3,.23-.62,.22-.96-.03-.65-.24-1.32-.73-1.77s-1.09-.74-1.77-.73h0Z"/><path class="cls-4" d="M150.66,368.72c-.1,.09-.2,.18-.3,.27l.51-.39c-.25,.19-.51,.34-.8,.46l.6-.25c-.34,.14-.69,.24-1.06,.29l.66-.09c-.33,.04-.66,.04-1,0l.66,.09c-.27-.04-.53-.11-.79-.21l.6,.25c-.2-.08-.38-.18-.56-.3-.53-.34-1.33-.42-1.93-.25s-1.21,.61-1.49,1.15c-.31,.58-.46,1.28-.25,1.93s.58,1.13,1.15,1.49c.36,.23,.76,.39,1.16,.55,.21,.08,.43,.15,.65,.19,.41,.08,.84,.14,1.26,.15s.84-.07,1.26-.13c.61-.09,1.18-.33,1.74-.6s1.04-.64,1.46-1.05c.45-.45,.73-1.13,.73-1.77s-.27-1.35-.73-1.77-1.1-.76-1.77-.73-1.28,.26-1.77,.73h0Z"/><path class="cls-4" d="M156.43,389.49c-.32,0-.64-.04-.96-.08l.66,.09c-1.39-.19-2.79-.5-4.2-.5-.64,0-1.32,.28-1.77,.73s-.76,1.15-.73,1.77,.24,1.32,.73,1.77,1.09,.73,1.77,.73c.54,0,1.08,.06,1.61,.13l-.66-.09c.55,.07,1.1,.16,1.64,.25,.63,.09,1.27,.21,1.91,.21s1.32-.28,1.77-.73,.76-1.15,.73-1.77-.24-1.32-.73-1.77-1.09-.73-1.77-.73h0Z"/><path class="cls-4" d="M127.27,414.23c-.54,1.26-1.13,2.5-1.84,3.68-.28,.47-.59,.94-.92,1.38-.03,.05-.07,.09-.11,.14-.22,.31,.39-.48,.21-.27-.08,.09-.16,.2-.24,.29-.15,.18-.31,.36-.48,.53-.14,.14-.28,.28-.42,.41-.26,.24-.82,.57-.05,.07-.31,.2-.6,.4-.93,.58-.55,.3,.62-.21,.09-.04-.17,.05-.33,.11-.51,.15-.07,.02-.14,.03-.21,.04-.41,.1,.72-.06,.4-.05-.17,0-.34,.03-.51,.02-.15,0-.3-.03-.45-.03,1,.02,.46,.07,.13,0-.15-.04-.3-.08-.45-.13-.08-.03-.16-.06-.24-.09-.26-.09,.72,.34,.28,.11-.32-.16-.63-.33-.93-.52-.15-.1-.3-.21-.45-.32-.27-.19,.59,.48,.24,.19-.09-.07-.18-.14-.26-.22-.67-.58-1.28-1.23-1.85-1.92-.16-.2-.7-.92-.1-.11-.15-.21-.31-.41-.46-.62-.32-.44-.62-.88-.91-1.33-1.3-2-2.41-4.12-3.43-6.27-.57-1.2-1.1-2.41-1.62-3.63-.16-.37,.26,.62,.03,.07-.06-.14-.12-.28-.18-.43-.13-.32-.26-.64-.39-.96-.26-.65-.52-1.3-.77-1.95-1.92-4.98-3.57-10.06-5.07-15.18-1.04-3.57-2.03-7.15-2.87-10.77-.06-.24-.11-.49-.17-.73-.28-1.28-1.83-2.15-3.08-1.75-1.34,.43-2.05,1.71-1.75,3.08,.76,3.41,1.68,6.78,2.64,10.14,1.49,5.21,3.14,10.37,5.05,15.45s4,10.18,6.86,14.8c1.15,1.86,2.46,3.72,4.05,5.23,1.33,1.26,2.97,2.43,4.81,2.76,4.92,.9,8.26-3.33,10.23-7.26,.33-.66,.64-1.33,.93-2.02,.27-.65,.45-1.22,.25-1.93-.16-.58-.61-1.21-1.15-1.49-1.07-.57-2.87-.39-3.42,.9h0Z"/><path class="cls-4" d="M77.93,305.49c0,5.63,.19,11.27,.56,16.89,.28,4.28,.83,8.53,1.1,12.81,.39,6.29,.56,12.59,1.2,18.86,.15,1.48,.31,2.97,.61,4.43,.26,1.27,.69,2.39,1.77,3.18s2.83,.22,3.42-.9c.68-1.29,.24-2.6-.9-3.42,.63,.46,.59,.48,.41,.3,.57,.59,.42,.58,.29,.36-.22-.38,.25,.75,.09,.21-.11-.36-.2-.73-.28-1.1-.1-.49-.17-.99-.24-1.49s.09,.7,.02,.11c-.02-.14-.04-.28-.05-.43-.04-.34-.08-.68-.11-1.02-.33-3.13-.52-6.28-.69-9.42s-.31-6.07-.49-9.1c-.23-3.91-.73-7.79-1.01-11.7-.45-6.18-.68-12.38-.68-18.57,0-1.31-1.15-2.56-2.5-2.5s-2.5,1.1-2.5,2.5h0Z"/><path class="cls-4" d="M87.1,251.08c-1.59-.67-3.1,.84-3.44,2.25-.23,.94-.27,1.96-.31,2.92-.09,2.31-.02,4.63,.03,6.93,.02,.93,.05,1.87,.06,2.8,0,1.31,1.15,2.56,2.5,2.5s2.5-1.1,2.5-2.5c0-2.3-.11-4.6-.12-6.9,0-1.24,0-2.48,.08-3.71,.02-.22,.04-.44,.06-.66,.05-.54-.11,.63-.04,.27,.02-.09,.03-.18,.05-.27,.07-.32,.32-.61-.13,.2,.14-.25,.18-.11-.3,.37-.54,.55-1.6,.89-2.26,.61,1.21,.51,2.8-.55,3.08-1.75,.33-1.46-.45-2.53-1.75-3.08h0Z"/><path class="cls-4" d="M24.66,217.76c2.68,2.38,5.19,4.94,7.57,7.61,1.24,1.4,2.45,2.83,3.63,4.28,.61,.76,1.22,1.52,1.81,2.29,.04,.06,.32,.41,.13,.16-.18-.23,.04,.05,.06,.08,.15,.2,.3,.39,.45,.59,.3,.39,.59,.79,.89,1.18,4.68,6.3,8.91,12.94,12.66,19.83,1.95,3.58,3.77,7.24,5.41,10.98,.53,1.2,2.38,1.57,3.42,.9,1.25-.8,1.46-2.13,.9-3.42-3.02-6.89-6.64-13.53-10.64-19.91-4.25-6.78-8.95-13.31-14.19-19.35-2.67-3.08-5.51-6.04-8.56-8.75-.98-.87-2.58-1.04-3.54,0-.87,.95-1.04,2.61,0,3.54h0Z"/><path class="cls-4" d="M15.52,141.66c.19,.54,.35,1.1,.48,1.66,.06,.26,.12,.53,.16,.79,.02,.12,.04,.24,.06,.37,.03,.19,.07,.89,.02,.08,.08,1.26,.22,2.49,.2,3.76s-.12,2.63-.27,3.93c-.02,.18-.11,1.23-.05,.46-.03,.35-.1,.7-.15,1.05-.11,.71-.23,1.42-.37,2.12-1.08,5.76-2.78,11.38-4.31,17.04-.68,2.53-1.34,5.08-1.84,7.66-.53,2.75-.96,5.6-.7,8.4,.25,2.6,.95,5.06,2.6,7.12,1.24,1.54,3.07,2.61,5.03,2.9,6.35,.94,11.67-4.07,15.18-8.73,.79-1.05,.2-2.84-.9-3.42-1.32-.7-2.58-.22-3.42,.9-.41,.55,.32-.39-.1,.14-.12,.15-.25,.31-.37,.46-.2,.25-.41,.49-.63,.74-.48,.55-.99,1.08-1.52,1.58-.45,.43-.92,.83-1.4,1.23-.44,.37,.46-.33,0,0-.13,.09-.25,.19-.38,.28-.25,.18-.5,.34-.76,.51-.44,.28-.9,.53-1.37,.76-.12,.06-.25,.11-.37,.17-.36,.17,.21-.09,.23-.1-.28,.08-.56,.22-.84,.3-.42,.13-.85,.22-1.29,.31s.58-.05,.27-.03c-.09,0-.19,.02-.28,.03-.26,.02-.51,.03-.77,.02-.17,0-.36-.05-.53-.04,.65-.05,.53,.09,.25,.03-.1-.02-.2-.04-.3-.06-.17-.04-.33-.08-.49-.14-.1-.03-.19-.07-.29-.1-.4-.13,.57,.28,.22,.09-.32-.17-.63-.42-.96-.57,.56,.26,.39,.32,.18,.13-.08-.07-.16-.14-.23-.21-.16-.15-.3-.3-.44-.46-.2-.22-.12-.36,.12,.17-.04-.09-.14-.19-.19-.27-.11-.16-.21-.32-.3-.49-.12-.21-.22-.42-.33-.64-.02-.03-.06-.19-.1-.22,.17,.41,.21,.49,.11,.25-.03-.08-.06-.16-.09-.24-.17-.47-.3-.95-.4-1.43-.06-.26-.09-.53-.14-.79-.07-.35,.07,.67,.02,.14-.02-.21-.04-.42-.06-.62-.1-1.35-.04-2.72,.11-4.06,.02-.21,.19-1.24,.04-.35,.05-.29,.08-.57,.13-.86,.09-.57,.19-1.14,.31-1.71,.49-2.5,1.13-4.97,1.79-7.43,1.46-5.42,3.08-10.81,4.17-16.32s1.97-11.98,.05-17.58c-.42-1.23-1.74-2.18-3.08-1.75-1.22,.4-2.2,1.75-1.75,3.08h0Z"/></g></svg>