<?xml version="1.0" encoding="UTF-8"?><svg id="Layer_1" xmlns="http://www.w3.org/2000/svg" viewBox="0 0 185.54 432.38"><defs><style>.cls-1{fill:#0080b7;}.cls-2{fill:#f6851f;}.cls-3{fill:#fded1f;}.cls-4{fill:#9a4092;}.cls-5{fill:#7fc242;}</style></defs><path class="cls-5" d="M34.74,208.41c-8.98-4.12-19.43-3.65-26.88,3.39-2.86,2.71-3.73,6.88-4.28,10.6-.97,6.64-1.22,13.34-1.29,20.03-.16,14.65,1.07,29.29,1.24,43.94,.17,14.56-1.65,28.99-2.8,43.48-2.29,28.9,1.47,57.86,2.75,86.72,.33,7.5-.17,12.21,8.07,14.59,8.76,2.53,20.38,1.17,27.69-4.44,2.52-1.93,.04-6.28-2.52-4.32-6.83,5.23-16.88,5.94-24.95,3.61-3.3-.95-3.32-2.82-3.32-5.88,0-5.75-.34-11.48-.69-17.22-1.47-24.34-3.84-48.67-2.03-73.06,.84-11.31,2.2-22.57,2.69-33.91,.52-12.1-.31-24.24-.79-36.33-.46-11.73-.76-23.59,.69-35.27,.57-4.56,1.48-8.36,5.6-10.94,5.68-3.57,12.33-3.42,18.3-.68,2.91,1.33,5.45-2.97,2.52-4.32h0Z"/><path class="cls-5" d="M34.98,222.56c-.35,17.27,1.87,34.43,2.42,51.66,.58,18.45,.08,36.99,.08,55.45s.27,35.07,.57,52.61c.13,7.73,.05,15.47,.05,23.2,0,3.25-.75,6.17-4.12,7.09-2.59,.71-4.91,1.51-7.26,2.84-2.81,1.58-.29,5.9,2.52,4.32,4.13-2.33,8.76-2.18,11.79-6.14,3.54-4.64,1.93-12.48,2.04-17.85,.4-19.35-.59-38.75-.59-58.11v-57.55c0-19.2-2.89-38.28-2.5-57.5,.07-3.23-4.93-3.22-5,0h0Z"/><path class="cls-5" d="M37.31,390.65c-3.88,1.01-7.62,2.49-11.5,3.5-3.12,.81-1.79,5.64,1.33,4.82,3.88-1.01,7.62-2.49,11.5-3.5,3.12-.81,1.79-5.64-1.33-4.82h0Z"/><path class="cls-5" d="M36.21,376.41c-3,2.16-7.44,1.83-10.9,2.75-3.11,.82-1.79,5.65,1.33,4.82,3.95-1.05,8.65-.77,12.1-3.25,2.59-1.86,.1-6.2-2.52-4.32h0Z"/><path class="cls-5" d="M36.14,360.65c-1.71-.4-3.52,0-5.23,.19-1.78,.21-4.45,.8-6.17,.06-2.93-1.26-5.48,3.05-2.52,4.32,2.24,.96,4.54,.99,6.94,.8,1.13-.09,2.26-.24,3.38-.37,.47-.05,.93-.1,1.4-.14,.18-.02,1.33,.07,.87-.04,3.14,.73,4.47-4.09,1.33-4.82h0Z"/><path class="cls-5" d="M36.98,345.56c-3.69,.07-7.3,.94-11,1-3.22,.05-3.23,5.05,0,5,3.7-.06,7.31-.93,11-1,3.22-.06,3.23-5.06,0-5h0Z"/><path class="cls-5" d="M36.81,332.15c-3.67,1.28-7.17,1.23-10.57-.75-2.79-1.62-5.31,2.7-2.52,4.32,4.5,2.62,9.54,2.96,14.43,1.25,3.02-1.05,1.72-5.89-1.33-4.82h0Z"/><path class="cls-5" d="M35.14,316.15c-4.02-.98-8.1-.18-12.16-.59-3.21-.32-3.18,4.68,0,5,3.59,.36,7.31-.45,10.84,.41,3.13,.76,4.46-4.06,1.33-4.82h0Z"/><path class="cls-5" d="M37.64,290.15c-5.24-1.36-10.36-.19-15.66-.09-3.22,.06-3.23,5.06,0,5,4.79-.1,9.6-1.31,14.34-.09,3.12,.81,4.45-4.01,1.33-4.82h0Z"/><path class="cls-5" d="M35.31,269.15c-4.26,1.17-8.57-1.01-12.67-2-3.13-.75-4.46,4.07-1.33,4.82,5.11,1.23,10.02,3.46,15.33,2,3.11-.85,1.79-5.67-1.33-4.82h0Z"/><path class="cls-5" d="M33.21,246.41c-2.65,1.74-7.21,1.16-10.24,1.16-3.22,0-3.22,5,0,5,3.98,0,9.27,.44,12.76-1.84,2.69-1.76,.18-6.09-2.52-4.32h0Z"/><path class="cls-5" d="M35.48,228.06c-4.34-.03-8.66-.47-13-.5-3.23-.02-3.22,4.98,0,5,4.34,.03,8.66,.47,13,.5,3.23,.02,3.22-4.98,0-5h0Z"/><path class="cls-5" d="M37.98,214.56c-.16-3.12-.84-6.24-.09-9.34-.8,.61-1.61,1.22-2.41,1.84,7.14-.49,15.38-.4,18.56,7.2,3.82,9.12,2.8,20.98,3.1,30.61,.85,27.61-.51,55.19-.22,82.79,.24,21.84,.38,43.98,2.33,65.74,.63,7.03,1.12,14.14,.35,21.18-.33,3.05-1.11,6.53-3.1,8.96-2.92,3.56-9.15,2.42-11.37-1.23-1.67-2.75-6-.24-4.32,2.52,4.02,6.62,13.8,7.94,19.23,2.25,4.87-5.11,4.96-13.96,4.96-20.52,0-7.51-1.15-14.94-1.5-22.43-.72-15.51-1.01-31.09-1.39-46.62-.82-32.85,1.05-65.69-.17-98.55-.35-9.46,.31-21.18-4.86-29.61-4.23-6.91-12.89-7.7-20.21-7.36-.47,.03-.93,.06-1.4,.1-1.09,.07-2.14,.7-2.41,1.84-.87,3.58-.28,7.05-.09,10.66,.16,3.21,5.17,3.22,5,0h0Z"/><path class="cls-5" d="M40.89,422.73c.79-2.59,.88-5.37,1.5-8,.74-3.14-4.08-4.47-4.82-1.33-.62,2.63-.71,5.41-1.5,8-.95,3.09,3.88,4.4,4.82,1.33h0Z"/><path class="cls-5" d="M59.98,211.06c3.47,.11,11.44-1.22,13.87,2.09,1.5,2.04,1.67,5.21,1.91,7.61,.56,5.46,.49,11.01,.41,16.49-.16,11.02-1.08,22.02-1.5,33.03-.42,10.87-.03,21.74,.25,32.6,.55,22.14-.28,44.29,.06,66.43,.15,10.06,.14,20.16,.82,30.2,.52,7.61,.99,16.44-7.48,19.64-2.99,1.13-1.69,5.96,1.33,4.82,6.66-2.51,10.51-7.48,11.18-14.63,.93-9.9-.48-20.36-.68-30.29-.52-26.04,.37-52.08-.28-78.11-.3-12.19-.52-24.33,.06-36.52,.61-12.97,1.6-25.91,1.15-38.91-.19-5.37-.11-13.54-4.99-17.13-4.31-3.17-11.1-2.18-16.1-2.34-3.23-.1-3.22,4.9,0,5h0Z"/><path class="cls-5" d="M152.71,176.41c-3.3,2.05-7.06,3.55-9.86,6.31-2.97,2.93-3.12,7.77-2.67,11.61,1.09,9.25,10.6,11.39,14.13,19,1.36,2.92,5.66,.38,4.32-2.52-2.6-5.61-8.22-7.81-11.75-12.55-2.25-3.01-2.96-8.93-.49-12,2.03-2.51,6.15-3.85,8.84-5.52,2.73-1.7,.22-6.02-2.52-4.32h0Z"/><path class="cls-5" d="M151.56,210.9c-3.39,18.01-15.86,33.21-26.64,47.45-10.92,14.43-19.76,32.59-36.21,41.55-2.21,1.21-1.18,4.66,1.26,4.66h5c3.22,0,3.22-5,0-5h-5c.42,1.55,.84,3.11,1.26,4.66,16.49-8.99,25.21-26.36,36.1-40.83,11.61-15.42,25.38-31.65,29.05-51.16,.59-3.15-4.23-4.5-4.82-1.33h0Z"/><path class="cls-5" d="M165.82,215.8c-11.77,18.31-22.83,37.06-34.31,55.55-4.84,7.79-9.64,15.6-14.54,23.35-4.52,7.15-10.05,14.27-18.16,17.45,1.02,1.02,2.05,2.05,3.08,3.08-.44,.54-.32,.54,.35,0,2.71-1.73,.21-6.05-2.52-4.32-1.39,.89-2.05,1.44-2.65,2.99-.65,1.7,1.37,3.74,3.08,3.08,16.14-6.32,23.95-24.46,32.63-38.22,12.63-20.03,24.55-40.5,37.36-60.43,1.75-2.72-2.58-5.23-4.32-2.52h0Z"/><path class="cls-5" d="M173.32,213.3c-7.91,18.61-19.04,35.49-29.82,52.52-10.73,16.93-19.74,35.01-33.29,49.98-2.16,2.38,1.37,5.93,3.54,3.54,13.45-14.86,22.53-32.65,33.12-49.49,11.05-17.57,22.62-34.84,30.77-54.01,1.25-2.93-3.06-5.48-4.32-2.52h0Z"/><path class="cls-5" d="M161.32,207.83c4.58,7.37,16.26,4.13,20.78-1.79,7.06-9.25,1.21-22.25,.38-32.47-.12-1.49-1.06-2.33-2.5-2.5-5.25-.62-8.99,2.31-13.66,4.09-2.98,1.14-1.69,5.97,1.33,4.82,4.12-1.57,7.74-4.45,12.34-3.91-.83-.83-1.67-1.67-2.5-2.5,.6,7.35,2.94,14.43,2.92,21.85-.01,4.11-1.42,7.55-4.92,9.76-2.6,1.64-7.81,3.39-9.84,.12-1.7-2.73-6.02-.22-4.32,2.52h0Z"/><path class="cls-5" d="M107.89,283.73c1.97-9.02,3.44-20.51-.36-29.22-4.56-10.45-18.19-6.23-26.56-5.45-3.18,.3-3.21,5.3,0,5,6.98-.65,19.45-5.2,22.64,4.06,2.48,7.2,1.03,17.01-.55,24.27-.69,3.14,4.13,4.48,4.82,1.33h0Z"/><path class="cls-5" d="M104.56,328.4c-3.19,13.89,2.05,27.43,2.82,41.27,.37,6.62-.64,11.24-6.68,14.45-3.49,1.85-10.02,3.42-13.46,.68-2.49-1.99-6.06,1.52-3.54,3.54,8,6.38,22.27,1.49,27.04-6.81,3.54-6.17,1.48-15.7,.46-22.28-1.52-9.79-4.09-19.63-1.82-29.51,.72-3.14-4.1-4.47-4.82-1.33h0Z"/><path class="cls-5" d="M34.48,47.06c13.62,.96,26.24,10,37.6,16.86,12.71,7.68,23.57,17.75,33.39,28.82,5.15,5.8,9.42,12.33,13.99,18.58,4.31,5.91,9.2,11.05,14.1,16.46,8.27,9.14,20.23-4.47,29.67,1.44,2.74,1.72,5.25-2.61,2.52-4.32-4.92-3.08-9.71-3.06-15.13-1.35-3.22,1.01-6.21,2.34-9.63,2.51-2.9,.14-3.92-1.89-5.73-3.77-11-11.39-18.93-25.15-29.61-36.81-9.92-10.83-21.24-20.13-33.9-27.58-11.5-6.77-23.57-14.87-37.26-15.84-3.22-.23-3.2,4.77,0,5h0Z"/><path class="cls-5" d="M141.82,134.33c4.59,9.13,5.59,19.85,6.55,29.9,.33,3.46-.46,14.31,4.61,14.83,3.21,.33,3.17-4.67,0-5,2.3,.24,1.75,1.35,1.32-1.14-.3-1.76-.44-3.56-.61-5.34-.3-3.01-.52-6.04-.94-9.03-1.29-9.22-2.37-18.32-6.61-26.75-1.45-2.88-5.76-.35-4.32,2.52h0Z"/><path class="cls-5" d="M48.31,4.97c35.66,12.48,66.1,33.16,91.86,60.74,13.34,14.27,23.98,30.53,31.31,48.66,3.71,9.18,5.62,18.55,5.6,28.45-.01,9.02-.54,18.04,1.48,26.9,.72,3.14,5.54,1.81,4.82-1.33-2.15-9.43-1.23-19.18-1.31-28.77-.09-9.81-2.81-19.26-6.46-28.29-7.44-18.39-18.53-34.62-31.91-49.16C117.66,33.84,85.93,12.86,49.64,.15c-3.05-1.07-4.35,3.76-1.33,4.82h0Z"/><path class="cls-5" d="M43.81,10.47c25.91,10.47,49.82,25.44,70.81,43.87,10.61,9.31,20.2,19.63,28.91,30.73,4.28,5.45,8.52,10.98,11.52,17.25,2.52,5.26,4.64,10.67,8.65,15.01,2.19,2.37,5.72-1.17,3.54-3.54-3.98-4.3-5.99-10.07-8.48-15.28-2.96-6.18-7.52-11.59-11.69-16.98-8.99-11.62-19.15-22.16-30.18-31.84C95.68,31.07,71.29,16.22,45.14,5.65c-2.99-1.21-4.28,3.63-1.33,4.82h0Z"/><path class="cls-5" d="M150.14,109.65c-7.29-2.02-14.4,1.28-20.93,4.25-2.93,1.33-.39,5.64,2.52,4.32,5.22-2.37,11.22-5.37,17.07-3.75,3.11,.86,4.43-3.96,1.33-4.82h0Z"/><path class="cls-5" d="M137.81,95.65c-5.04,1-10.1,1.93-15,3.5-3.06,.98-1.75,5.81,1.33,4.82,4.9-1.57,9.96-2.5,15-3.5,3.16-.63,1.82-5.45-1.33-4.82h0Z"/><path class="cls-5" d="M123.98,80.06c-6.35,.2-11.71,3.04-17.26,5.84-2.88,1.45-.35,5.77,2.52,4.32,4.72-2.39,9.32-4.99,14.74-5.16,3.22-.1,3.23-5.1,0-5h0Z"/><path class="cls-5" d="M115.48,66.06c-8.3,.25-15.76,3.61-23.26,6.84-2.95,1.27-.4,5.58,2.52,4.32,6.66-2.87,13.37-5.94,20.74-6.16,3.22-.1,3.23-5.1,0-5h0Z"/><path class="cls-5" d="M95.31,51.65c-7.11,1.57-13.96,3.76-20.6,6.75-2.94,1.32-.39,5.63,2.52,4.32,6.24-2.81,12.73-4.78,19.4-6.25,3.15-.69,1.81-5.51-1.33-4.82h0Z"/><path class="cls-5" d="M80.48,45.56c-7.52-.19-13.05,5.24-18.76,9.34-2.6,1.86-.1,6.2,2.52,4.32,4.83-3.46,9.87-8.82,16.24-8.66,3.23,.08,3.22-4.92,0-5h0Z"/><path class="cls-5" d="M60.98,37.06c-5.88,.25-9.7,5.42-12.16,10.24-1.46,2.87,2.85,5.4,4.32,2.52,1.52-2.98,4.01-7.6,7.84-7.76,3.21-.14,3.23-5.14,0-5h0Z"/><path class="cls-5" d="M40.21,29.3c-3.66,4.59-6.38,10.37-7.64,16.1-.69,3.14,4.13,4.48,4.82,1.33,1.07-4.84,3.24-9.99,6.36-13.9,1.99-2.49-1.53-6.06-3.54-3.54h0Z"/><path class="cls-2" d="M169.73,137.73c2.22,6.23,2.88,13.78,2.41,20.34-.23,3.22,4.77,3.2,5,0,.5-6.94-.24-15.08-2.59-21.66-1.08-3.01-5.91-1.72-4.82,1.33h0Z"/><path class="cls-2" d="M169.73,190.73c.81,4.34-1.32,11.29-6.92,9.92-3.13-.77-4.46,4.06-1.33,4.82,9.65,2.36,14.6-7.91,13.08-16.08-.59-3.17-5.41-1.82-4.82,1.33h0Z"/><path class="cls-2" d="M124.37,271.8c-6.93,8.76-14.15,17.29-22.26,24.98-6,5.69-15.42,9.61-16.47,18.78-.37,3.2,4.64,3.16,5,0,.42-3.7,3.94-6.51,6.68-8.61,3.35-2.57,6.6-4.98,9.66-7.92,7.61-7.31,14.39-15.44,20.92-23.71,1.98-2.5-1.54-6.06-3.54-3.54h0Z"/><path class="cls-2" d="M92.73,331.9c-.45,3.06,0,6.24,.28,9.29,.45,4.81,.97,9.6,1.36,14.42,.37,4.63,.67,9.3,.4,13.95-.09,1.48-.28,2.94-.74,4.35-.01,.03-.6,1-.35,.71-.14,.16,.53,0-.05-.06-3.21-.27-3.19,4.73,0,5,8.21,.7,6.26-15.9,6-20.31-.32-5.28-.88-10.54-1.4-15.8-.22-2.19-.43-4.38-.58-6.58-.05-.81-.09-1.63-.11-2.44,0-.32,.11-1.96,0-1.2,.47-3.15-4.35-4.51-4.82-1.33h0Z"/><path class="cls-2" d="M49.14,323.06c1.44,17.98,3.16,35.94,5.13,53.87,.92,8.38,1.69,16.82,3.03,25.14,.53,3.3,1.15,6.84,.35,10.14-.33,1.34-1.07,2.69-1.96,3.73-1.07,1.24-1.22,.67-1.89-.64-1.46-2.88-5.77-.34-4.32,2.52,1.44,2.84,4.38,5.05,7.58,3.32,2.84-1.54,4.47-4.62,5.41-7.6,1.13-3.6,.42-7.73-.12-11.37-.71-4.81-1.31-9.63-1.87-14.46-2.48-21.51-4.61-43.07-6.34-64.66-.26-3.19-5.26-3.22-5,0h0Z"/><path class="cls-2" d="M31.88,305.91c-1.91,.9-4.15,1.13-6.24,1.16-3.22,.04-3.23,5.04,0,5,3.02-.04,6.02-.55,8.76-1.84,2.92-1.37,.38-5.68-2.52-4.32h0Z"/><path class="cls-2" d="M29.98,325.15c-2.02,.4-4.11,.85-6.17,.5-1.34-.23-2.69,.33-3.08,1.75-.33,1.21,.4,2.85,1.75,3.08,3.01,.51,5.86,.09,8.83-.5,3.16-.63,1.82-5.45-1.33-4.82h0Z"/><path class="cls-2" d="M33.14,353.06c-2.08,0-4.13,.11-6.16,.59-3.14,.74-1.81,5.57,1.33,4.82,1.61-.38,3.19-.41,4.84-.41,3.22,0,3.22-5,0-5h0Z"/><path class="cls-2" d="M25.98,238.3c-.14,.22-1.82,.2-2.16,.21-1.51,.03-3.03-.15-4.52-.36-1.35-.19-2.68,.31-3.08,1.75-.33,1.18,.39,2.89,1.75,3.08,3.78,.53,9.88,1.76,12.32-2.15,1.71-2.74-2.62-5.25-4.32-2.52h0Z"/><path class="cls-2" d="M27.98,216.65c-1.87,.38-3.76,.83-5.67,.5-1.34-.23-2.69,.34-3.08,1.75-.34,1.22,.4,2.84,1.75,3.08,2.87,.5,5.5,.07,8.33-.5,3.16-.64,1.82-5.46-1.33-4.82h0Z"/><path class="cls-2" d="M138.48,103.15c-3.25,1.03-6.63,1.52-10,2-1.35,.19-2.07,1.89-1.75,3.08,.4,1.44,1.73,1.94,3.08,1.75,3.37-.48,6.75-.96,10-2,3.06-.97,1.75-5.8-1.33-4.82h0Z"/><path class="cls-2" d="M123.73,90.23c-.09-.57-.11,.51,.01-.2-.1,.6,.25-.37-.05,.15,.26-.46-.03,0-.15,.11,.39-.36-.17,.07-.24,.11-.65,.36,.42-.13-.32,.15-.25,.1-.52,.17-.78,.24-.56,.16-1.14,.27-1.72,.37-1.34,.23-2.08,1.86-1.75,3.08,.39,1.41,1.73,1.98,3.08,1.75,1.83-.32,3.62-.84,5.1-2.02,1.58-1.27,1.96-3.14,1.65-5.05-.22-1.35-1.87-2.08-3.08-1.75-1.42,.39-1.97,1.73-1.75,3.08h0Z"/><path class="cls-2" d="M97.73,63.9s.15-.04,.15-.04c-.37,.15-.76,.19-1.15,.22-1.36,.1-2.73,0-4.09-.01-3.23-.02-3.22,4.98,0,5,3.58,.02,8.72,.6,9.91-3.84,.84-3.12-3.99-4.44-4.82-1.33h0Z"/><path class="cls-1" d="M11.14,334.56c.09,24.25,3.53,48.23,7.09,72.16,.47,3.18,5.29,1.82,4.82-1.33-3.5-23.5-6.82-47.03-6.91-70.84-.01-3.22-5.01-3.23-5,0h0Z"/><path class="cls-1" d="M30.88,399.91c-.15,.07-.3,.15-.44,.22-2.88,1.44-.35,5.75,2.52,4.32,.15-.07,.3-.15,.44-.22,2.88-1.44,.35-5.75-2.52-4.32-.15,.07-.3,.15-.44,.22-2.88,1.44-.35,5.75,2.52,4.32,.15-.07,.3-.15,.44-.22,2.88-1.44,.35-5.75-2.52-4.32h0Z"/><path class="cls-1" d="M30.14,295.56h-4.5c-1.36,0-2.5,1.14-2.5,2.5s1.14,2.5,2.5,2.5h4.5c1.36,0,2.5-1.14,2.5-2.5s-1.14-2.5-2.5-2.5h0Z"/><path class="cls-1" d="M41.73,219.23c5.11,22.63,4.94,46.33,2.91,69.34-.28,3.21,4.72,3.19,5,0,2.07-23.46,2.12-47.59-3.09-70.66-.71-3.14-5.53-1.81-4.82,1.33h0Z"/><path class="cls-1" d="M66.64,227.56c-.03,37.23-2,74.7,3.59,111.66,.48,3.18,5.3,1.82,4.82-1.33-5.52-36.49-3.44-73.58-3.41-110.34,0-3.22-5-3.22-5,0h0Z"/><path class="cls-1" d="M100.14,288.06c-.4-6.88,.99-13.88-.59-20.66-.73-3.14-5.55-1.81-4.82,1.33,1.47,6.28,.04,12.95,.41,19.34,.19,3.2,5.19,3.22,5,0h0Z"/><path class="cls-1" d="M158.91,198.8c-1.66-1.59-3.08-3.46-3.08-5.85,0-2.44,2.9-3.22,4.81-3.39,3.19-.28,3.21-5.28,0-5-4.23,.37-7.95,2.02-9.47,6.23-1.51,4.19,1.31,8.76,4.2,11.54,2.32,2.23,5.86-1.3,3.54-3.54h0Z"/><path class="cls-1" d="M148.98,117.15c-2.81,.95-5.57,1.97-8.5,2.5-3.17,.57-1.82,5.39,1.33,4.82,2.93-.53,5.69-1.55,8.5-2.5,3.04-1.02,1.74-5.85-1.33-4.82h0Z"/><path class="cls-3" d="M162.64,137.23c.05,8.3,1.4,16.5,2.76,24.66,.53,3.18,5.35,1.82,4.82-1.33-1.29-7.74-2.53-15.47-2.58-23.34-.02-3.22-5.02-3.23-5,0h0Z"/><path class="cls-3" d="M171.37,167.46c-1.56,1.45-3.84,2.36-5.78,3.14-2.21,.88-4.7,1.75-7.12,1.46-3.2-.39-3.16,4.61,0,5,3.05,.37,6.26-.76,9.05-1.88,2.59-1.04,5.32-2.27,7.39-4.19,2.37-2.2-1.18-5.73-3.54-3.54h0Z"/><path class="cls-3" d="M33.14,280.4s.04,0,.06,0c-.72-.41-1.44-.83-2.16-1.24,0,0,0,.01,.01,.02,.13-1.01,.26-2.02,.39-3.03,.04-.04,1.08-.58,.56-.41-.24,.08-.49,.14-.74,.2-.61,.15-1.21,.23-1.84,.28-.75,.06-1.54,.06-2.29-.07-1.31-.23-2.17,.26-2.93,1.27-1.05,1.38-.24,3.62,1.45,4.02,1.36,.32,2.83-.14,4.15-.47,3.13-.77,1.8-5.59-1.33-4.82-.54,.13-1.09,.26-1.64,.38-.36,.06-.4,.07-.11,.03-.51,0-.24,.1,.79,.28,.3,.3,.6,.6,.9,.9,0-.02-.02-.04-.03-.05,.08,.64,.17,1.28,.25,1.93-.09,.27-.22,.51-.4,.73-.81,.21-1.62,.43-2.43,.64,1.98,.35,3.84,.28,5.82-.02,1.12-.17,2.51-.44,3.35-1.26,.76-.74,1.02-2.12,.39-3.03-.58-.84-1.23-1.15-2.23-1.26-1.36-.15-2.5,1.25-2.5,2.5,0,1.48,1.15,2.35,2.5,2.5h0Z"/><path class="cls-3" d="M31.81,263.06h.06c3.22,0,3.22-5,0-5h-6.72c-3.22,0-3.22,5,0,5h6.72c3.22,0,3.22-5,0-5h-.06c-3.22,0-3.22,5,0,5h0Z"/><path class="cls-3" d="M30.48,321.49c-3.01,.71-6.24,1.19-9.34,1.24-3.22,.06-3.23,5.06,0,5,3.52-.07,7.24-.61,10.66-1.42,3.14-.74,1.81-5.57-1.33-4.82h0Z"/><path class="cls-3" d="M31.14,368.73c-2.89,.04-5.95,.45-8.59,1.67-1.24,.57-1.54,2.33-.9,3.42,.74,1.26,2.18,1.47,3.42,.9,1.5-.69,4.15-.97,6.07-.99,3.22-.04,3.23-5.04,0-5h0Z"/><path class="cls-3" d="M32.48,385.49c-2.69,.88-5.37,1.68-7.93,2.92-2.9,1.41-.36,5.72,2.52,4.32,2.16-1.05,4.46-1.67,6.74-2.41,3.05-1,1.74-5.83-1.33-4.82h0Z"/><path class="cls-3" d="M11.98,231.9c0,10.28,.2,20.56,.06,30.84-.19,13.95-.52,27.96,1.28,41.83,.41,3.15,5.41,3.19,5,0-1.8-13.87-1.47-27.88-1.28-41.83,.15-10.28-.06-20.56-.06-30.84,0-3.22-5-3.22-5,0h0Z"/><path class="cls-3" d="M51.98,262.56c2.22,19.89,.03,40.05,0,60,0,3.22,5,3.22,5,0,.03-19.95,2.22-40.11,0-60-.35-3.17-5.36-3.2-5,0h0Z"/><path class="cls-3" d="M79.31,303.23c2.62,23.95,1.96,48.08-.67,72-.35,3.2,4.65,3.17,5,0,2.63-23.92,3.28-48.05,.67-72-.35-3.17-5.35-3.2-5,0h0Z"/><path class="cls-3" d="M154.64,220.56c-1.18,11.6-9.22,21.43-16.45,30.01-7.51,8.91-16.02,17.5-21.2,28.06-1.42,2.88,2.9,5.42,4.32,2.52,10.47-21.29,35.79-35.49,38.34-60.6,.33-3.21-4.68-3.18-5,0h0Z"/><path class="cls-3" d="M114.48,74.73c-3.74,.09-7.68,1.49-10.43,4.07-2.36,2.21,1.19,5.74,3.54,3.54,1.77-1.66,4.5-2.54,6.9-2.6,3.22-.08,3.23-5.08,0-5h0Z"/><path class="cls-3" d="M79.88,49.07c-2.75,1.79-5.74,3.2-8.67,4.67-2.88,1.44-.35,5.76,2.52,4.32,2.93-1.46,5.92-2.88,8.67-4.67,2.69-1.75,.19-6.08-2.52-4.32h0Z"/><path class="cls-3" d="M66.04,38.8c-2.09,2.7-4.78,4.9-7.49,6.94-1.09,.82-1.65,2.14-.9,3.42,.63,1.07,2.33,1.72,3.42,.9,3.05-2.3,6.15-4.68,8.51-7.72,.83-1.08,1.05-2.48,0-3.54-.87-.87-2.7-1.08-3.54,0h0Z"/><path class="cls-3" d="M52.06,29.23c-1.26,3.06-3.05,5.86-5.36,8.23-2.25,2.31,1.28,5.85,3.54,3.54,2.94-3.02,5.05-6.55,6.64-10.44,.52-1.26-.55-2.75-1.75-3.08-1.43-.39-2.56,.49-3.08,1.75h0Z"/><path class="cls-4" d="M54.98,29.97c-1.92,3.16-4.08,6.17-6,9.33-1.68,2.76,2.65,5.27,4.32,2.52,1.92-3.16,4.08-6.17,6-9.33,1.68-2.76-2.65-5.27-4.32-2.52h0Z"/><path class="cls-4" d="M69.88,19.39c19.65,9.57,36.94,23.56,53.63,37.49,7.96,6.64,14.61,13.95,20.13,22.74,5.22,8.32,9.55,17.16,14.67,25.54,1.68,2.74,6.01,.23,4.32-2.52-5.13-8.38-9.5-17.19-14.67-25.54-5.52-8.89-12.26-16.51-20.28-23.22-17.19-14.39-35.02-28.94-55.28-38.81-2.89-1.41-5.42,2.91-2.52,4.32h0Z"/><path class="cls-4" d="M122.04,75c6.59,7.98,12.03,16.8,17.61,25.49,1.74,2.7,6.07,.2,4.32-2.52-5.82-9.06-11.52-18.19-18.39-26.51-2.06-2.49-5.57,1.07-3.54,3.54h0Z"/><path class="cls-4" d="M162.22,196.56c.68-3.17,1.88-17.84,8.16-11.48,2.01,2.03,2.44,5.68,2.71,8.37,.28,2.81,.23,5.63,.22,8.45,0,3.22,4.99,3.22,5,0,.02-7.22,.53-17.25-6.22-21.85-3.49-2.38-8.57-1.59-11,1.84-2.69,3.82-2.75,8.92-3.69,13.34-.67,3.14,4.15,4.48,4.82,1.33h0Z"/><path class="cls-4" d="M120.71,296.8c-9.92,9.15-21.93,17.2-27.72,29.84-.96,2.09,.58,4.03,2.82,3.67-.05,0,.21,.07,.3,.12-.47-.27,.16,.17,.28,.31-.32-.36,.21,.38,.27,.49,.59,1.06,.94,2.91,1.12,4.37,.64,5.16,.36,10.46,.11,15.64-.27,5.37-.71,10.73-.97,16.11-.17,3.59-.6,7.73,.49,11.22,.96,3.07,5.79,1.76,4.82-1.33-.99-3.17-.42-8-.21-11.73,.34-6.14,.84-12.26,1.05-18.41,.2-5.87,1.53-23.2-8.57-21.6,.94,1.22,1.88,2.45,2.82,3.67,5.6-12.23,17.35-19.98,26.94-28.83,2.38-2.19-1.17-5.72-3.54-3.54h0Z"/><path class="cls-4" d="M86.06,265.9c1.07,4.5,2.52,8.9,3.53,13.42,1.01,4.53,1.71,9.75-.61,13.99-1.55,2.83,2.77,5.35,4.32,2.52,5.32-9.74-.09-21.44-2.41-31.26-.74-3.14-5.56-1.81-4.82,1.33h0Z"/><path class="cls-4" d="M69.21,345.74c-2.53,1.32-1.07,7.84-.95,9.94,.4,6.71,.81,13.43,1.13,20.15,.34,7.37,.61,14.75,.49,22.12-.05,2.84-.16,5.69-.47,8.52-.08,.72-.26,1.75-.46,2.62-.28,1.15-.11,.85-.63,1.56-1.91,2.61,2.43,5.1,4.32,2.52,2.36-3.22,2.04-8.88,2.18-12.63,.27-7.19,.01-14.4-.28-21.58-.28-6.88-.69-13.76-1.1-20.64-.14-2.4-.29-4.79-.42-7.19-.04-.72-.07-1.45-.09-2.17-.05-1.87,.19,.38-1.19,1.1,2.86-1.49,.33-5.81-2.52-4.32h0Z"/><path class="cls-4" d="M44.64,351.9c.81,10.12,.37,20.31,.68,30.45,.3,9.83,.8,20.41,5,29.48,1.35,2.92,5.66,.38,4.32-2.52-3.9-8.42-4.06-18.59-4.34-27.69-.3-9.9,.13-19.84-.66-29.72-.25-3.19-5.26-3.22-5,0h0Z"/><path class="cls-4" d="M41.31,210.57c-.31,3.54,2.06,6.65,3.98,9.4,2.59,3.72,4.05,7.12,4.94,11.57,1.81,9.06,1.75,18.5,1.75,27.7,0,3.22,5,3.22,5,0,0-8.94-.17-17.88-1.53-26.73-.66-4.31-1.65-8.43-3.92-12.19-1.68-2.78-5.52-6.26-5.22-9.75,.28-3.21-4.72-3.19-5,0h0Z"/><path class="cls-4" d="M14.04,218.8c-3.08,3.26-4.21,7.49-2.64,11.77,1.1,3,5.93,1.71,4.82-1.33-.96-2.61-.58-4.86,1.36-6.9,2.21-2.34-1.32-5.88-3.54-3.54h0Z"/><path class="cls-4" d="M27.4,239.23c.65,3.06,.01,6.25,.67,9.33,.8-1.05,1.61-2.11,2.41-3.16-3.81,.05-7.6,.69-11.33,1.42-3.16,.62-1.82,5.44,1.33,4.82,3.31-.65,6.62-1.2,10-1.24,1.7-.02,2.75-1.57,2.41-3.16-.65-3.06-.01-6.25-.67-9.33-.67-3.15-5.49-1.82-4.82,1.33h0Z"/><path class="cls-4" d="M10.06,313.9c-3.07,13.91-3.03,28.24-1.81,42.37,.89,10.32,3.27,20.48,3.09,30.84-.16,8.76-2.35,38.14,13.8,33.87,3.11-.82,1.79-5.65-1.33-4.82-2.09,.55-3.36,.06-4.52-1.77-1.52-2.38-2.04-5.48-2.41-8.23-.93-6.99-.61-14.1-.51-21.12,.05-3.45-.29-6.61-.82-10.03-1-6.52-1.82-13.06-2.38-19.63-1.15-13.35-1.18-27,1.71-40.14,.69-3.14-4.13-4.48-4.82-1.33h0Z"/><path class="cls-4" d="M31.14,302.82c-3.2,.85-6.21,2.26-9.33,3.33-3.03,1.04-1.73,5.87,1.33,4.82,3.12-1.07,6.13-2.49,9.33-3.33,3.11-.82,1.79-5.65-1.33-4.82h0Z"/><path class="cls-4" d="M32.48,338.07c-2.71,0-5.35,.13-8,.76-2.78,.66-2.13,4.92,.66,4.91,1.7,0,3.09-.34,4.43-1.4,1.07-.85,.88-2.66,0-3.54-1.05-1.05-2.47-.84-3.54,0,.35-.28-.66-.07-.9-.07,.22,1.64,.44,3.27,.66,4.91,2.21-.53,4.4-.58,6.67-.58,3.22,0,3.22-5,0-5h0Z"/><path class="cls-4" d="M31.14,406.07c-2.54,.06-5.23,.99-7.1,2.73-2.36,2.2,1.18,5.73,3.54,3.54,.39-.36,1.08-.69,1.71-.9,.37-.12,.74-.21,1.12-.29,.32-.05,.35-.06,.1-.03,.21-.03,.43-.04,.65-.04,3.22-.07,3.23-5.07,0-5h0Z"/><path class="cls-4" d="M163.23,227.15c-2.98,7.47-8.88,13.49-13.77,19.74-4.93,6.31-9.73,13.45-12.48,21.01-1.1,3.04,3.73,4.33,4.82,1.33,2.71-7.46,7.79-14.55,12.71-20.72,5.04-6.32,10.5-12.43,13.54-20.03,1.2-3-3.64-4.29-4.82-1.33h0Z"/></svg>